{"glyphs":{"0":{"ha":708,"x_min":38,"x_max":672,"o":"m 347 939 q 587 769 501 886 q 672 496 672 653 q 592 215 672 341 q 376 0 513 88 q 200 87 279 23 q 80 245 121 151 q 38 443 38 340 q 123 728 38 589 q 347 939 208 866 m 229 814 q 136 557 136 707 q 181 358 136 452 q 311 203 227 264 q 484 130 395 142 q 553 255 532 197 q 574 385 574 314 q 534 571 574 483 q 415 721 494 660 q 229 814 336 783 z "},"1":{"ha":708,"x_min":134,"x_max":581,"o":"m 134 796 l 303 939 q 394 871 365 913 q 424 760 424 828 l 424 193 q 432 157 424 169 q 485 108 446 136 l 559 168 l 581 145 l 401 0 l 237 108 l 282 168 l 282 676 q 275 747 282 728 q 243 799 264 780 q 216 812 227 812 q 178 792 202 812 q 154 773 164 781 l 134 796 z "},"2":{"ha":708,"x_min":39,"x_max":680,"o":"m 52 727 l 334 939 l 661 742 q 663 676 663 703 q 602 486 663 565 q 329 288 541 408 q 194 200 233 233 q 124 120 155 168 q 268 171 207 157 q 389 186 330 186 q 493 178 440 186 q 574 163 547 171 l 680 130 l 562 0 q 417 44 456 37 q 302 57 356 57 q 77 10 199 57 q 47 0 52 0 q 41 3 43 0 q 39 13 39 6 q 61 92 39 45 q 147 218 91 156 q 277 336 187 262 q 402 447 368 409 q 476 559 450 500 q 503 683 503 617 q 429 845 503 781 l 148 629 l 52 727 z "},"3":{"ha":708,"x_min":25,"x_max":664,"o":"m 297 939 l 616 800 q 620 755 620 774 q 570 611 620 673 q 436 510 519 550 q 607 420 549 484 q 664 283 664 357 q 600 143 664 205 q 297 0 518 62 l 25 210 l 123 307 l 425 75 q 481 148 463 109 q 499 245 499 188 q 436 421 499 356 q 266 487 372 487 q 193 481 232 487 l 193 530 l 206 530 q 389 594 324 530 q 454 769 454 658 q 440 832 454 814 q 408 850 427 850 q 362 829 389 850 l 351 821 l 166 688 l 77 780 l 297 939 z "},"4":{"ha":708,"x_min":25,"x_max":683,"o":"m 657 421 l 683 300 l 517 300 l 517 159 l 559 139 q 589 129 581 129 q 614 139 601 129 l 637 159 l 657 136 l 494 0 l 332 101 l 376 159 l 376 300 l 54 300 l 25 431 l 404 939 q 485 890 452 932 q 517 774 517 849 l 517 421 l 657 421 m 376 421 l 376 705 q 366 765 376 744 q 337 798 357 786 l 56 421 l 376 421 z "},"5":{"ha":708,"x_min":47,"x_max":661,"o":"m 184 926 l 606 926 l 555 796 l 196 796 l 144 477 l 431 670 q 603 540 545 621 q 661 363 661 459 q 580 139 661 241 q 306 0 499 36 l 47 155 l 144 260 l 454 80 q 518 153 500 118 q 546 260 546 204 q 489 429 546 354 q 306 547 431 503 l 102 411 l 184 926 z "},"6":{"ha":708,"x_min":39,"x_max":669,"o":"m 620 819 l 524 697 l 273 814 q 200 672 222 741 q 170 484 170 576 q 173 428 170 460 l 480 632 q 622 531 575 594 q 669 387 669 468 q 612 209 669 288 q 358 0 530 96 q 118 161 197 55 q 39 415 39 267 q 77 612 39 527 q 194 785 115 696 q 365 939 274 873 l 620 819 m 178 392 q 288 215 204 286 q 490 125 371 144 q 557 288 557 197 q 507 416 557 356 q 352 509 456 476 l 178 392 z "},"7":{"ha":708,"x_min":47,"x_max":684,"o":"m 174 926 l 684 926 l 684 890 q 531 690 585 778 q 400 395 447 552 q 347 64 353 237 l 157 0 q 175 144 157 74 q 267 390 206 267 q 393 594 313 484 q 561 795 422 634 l 290 795 q 163 768 208 795 q 82 671 119 741 l 47 671 l 174 926 z "},"8":{"ha":708,"x_min":45,"x_max":665,"o":"m 288 939 l 340 939 q 562 880 488 939 q 635 751 635 822 q 602 657 635 703 q 496 559 568 611 q 608 491 570 533 q 665 352 665 428 q 608 196 665 271 q 367 0 551 120 l 342 0 q 124 70 202 0 q 45 233 45 139 q 87 352 45 295 q 186 452 128 409 q 101 513 131 472 q 71 603 71 554 q 116 744 71 668 q 288 939 161 820 m 204 809 q 173 759 183 785 q 162 704 162 732 q 203 625 162 654 q 301 595 231 605 q 455 570 352 589 q 516 625 494 593 q 538 686 538 656 q 509 751 538 720 q 414 793 479 781 q 204 809 366 803 m 225 442 q 162 372 183 406 q 141 305 141 338 q 201 202 141 247 q 417 143 279 143 q 556 183 509 143 q 603 275 603 224 q 579 339 603 308 q 487 393 555 370 q 335 424 440 410 q 225 442 258 435 z "},"9":{"ha":708,"x_min":37,"x_max":669,"o":"m 92 117 l 187 238 l 439 123 q 511 267 490 201 q 541 458 541 366 q 536 513 541 479 l 229 304 q 133 360 159 339 q 64 444 92 393 q 37 556 37 495 q 109 747 37 656 q 345 939 198 857 q 586 786 502 894 q 669 526 669 677 q 627 314 669 411 q 518 157 594 240 q 345 0 443 74 l 92 117 m 530 545 q 218 812 478 760 q 168 734 185 773 q 151 654 151 694 q 175 559 151 606 q 245 479 199 513 q 355 427 280 454 l 530 545 z "}," ":{"ha":355,"x_min":0,"x_max":0,"o":""},"!":{"ha":390,"x_min":75,"x_max":316,"o":"m 75 800 l 195 926 l 316 800 q 210 254 231 629 l 182 254 q 139 596 165 470 q 75 800 113 722 m 195 0 l 92 103 l 195 207 l 299 103 l 195 0 z "},"\"":{"ha":767,"x_min":106,"x_max":600,"o":"m 210 488 l 177 488 q 118 709 130 613 q 109 840 106 806 l 109 939 l 274 939 l 274 840 q 262 712 274 808 q 210 488 251 616 m 535 488 l 503 488 q 444 709 456 613 q 434 840 431 806 l 434 939 l 600 939 l 600 840 q 588 712 600 808 q 535 488 576 616 z "},"#":{"ha":928,"x_min":55,"x_max":871,"o":"m 55 679 l 269 679 l 326 944 l 437 944 l 380 679 l 637 679 l 693 944 l 806 944 l 749 679 l 871 679 l 871 567 l 727 567 l 681 345 l 871 345 l 871 233 l 659 233 l 603 -31 l 490 -31 l 547 233 l 288 233 l 234 -31 l 121 -31 l 177 233 l 55 233 l 55 345 l 200 345 l 246 567 l 55 567 l 55 679 m 358 567 l 312 346 l 570 346 l 616 567 l 358 567 z "},"$":{"ha":708,"x_min":39,"x_max":669,"o":"m 405 996 l 405 937 q 601 877 496 922 l 547 753 l 405 794 l 405 538 l 579 629 q 669 388 669 529 q 625 222 669 298 q 405 0 557 104 l 405 -121 l 330 -121 l 330 14 l 39 96 l 117 220 l 330 161 l 330 465 l 168 381 q 65 512 91 458 q 39 635 39 566 q 79 789 39 718 q 193 901 119 860 q 330 939 248 931 l 330 996 l 405 996 m 330 815 l 183 857 q 142 720 142 787 q 178 593 142 650 q 294 480 214 536 l 330 498 l 330 815 m 405 140 l 498 115 q 550 206 533 159 q 568 306 568 254 q 534 435 568 374 q 442 523 500 496 l 405 504 l 405 140 z "},"%":{"ha":1362,"x_min":162,"x_max":1205,"o":"m 408 -46 l 319 -46 l 937 943 l 1026 943 l 408 -46 m 360 431 q 215 526 268 460 q 162 670 162 593 q 216 823 162 749 q 360 939 269 897 q 455 888 423 913 q 531 801 505 848 q 557 701 557 753 q 529 592 557 647 q 455 494 501 537 q 360 431 423 465 m 424 522 q 460 589 450 560 q 470 651 470 617 q 426 764 470 711 q 296 845 382 817 q 248 716 248 794 q 289 605 248 655 q 424 522 330 554 m 1008 0 q 863 96 916 29 q 810 239 810 162 q 864 392 810 318 q 1008 508 918 467 q 1103 457 1071 482 q 1179 370 1153 418 q 1205 270 1205 322 q 1177 162 1205 216 q 1103 64 1149 107 q 1008 0 1072 35 m 1072 92 q 1108 158 1099 130 q 1118 220 1118 186 q 1075 333 1118 280 q 944 414 1031 387 q 897 286 897 363 q 937 174 897 224 q 1072 92 978 123 z "},"&":{"ha":1100,"x_min":58,"x_max":1055,"o":"m 262 0 l 58 311 l 386 526 l 256 759 q 239 814 239 789 q 254 852 239 836 q 313 892 277 880 q 326 897 322 895 l 635 1027 q 720 952 685 1004 q 754 839 754 900 q 734 753 754 792 q 670 679 713 715 q 540 589 643 656 l 683 332 l 886 474 q 964 422 935 435 q 1016 410 992 410 q 1036 412 1025 410 q 1045 412 1042 412 l 1051 410 q 1055 400 1055 406 q 1011 347 1055 382 q 917 313 967 313 q 796 375 852 313 l 698 306 q 764 200 740 230 q 830 147 789 170 q 926 125 872 125 q 1014 149 964 125 q 1023 151 1019 151 q 1028 149 1026 151 q 1031 141 1031 145 q 1007 85 1031 121 q 934 24 982 49 q 831 0 886 0 q 722 25 770 0 q 637 94 674 50 q 562 210 610 126 l 262 0 m 525 618 q 616 696 590 654 q 635 768 635 725 q 591 881 635 831 q 504 931 548 931 q 439 905 467 931 q 412 845 412 878 q 437 774 412 819 l 525 618 m 380 120 l 547 237 l 401 498 l 214 376 l 380 120 z "},"'":{"ha":386,"x_min":106,"x_max":274,"o":"m 210 488 l 177 488 q 118 709 130 613 q 109 840 106 806 l 109 939 l 274 939 l 274 840 q 262 712 274 808 q 210 488 251 616 z "},"(":{"ha":463,"x_min":60,"x_max":436,"o":"m 420 -249 q 158 22 256 -144 q 60 381 60 189 q 165 758 60 583 q 423 1022 253 901 l 436 999 q 275 789 336 926 q 203 398 203 628 q 279 -21 203 152 q 436 -229 333 -140 l 420 -249 z "},")":{"ha":463,"x_min":27,"x_max":404,"o":"m 43 -249 l 27 -229 q 183 -21 130 -140 q 260 398 260 152 q 188 789 260 628 q 27 999 126 926 l 39 1022 q 297 758 210 901 q 404 381 404 583 q 305 22 404 189 q 43 -249 207 -144 z "},"*":{"ha":708,"x_min":55,"x_max":654,"o":"m 273 518 q 340 730 319 593 q 302 709 326 722 q 161 602 214 664 l 55 653 l 111 759 q 209 745 152 745 q 330 759 262 745 q 227 847 268 817 q 153 886 202 864 l 170 1002 l 288 981 q 303 895 290 942 q 353 775 317 848 q 420 981 417 894 l 537 1002 l 555 886 q 478 846 506 867 q 378 759 429 811 q 503 745 453 745 q 599 759 566 745 l 654 653 l 545 602 q 370 730 503 655 q 395 610 384 645 q 437 518 414 552 l 353 433 l 273 518 z "},"+":{"ha":926,"x_min":88,"x_max":838,"o":"m 88 517 l 399 517 l 399 830 l 525 830 l 525 517 l 838 517 l 838 392 l 525 392 l 525 82 l 399 82 l 399 392 l 88 392 l 88 517 z "},",":{"ha":390,"x_min":94,"x_max":294,"o":"m 94 107 l 194 207 l 294 113 q 110 -122 256 -52 l 94 -98 q 148 -46 138 -62 q 163 5 163 -20 q 150 50 163 27 q 94 107 136 73 z "},"-":{"ha":550,"x_min":229,"x_max":465,"o":"m 229 401 l 465 401 l 465 314 l 229 314 l 229 401 z "},".":{"ha":390,"x_min":92,"x_max":298,"o":"m 195 0 l 92 103 l 195 207 l 298 103 l 195 0 z "},"/":{"ha":777,"x_min":35,"x_max":741,"o":"m 123 -46 l 35 -46 l 652 943 l 741 943 l 123 -46 z "},":":{"ha":390,"x_min":92,"x_max":298,"o":"m 195 0 l 92 103 l 195 207 l 298 103 l 195 0 m 195 516 l 92 619 l 195 723 l 298 619 l 195 516 z "},";":{"ha":390,"x_min":92,"x_max":298,"o":"m 94 107 l 194 207 l 294 113 q 110 -122 256 -52 l 94 -98 q 148 -46 138 -62 q 163 5 163 -20 q 150 50 163 27 q 94 107 136 73 m 195 516 l 92 619 l 195 723 l 298 619 l 195 516 z "},"<":{"ha":926,"x_min":89,"x_max":837,"o":"m 837 86 l 89 399 l 89 512 l 837 825 l 837 690 l 259 456 l 837 222 l 837 86 z "},"=":{"ha":926,"x_min":89,"x_max":837,"o":"m 89 680 l 837 680 l 837 555 l 89 555 l 89 680 m 89 359 l 837 359 l 837 233 l 89 233 l 89 359 z "},">":{"ha":926,"x_min":89,"x_max":837,"o":"m 89 825 l 837 512 l 837 399 l 89 86 l 89 221 l 667 455 l 89 689 l 89 825 z "},"?":{"ha":463,"x_min":23,"x_max":407,"o":"m 23 743 l 125 926 l 149 926 q 338 866 270 926 q 407 723 407 806 q 388 637 407 680 q 307 522 368 594 q 225 398 245 449 q 206 256 206 347 l 176 256 q 175 298 175 284 q 186 401 175 348 q 233 553 197 455 q 259 675 259 626 q 245 727 259 699 q 204 771 231 755 q 149 787 178 787 q 43 732 94 787 l 23 743 m 190 0 l 87 103 l 190 207 l 294 103 l 190 0 z "},"@":{"ha":1279,"x_min":55,"x_max":1254,"o":"m 792 627 l 958 634 l 833 208 q 812 101 812 138 q 829 65 812 81 q 866 49 845 49 q 989 103 915 49 q 1111 257 1063 157 q 1160 470 1160 357 q 1039 778 1160 657 q 726 898 919 898 q 422 820 559 898 q 206 592 286 741 q 126 272 126 443 q 276 -112 126 37 q 656 -262 425 -262 q 998 -159 847 -262 q 1213 112 1149 -57 l 1254 112 q 1017 -194 1173 -87 q 655 -300 861 -300 q 224 -131 394 -300 q 55 296 55 37 q 139 625 55 473 q 375 859 224 777 q 711 941 527 941 q 974 881 861 941 q 1142 712 1086 821 q 1198 483 1198 604 q 1138 226 1198 342 q 986 55 1077 111 q 791 0 896 0 q 689 33 724 0 q 654 117 654 66 q 670 214 654 156 q 583 85 614 121 q 498 15 541 37 q 435 0 471 0 q 355 38 388 0 q 322 149 322 77 q 367 363 322 262 q 472 530 412 465 q 603 635 532 596 q 673 653 635 653 q 735 629 711 653 q 769 547 760 606 l 792 627 m 688 604 q 654 590 675 604 q 597 511 633 575 q 529 348 562 448 q 497 186 497 248 q 510 140 497 157 q 537 124 523 124 q 589 156 556 124 q 692 318 647 211 q 738 516 738 426 q 720 586 738 562 q 688 604 707 604 z "},"A":{"ha":1013,"x_min":60,"x_max":979,"o":"m 942 1027 l 955 996 q 883 949 906 972 q 850 897 859 926 q 840 811 840 868 q 841 762 840 793 l 852 256 q 870 146 854 172 q 898 128 882 128 q 959 168 918 128 l 979 142 l 852 35 l 810 0 q 734 66 757 25 q 709 199 711 108 l 446 0 q 148 144 227 144 q 115 132 128 144 q 104 107 104 123 q 117 68 104 90 q 134 31 134 40 q 125 9 134 18 q 102 0 115 0 q 75 14 85 0 q 60 61 60 32 q 78 134 60 94 q 134 222 97 174 q 147 241 141 232 l 244 373 q 106 515 146 447 q 66 667 66 583 q 116 848 66 764 q 266 979 166 931 q 472 1027 366 1027 q 785 915 634 1027 q 855 978 821 954 q 942 1027 889 1003 m 608 870 q 438 912 523 912 q 269 872 348 912 q 150 770 189 833 q 111 642 111 707 q 261 395 111 503 l 488 705 q 396 733 437 733 q 304 680 340 733 q 290 669 297 669 q 282 673 286 669 q 279 684 279 677 q 300 742 279 705 q 363 802 321 779 q 451 825 405 825 q 559 802 498 825 l 608 870 m 696 800 q 669 828 676 822 q 635 853 665 833 l 339 449 l 704 449 l 696 800 m 266 350 l 205 265 l 549 117 l 709 235 l 707 350 l 266 350 z "},"B":{"ha":1172,"x_min":51,"x_max":1093,"o":"m 912 1027 q 1019 972 983 1008 q 1069 853 1069 920 q 1030 740 1069 798 q 884 600 990 681 q 1017 570 975 592 q 1076 515 1059 549 q 1093 401 1093 481 l 1093 168 q 682 0 852 141 q 570 58 623 41 q 387 86 484 86 q 194 37 267 86 q 145 -28 145 5 q 159 -64 145 -40 q 173 -102 173 -88 q 163 -126 173 -116 q 140 -136 153 -136 q 106 -118 121 -136 q 91 -72 91 -100 q 110 -12 91 -45 q 190 85 128 22 q 270 177 252 148 q 287 231 287 206 q 267 280 287 261 q 216 300 247 300 q 171 284 189 300 q 147 233 153 269 l 123 233 q 122 252 122 245 q 160 345 122 309 q 262 382 199 382 q 286 381 270 382 q 266 477 285 448 q 175 526 236 526 q 108 506 137 526 q 77 464 92 496 l 51 473 q 101 576 58 538 q 213 615 145 615 q 275 611 238 615 q 293 750 278 707 q 343 830 308 794 q 477 931 378 867 q 319 901 384 901 q 211 917 278 901 q 156 926 172 926 q 104 905 125 926 q 77 831 83 884 l 51 831 q 74 935 53 893 q 137 1002 94 977 q 227 1027 180 1027 q 345 1007 262 1027 q 477 987 427 987 q 550 995 515 987 q 642 1027 585 1003 l 655 998 q 460 860 509 927 q 412 680 412 792 l 412 401 q 391 259 412 310 q 309 143 371 208 q 471 252 429 194 q 512 424 512 311 l 512 624 q 536 821 512 764 q 626 919 561 878 q 912 1027 692 960 m 795 962 q 696 905 722 928 q 661 851 671 882 q 651 744 651 819 l 651 466 q 637 354 651 391 q 585 280 624 316 q 429 174 547 243 q 547 184 492 184 q 724 158 641 184 l 724 723 l 754 723 l 754 547 q 892 662 848 603 q 937 791 937 722 q 902 889 937 848 q 795 962 867 930 m 754 449 q 854 429 810 429 q 955 449 899 429 q 934 524 955 496 q 854 578 913 553 q 754 515 781 529 l 754 449 m 955 419 q 854 399 898 399 q 754 419 808 399 l 754 298 q 852 317 806 317 q 955 298 896 317 l 955 419 m 955 267 q 849 290 892 290 q 754 267 804 290 l 754 146 q 809 117 783 134 q 955 174 878 153 l 955 267 z "},"C":{"ha":1013,"x_min":81,"x_max":990,"o":"m 393 929 l 409 910 q 258 764 308 842 q 195 545 195 663 q 289 281 195 402 q 338 337 330 314 q 346 461 346 359 l 346 765 l 636 1007 q 796 955 738 967 q 933 943 854 943 l 949 943 l 960 919 l 848 812 q 592 895 734 824 l 600 120 l 625 119 q 803 153 723 119 q 970 260 884 186 l 990 241 q 866 106 927 154 q 720 29 806 58 q 551 0 635 0 q 316 60 426 0 q 143 233 205 121 q 81 465 81 346 q 169 738 81 612 q 393 929 238 836 m 562 899 l 482 830 l 482 521 q 476 444 482 463 q 445 391 469 419 q 307 259 395 333 q 423 166 361 199 q 568 123 485 134 l 562 899 z "},"D":{"ha":1173,"x_min":25,"x_max":1090,"o":"m 25 1007 l 57 1007 q 93 959 68 973 q 199 940 125 940 q 496 949 245 940 q 684 956 647 956 q 876 917 797 956 q 1004 798 955 878 q 1070 578 1054 718 q 1090 144 1082 479 q 886 0 958 61 q 506 60 671 60 q 298 34 394 60 q 96 -52 203 7 l 76 -26 q 320 121 215 45 q 459 255 425 196 q 492 406 492 315 q 491 505 492 439 q 490 599 490 550 q 499 726 490 685 q 541 819 509 766 l 524 819 q 413 733 441 772 q 386 633 386 694 l 391 393 q 334 220 391 296 q 57 0 276 144 l 37 26 q 183 153 148 104 q 218 257 218 203 q 189 337 218 304 q 123 370 159 370 q 89 359 104 370 q 47 317 73 349 l 25 339 q 86 425 48 397 q 178 452 125 452 q 213 448 194 452 q 253 438 231 445 q 252 507 252 477 q 295 680 252 613 q 460 819 338 747 q 267 808 348 808 q 119 832 180 808 q 51 893 73 851 q 25 1007 29 935 m 574 819 q 535 733 545 770 q 522 640 522 683 l 527 372 q 501 267 527 321 q 427 170 481 227 q 578 185 526 186 l 617 184 l 617 819 l 574 819 m 652 559 q 724 519 693 530 q 791 508 755 508 q 858 519 827 508 q 931 559 889 530 q 852 765 918 711 q 652 819 787 819 l 652 559 m 652 335 q 730 371 698 361 q 802 381 763 381 q 871 372 839 381 q 947 338 903 363 l 936 522 q 861 485 892 495 q 792 475 829 475 q 721 487 756 475 q 652 522 686 498 l 652 335 m 652 182 q 786 166 734 176 q 949 125 838 156 q 950 231 950 227 q 949 296 950 239 q 872 337 905 326 q 801 349 840 349 q 728 337 762 349 q 652 296 694 326 l 652 182 z "},"E":{"ha":1013,"x_min":71,"x_max":987,"o":"m 392 928 l 406 907 q 240 742 293 836 q 186 543 186 649 q 280 281 186 406 q 328 335 319 313 q 336 449 336 357 l 336 761 l 632 1014 q 771 958 715 974 q 883 943 828 943 q 954 949 911 943 l 970 928 l 736 692 l 920 692 l 846 562 l 588 562 l 588 122 l 631 120 q 823 168 728 120 q 970 281 895 204 l 987 255 q 813 73 908 132 q 549 0 697 0 q 179 161 315 0 q 71 462 71 290 q 115 662 71 569 q 239 827 159 754 q 392 928 296 879 m 557 895 l 474 826 l 474 511 q 468 439 474 459 q 441 395 463 418 q 298 260 397 342 q 415 167 357 197 q 557 125 473 136 l 557 895 m 817 819 q 700 843 745 829 q 588 890 654 857 l 588 587 l 817 819 z "},"F":{"ha":1178,"x_min":22,"x_max":1149,"o":"m 1120 1014 l 1149 1014 q 1131 923 1147 954 q 1067 857 1109 882 q 972 833 1024 833 q 842 863 918 833 l 842 683 l 1054 683 l 1015 582 l 842 582 l 842 260 q 828 120 842 164 q 777 37 815 77 q 680 -31 738 -3 q 545 -87 596 -70 l 261 -182 q 105 -132 127 -132 q 71 -145 86 -132 q 50 -189 56 -159 l 22 -182 q 33 -108 22 -135 q 85 -42 52 -64 q 156 -20 118 -20 q 294 -56 210 -20 q 367 -87 354 -83 q 393 -91 380 -91 q 431 -74 414 -91 q 454 -21 449 -56 q 459 127 459 15 l 459 582 l 417 583 q 262 558 313 583 q 175 477 212 534 l 149 488 q 220 617 176 578 q 427 684 294 684 q 459 683 437 684 l 459 827 l 506 825 q 656 856 582 825 q 780 930 730 887 q 850 1014 813 959 q 1033 943 962 943 q 1086 959 1064 943 q 1120 1014 1107 976 m 703 835 q 599 798 657 810 l 599 251 q 593 144 599 222 q 583 74 590 98 q 549 7 571 39 q 473 -75 526 -24 q 614 6 562 -42 q 685 109 667 54 q 703 275 703 164 l 703 835 z "},"G":{"ha":1100,"x_min":52,"x_max":1049,"o":"m 983 939 l 995 916 l 748 733 q 896 696 821 733 q 1010 595 972 660 q 1049 458 1049 530 q 971 240 1049 345 q 748 68 892 136 q 475 0 603 0 q 251 55 352 0 q 101 193 149 110 q 52 375 52 275 q 106 583 52 487 q 308 796 161 680 l 582 1014 q 761 940 696 958 q 888 922 825 922 q 983 939 935 922 m 478 897 l 467 885 l 467 564 l 784 803 q 478 897 635 840 m 326 772 q 216 621 248 692 q 184 457 184 551 q 205 324 184 382 q 267 213 226 267 q 315 273 305 248 q 326 363 326 297 l 326 772 m 586 429 q 673 382 633 396 q 760 369 712 369 q 840 380 803 369 q 932 422 876 391 q 870 538 916 494 q 686 610 796 610 q 586 591 639 610 l 586 429 m 556 578 q 467 526 502 552 l 467 412 q 459 341 467 359 q 427 304 452 323 q 403 285 412 292 l 286 187 q 410 92 347 123 q 556 56 473 61 l 556 578 m 586 240 q 747 285 671 285 q 902 244 820 285 q 937 381 937 316 l 937 390 q 838 349 876 359 q 757 339 801 339 q 672 352 715 339 q 586 390 629 365 l 586 240 m 586 57 q 689 75 649 60 q 804 136 750 96 q 887 218 845 165 q 742 252 805 252 q 586 208 665 252 l 586 57 z "},"H":{"ha":1173,"x_min":35,"x_max":1106,"o":"m 833 1027 l 846 999 q 713 936 756 968 q 658 869 671 904 q 645 754 645 833 l 645 614 l 909 826 q 1036 726 993 773 q 1092 633 1078 680 q 1106 479 1106 586 l 1106 378 q 1096 260 1106 299 q 1057 184 1086 222 q 907 45 1013 128 q 814 -38 831 -15 q 796 -77 796 -61 q 803 -93 796 -86 q 822 -100 810 -100 q 843 -97 829 -100 q 863 -94 856 -94 q 890 -102 881 -94 q 899 -127 899 -111 q 884 -158 899 -146 q 834 -175 863 -175 q 781 -150 803 -175 q 758 -90 758 -125 q 775 -33 758 -66 q 857 81 791 0 q 942 204 923 162 q 969 305 962 245 q 817 345 885 345 q 644 304 729 345 q 446 163 558 264 q 516 165 493 165 q 660 156 570 165 q 704 153 685 153 q 763 170 737 153 q 817 225 789 186 l 846 209 l 694 -4 q 533 52 602 35 q 393 68 464 68 q 252 48 314 68 q 165 -1 191 29 q 146 -42 146 -24 q 163 -79 146 -55 q 174 -111 174 -96 q 164 -138 174 -127 q 141 -149 154 -149 q 109 -131 125 -149 q 94 -86 94 -113 q 111 -23 94 -54 q 188 67 128 7 q 264 160 247 127 q 282 224 282 193 q 269 261 282 248 q 235 275 256 275 q 169 216 194 275 l 139 216 q 161 298 145 270 q 211 345 178 326 q 280 363 237 360 q 247 477 277 446 q 163 509 218 509 q 109 496 129 509 q 70 448 90 484 l 45 456 q 67 522 53 500 q 127 574 90 555 q 206 593 164 593 q 266 589 232 593 q 264 643 264 621 q 309 798 264 724 q 418 909 341 851 q 315 884 342 884 q 193 902 292 884 q 142 909 155 909 q 99 889 118 909 q 70 817 79 869 l 35 817 q 65 912 46 879 q 140 988 95 962 q 230 1015 184 1015 q 325 996 257 1015 q 433 977 393 977 q 614 1027 514 977 l 629 999 q 439 866 491 945 q 406 695 406 814 l 406 378 q 388 248 406 294 q 311 127 371 201 q 438 222 394 174 q 494 312 482 270 q 506 456 506 353 l 506 686 q 531 846 506 794 q 616 939 555 899 q 833 1027 677 979 m 645 574 l 645 544 q 810 509 734 509 q 889 517 855 509 q 969 549 924 526 q 925 637 957 600 q 823 714 893 675 l 645 574 m 645 340 q 804 376 728 376 q 881 368 845 376 q 969 340 916 361 l 969 514 q 884 485 918 492 q 806 477 849 477 q 645 510 729 477 l 645 340 z "},"I":{"ha":854,"x_min":37,"x_max":810,"o":"m 799 1027 l 810 1004 q 712 948 739 983 q 685 854 685 913 q 717 595 685 781 q 747 406 743 446 q 752 323 752 366 q 712 143 752 216 q 610 38 672 71 q 496 5 547 5 q 318 44 443 5 q 177 75 219 75 q 106 53 135 75 q 62 -10 77 32 l 37 0 q 79 99 53 64 q 153 163 114 145 q 267 186 192 182 q 368 218 341 190 q 395 304 395 245 q 349 484 395 422 q 259 529 315 529 q 212 519 236 529 q 147 479 188 509 l 127 496 q 212 588 163 557 q 324 618 260 618 q 347 618 334 618 q 379 799 349 728 q 491 962 408 870 q 388 916 410 923 q 340 909 366 909 q 278 916 319 909 q 218 924 238 924 q 145 903 170 924 q 113 836 120 882 l 87 842 q 136 960 99 917 q 278 1019 189 1019 q 340 1011 304 1019 q 453 997 407 997 q 516 1003 489 997 q 582 1027 543 1009 l 599 1008 q 500 890 528 949 q 473 724 473 831 q 477 626 473 668 q 494 503 478 607 q 514 330 514 371 q 467 210 514 252 q 355 162 433 178 q 466 76 434 93 q 529 59 497 59 q 606 92 574 59 q 637 178 637 125 q 607 420 637 241 q 570 734 570 630 q 598 890 570 832 q 680 985 625 948 q 799 1027 720 1013 z "},"J":{"ha":940,"x_min":21,"x_max":917,"o":"m 893 1027 l 917 1005 q 797 838 829 909 q 765 682 765 766 q 768 532 765 640 q 769 414 769 475 q 722 134 769 227 q 520 -81 661 12 q 316 -157 404 -157 q 273 -153 292 -157 q 213 -133 254 -149 q 121 -111 157 -111 q 73 -123 92 -111 q 48 -161 60 -132 l 21 -149 q 67 -50 39 -82 q 189 0 113 0 q 260 -13 221 0 q 344 -31 317 -31 q 430 2 397 -31 q 463 91 463 36 q 410 239 463 166 q 232 339 338 339 q 183 332 212 339 l 168 357 q 288 395 232 395 q 345 387 319 395 q 408 357 370 379 q 383 448 400 417 q 323 513 361 490 q 250 536 286 536 q 183 512 218 536 l 165 535 q 235 581 203 568 q 307 593 267 593 q 422 557 359 593 q 442 681 425 635 q 507 775 460 726 q 661 893 555 825 q 499 863 564 863 q 350 892 432 863 q 224 922 268 922 q 133 894 166 922 q 100 838 100 867 q 105 824 100 829 q 117 819 110 819 q 138 825 124 819 q 163 831 152 831 q 202 814 186 831 q 218 773 218 798 q 200 728 218 746 q 155 709 182 709 q 91 740 119 709 q 64 822 64 771 q 132 958 64 896 q 298 1019 199 1019 q 507 986 359 1019 q 692 959 625 959 q 799 975 755 959 q 893 1027 844 990 m 796 932 q 654 842 700 885 q 564 705 594 783 q 533 493 533 627 l 537 193 q 509 20 537 82 q 425 -75 490 -24 q 534 -18 500 -44 q 606 75 580 18 q 633 220 633 132 l 628 528 q 675 772 628 667 q 796 932 707 846 z "},"K":{"ha":1173,"x_min":40,"x_max":1151,"o":"m 675 1027 l 700 1012 q 620 842 644 916 q 589 669 596 768 l 848 875 l 1006 691 l 736 498 q 845 416 799 465 q 954 262 892 367 q 1029 143 1015 158 q 1055 129 1042 129 q 1095 155 1068 129 l 1130 189 l 1151 163 l 982 0 q 926 51 947 24 q 838 199 906 77 l 663 0 q 515 52 581 36 q 380 67 450 67 q 248 52 313 67 q 98 0 182 37 l 76 31 q 267 219 209 137 q 295 298 295 260 q 271 357 295 334 q 215 381 248 381 q 162 351 185 381 l 138 362 q 179 424 151 402 q 245 446 208 446 q 294 437 269 446 q 348 408 320 427 q 349 446 349 429 q 307 563 349 518 q 206 608 265 608 q 138 578 172 608 l 116 587 q 164 652 132 630 q 238 674 196 674 q 287 665 260 674 q 342 637 313 656 q 340 687 340 666 q 366 798 340 750 q 513 973 392 846 q 400 918 441 932 q 317 904 358 904 q 261 910 296 904 q 212 916 227 916 q 128 891 162 916 q 62 806 94 865 l 40 811 q 75 913 54 880 q 154 998 106 968 q 251 1027 202 1027 q 345 1010 289 1027 q 437 992 401 992 q 564 1027 496 992 l 589 1012 q 505 826 533 930 q 477 623 477 721 l 479 429 q 466 350 479 386 q 427 284 452 313 q 395 250 401 256 l 196 83 q 308 137 248 111 q 463 217 416 183 q 534 303 509 251 q 559 437 559 356 l 556 648 q 583 822 556 724 q 675 1027 610 920 m 761 766 l 589 628 l 589 608 l 590 500 l 589 434 l 873 635 l 761 766 m 823 226 q 706 365 760 327 q 589 405 652 402 q 558 277 587 328 q 464 180 530 227 q 618 162 568 174 q 728 119 667 150 l 823 226 z "},"L":{"ha":1013,"x_min":31,"x_max":992,"o":"m 805 1027 l 821 1003 q 704 958 743 991 q 665 859 665 924 q 673 755 665 823 q 686 564 686 638 q 642 390 686 465 q 434 175 597 315 q 627 210 541 210 q 767 188 705 210 q 905 114 829 167 l 972 175 l 992 151 l 817 0 q 673 78 745 54 q 506 103 602 103 q 339 82 417 103 q 137 0 260 61 l 123 19 q 286 164 246 110 q 326 267 326 219 q 297 344 326 313 q 230 375 268 375 q 186 363 211 375 l 166 383 q 212 414 191 406 q 261 423 233 423 q 294 419 277 423 q 328 405 311 414 q 330 430 330 420 q 297 505 330 473 q 217 537 264 537 q 147 510 183 537 l 123 526 q 175 573 149 559 q 264 595 217 595 q 287 594 275 595 q 313 589 299 592 q 309 658 309 630 q 333 798 309 740 q 418 918 358 855 q 308 895 353 895 q 195 916 263 895 q 145 925 163 925 q 86 903 110 925 q 62 849 62 880 q 68 822 62 838 l 39 812 q 31 865 31 844 q 82 979 31 930 q 204 1027 133 1027 q 305 1003 237 1027 q 411 979 373 979 q 543 1027 480 979 l 562 1003 q 467 903 494 952 q 439 783 439 853 q 446 662 439 730 q 460 487 460 533 q 428 309 460 389 q 313 125 396 229 q 495 310 439 215 q 550 524 550 405 q 541 671 550 591 q 531 806 531 751 q 554 903 531 855 q 615 977 577 950 q 699 1017 653 1004 q 805 1027 734 1025 z "},"M":{"ha":1403,"x_min":16,"x_max":1381,"o":"m 1307 968 l 1328 947 q 1271 866 1283 897 q 1259 770 1259 834 l 1259 246 q 1272 145 1259 165 q 1308 124 1286 124 q 1361 155 1326 124 l 1381 129 l 1217 0 q 1137 69 1158 30 q 1116 205 1116 108 l 1116 854 l 1002 941 l 958 913 l 958 576 l 1040 576 l 958 474 l 958 189 l 1010 232 l 1031 210 l 780 0 q 688 99 723 68 q 627 140 662 121 l 627 164 q 669 199 659 175 q 676 281 676 216 l 676 474 l 471 474 l 471 182 q 409 -4 471 61 q 249 -69 348 -69 q 172 -61 227 -69 q 117 -56 134 -56 q 66 -71 82 -56 q 50 -124 50 -87 l 24 -124 q 16 -75 16 -95 q 35 -6 16 -39 q 85 41 54 26 q 175 60 110 54 q 271 101 240 66 q 302 197 302 136 q 257 357 302 294 q 147 420 212 420 q 64 372 97 420 l 40 382 q 82 460 58 433 q 147 503 106 487 q 234 515 177 514 q 233 545 233 535 q 279 737 233 659 q 423 881 326 815 q 703 1027 520 946 q 790 958 767 993 q 815 858 812 924 l 1080 1027 l 1243 906 l 1307 968 m 676 576 l 676 778 q 657 885 676 852 q 589 939 638 918 q 523 895 543 915 q 484 829 496 867 q 471 718 471 790 l 471 503 l 527 576 l 676 576 m 928 893 l 815 819 l 815 576 l 928 576 l 928 893 m 466 867 q 389 780 407 821 q 372 634 372 738 l 372 250 q 348 118 372 156 q 254 52 323 80 q 306 50 285 50 q 388 67 356 50 q 429 110 419 85 q 439 199 439 136 l 439 711 q 446 808 439 769 q 466 867 451 831 m 928 474 l 815 474 l 815 298 q 827 182 815 208 q 880 138 847 138 q 928 164 898 138 l 928 474 z "},"N":{"ha":1402,"x_min":-8,"x_max":1344,"o":"m 892 1027 q 1078 956 1011 998 q 1214 814 1167 898 q 1260 637 1260 731 q 1237 505 1260 570 q 1163 359 1215 439 q 985 119 1145 331 q 1149 155 1067 155 q 1209 150 1184 155 q 1246 144 1234 144 q 1268 155 1258 144 q 1312 231 1278 165 l 1344 218 l 1227 0 q 1075 31 1135 31 q 962 5 1006 31 q 877 -87 918 -22 l 850 -74 q 932 98 873 -5 q 1080 375 1031 267 q 967 433 1018 416 q 859 450 916 450 q 770 438 812 450 q 672 395 728 427 l 672 276 q 661 120 672 167 q 611 25 650 73 q 510 -56 572 -24 q 383 -88 449 -88 q 331 -83 357 -88 q 246 -59 316 -80 q 167 -37 176 -39 q 126 -33 148 -33 q 70 -42 94 -33 q 11 -74 45 -51 l -8 -57 q 180 66 61 66 q 304 49 228 66 q 368 39 351 39 q 431 68 405 39 q 458 144 458 98 q 417 245 458 204 q 316 286 376 286 q 232 252 277 286 l 213 269 q 273 324 243 307 q 340 340 303 340 q 386 333 362 340 q 434 311 409 326 q 393 402 422 370 q 266 458 342 458 q 212 451 233 458 q 172 427 196 446 l 155 451 q 222 503 192 488 q 290 517 253 517 q 347 508 321 517 q 418 469 374 499 q 400 556 418 524 q 337 615 382 589 q 250 642 292 642 q 172 614 211 642 l 155 637 q 212 682 186 670 q 284 699 245 699 q 346 689 317 699 q 418 650 374 680 l 418 802 l 892 1027 m 672 663 q 783 611 736 625 q 881 596 830 596 q 990 614 939 596 q 1112 680 1042 633 q 983 835 1074 777 q 779 894 892 894 q 672 876 730 894 l 672 663 m 641 867 l 558 826 l 558 242 q 538 97 558 140 q 459 14 517 54 q 560 41 529 19 q 624 121 606 74 q 641 282 641 168 l 641 867 m 672 432 q 773 471 732 460 q 863 482 815 482 q 977 465 924 482 q 1090 406 1029 447 q 1119 498 1109 454 q 1128 582 1128 542 q 1121 646 1128 610 q 994 581 1046 599 q 884 564 941 564 q 787 577 835 564 q 672 627 739 591 l 672 432 z "},"O":{"ha":1173,"x_min":49,"x_max":1123,"o":"m 602 1014 q 787 980 720 1002 q 963 889 887 948 q 1081 751 1038 831 q 1123 577 1123 671 q 1078 406 1123 490 q 925 217 1034 322 q 705 56 816 112 q 489 0 595 0 q 270 56 376 0 q 106 211 164 113 q 49 429 49 310 q 63 561 49 498 q 113 708 77 625 q 270 800 180 741 q 513 954 318 831 q 602 1014 553 979 m 551 879 q 460 883 505 882 l 460 482 q 451 391 460 417 q 418 338 442 366 l 293 217 q 413 140 357 163 q 551 112 470 117 l 551 879 m 580 698 q 672 637 629 656 q 768 618 716 618 q 856 637 815 618 q 941 698 896 656 q 869 772 902 748 q 738 842 808 817 q 580 877 667 867 l 580 698 m 321 794 q 238 722 263 751 q 182 628 205 684 q 160 506 160 572 q 271 238 160 362 q 311 296 302 267 q 321 409 321 325 l 321 794 m 580 415 q 670 481 628 463 q 766 500 711 500 q 870 480 824 500 q 969 410 916 460 q 987 526 987 477 q 981 606 987 572 q 958 668 975 631 q 856 603 899 621 q 760 586 812 586 q 671 602 711 586 q 580 659 631 618 l 580 415 m 580 112 q 719 140 665 117 q 860 235 800 174 q 958 382 920 296 q 767 470 865 470 q 659 439 710 470 q 580 366 621 418 l 580 112 z "},"P":{"ha":1173,"x_min":31,"x_max":1082,"o":"m 576 1003 l 607 1003 l 607 880 l 795 1003 q 992 859 938 913 q 1064 757 1047 804 q 1082 617 1082 709 l 1082 185 l 873 0 q 728 50 789 34 q 607 70 667 65 l 607 -195 l 354 -195 l 354 82 q 186 52 252 76 q 52 -26 119 27 l 31 0 q 191 142 123 101 q 354 202 258 182 q 330 350 353 294 q 247 452 307 406 q 93 523 186 498 l 93 551 q 178 600 141 575 l 354 715 l 354 762 q 341 860 354 829 q 293 911 328 890 q 215 931 258 931 q 111 897 168 931 l 93 918 q 186 982 140 962 q 288 1003 232 1003 q 400 977 349 1003 q 472 912 450 951 q 494 806 493 873 l 576 861 l 576 1003 m 607 625 q 695 578 658 591 q 776 565 733 565 q 857 578 819 565 q 947 625 895 591 q 929 722 946 683 q 857 805 912 760 q 694 903 802 850 l 607 845 l 607 625 m 576 825 l 494 770 l 494 -165 l 576 -165 l 576 825 m 354 677 l 206 579 q 285 536 252 559 q 354 476 317 513 l 354 677 m 607 378 q 700 420 661 408 q 778 431 738 431 q 855 420 818 431 q 947 378 892 409 l 947 589 q 853 546 890 557 q 771 534 815 534 q 694 545 729 534 q 607 585 659 555 l 607 378 m 607 202 q 765 179 687 199 q 947 109 842 158 l 947 340 q 859 387 896 374 q 778 399 821 399 q 697 387 734 399 q 607 340 659 374 l 607 202 z "},"Q":{"ha":1173,"x_min":49,"x_max":1151,"o":"m 800 114 q 488 0 639 0 q 270 56 376 0 q 106 211 164 113 q 49 429 49 310 q 63 561 49 498 q 113 708 77 625 q 270 800 180 741 q 513 954 318 831 q 602 1014 553 979 q 787 980 720 1002 q 963 889 887 948 q 1081 751 1038 831 q 1123 577 1123 671 q 1082 415 1123 491 q 909 202 1025 305 l 1088 73 l 1133 109 l 1151 87 l 1008 -35 l 800 114 m 551 879 q 460 883 505 882 l 460 482 q 452 393 460 418 q 422 343 444 368 q 293 218 401 318 q 410 140 352 164 q 551 112 469 116 l 551 879 m 580 698 q 672 637 629 656 q 768 618 716 618 q 856 637 815 618 q 941 698 896 656 q 869 772 902 748 q 738 842 808 817 q 580 877 667 867 l 580 698 m 321 794 q 238 722 263 751 q 182 628 205 684 q 160 506 160 572 q 271 238 160 362 q 311 296 302 267 q 321 409 321 325 l 321 794 m 580 415 q 670 481 628 463 q 766 500 711 500 q 870 480 824 500 q 969 410 916 460 q 987 526 987 477 q 981 606 987 572 q 958 668 975 631 q 856 603 899 621 q 760 586 812 586 q 671 602 711 586 q 580 659 631 618 l 580 415 m 580 112 q 719 140 665 117 q 860 235 800 174 q 958 382 920 296 q 767 470 865 470 q 659 439 710 470 q 580 366 621 418 l 580 112 z "},"R":{"ha":1173,"x_min":26,"x_max":1153,"o":"m 743 1008 l 977 710 l 759 563 q 908 431 852 507 q 995 234 964 355 q 1024 149 1009 176 q 1062 106 1034 131 l 1130 164 l 1153 140 l 989 0 q 918 66 939 31 q 861 227 902 90 q 804 351 838 300 q 730 429 769 403 q 627 475 692 455 l 581 446 l 581 164 q 711 106 642 144 l 781 169 l 803 145 l 627 0 q 459 68 530 49 q 317 88 389 88 q 143 58 227 88 q 45 0 99 42 l 26 16 q 162 143 94 102 q 329 198 230 184 l 329 229 q 312 336 329 294 q 250 424 295 378 q 156 498 205 469 q 66 535 124 517 l 66 563 q 201 637 121 583 l 329 723 q 317 848 329 810 q 269 911 304 886 q 191 936 234 936 q 142 928 164 936 q 89 897 121 920 l 66 913 q 162 987 119 968 q 267 1006 204 1006 q 383 979 336 1006 q 452 903 429 951 q 468 819 466 873 l 743 1008 m 652 907 l 581 859 l 581 484 l 846 661 l 652 907 m 549 837 l 468 780 l 468 193 q 549 174 509 186 l 549 837 m 329 685 l 178 583 q 249 543 221 563 q 329 475 277 522 l 329 685 z "},"S":{"ha":1173,"x_min":22,"x_max":1115,"o":"m 436 1014 l 743 911 l 766 951 q 783 978 778 973 q 795 983 788 983 q 806 979 802 983 q 810 968 810 974 q 794 930 810 958 l 651 683 l 763 687 q 886 672 816 689 q 1007 620 956 655 q 1086 535 1057 584 q 1115 429 1115 487 q 1025 218 1115 321 q 705 0 935 115 q 521 68 626 33 q 204 -24 327 -24 q 70 14 117 -24 q 22 102 22 52 q 79 200 22 156 q 248 245 136 245 q 358 235 292 245 l 409 328 l 313 323 q 218 333 278 323 q 120 368 159 344 q 63 426 82 391 q 44 498 44 460 q 87 606 44 559 q 176 659 114 635 l 176 667 q 232 812 176 730 q 436 1014 288 894 m 682 803 q 515 874 575 856 q 410 892 456 892 q 307 856 347 892 q 267 772 267 820 q 301 694 267 724 q 404 663 335 663 q 612 680 450 663 l 682 803 m 537 551 q 368 541 450 541 q 237 562 275 541 q 179 630 198 584 q 130 553 130 599 q 168 484 130 511 q 340 448 218 448 q 483 456 396 448 l 537 551 m 521 458 q 746 477 683 477 q 878 438 832 477 q 923 345 923 399 q 879 252 923 297 q 692 146 834 208 l 826 104 q 963 223 915 159 q 1011 363 1011 287 q 981 462 1011 414 q 888 539 951 511 q 745 568 826 568 q 576 555 679 568 l 521 458 m 389 230 q 499 205 456 216 q 650 159 541 193 q 800 299 800 229 q 781 338 800 321 q 732 356 762 356 q 642 348 695 356 q 446 328 492 328 l 389 230 m 475 83 q 194 135 302 135 q 106 111 138 135 q 83 71 83 94 q 106 31 83 45 q 208 6 141 6 q 475 83 311 6 z "},"T":{"ha":1100,"x_min":47,"x_max":1073,"o":"m 1048 1014 l 1073 996 q 1034 892 1059 930 q 961 832 1009 854 q 851 810 913 810 q 770 814 818 810 l 770 129 q 935 209 873 160 q 1048 351 996 258 l 1073 338 q 1004 193 1043 248 q 841 52 941 104 q 610 0 741 0 q 372 49 483 0 q 254 129 307 77 q 166 254 200 180 q 132 420 132 327 q 169 599 132 513 q 279 762 206 684 q 409 870 325 811 l 323 875 q 218 855 276 878 q 129 794 161 832 q 73 681 96 756 l 47 696 q 107 846 71 792 q 236 956 156 917 q 418 995 316 995 q 670 965 490 995 q 918 935 850 935 q 988 949 964 935 q 1048 1014 1012 963 m 485 863 l 449 867 q 315 711 358 789 q 258 494 258 606 q 414 184 258 304 q 474 252 463 226 q 485 357 485 277 l 485 863 m 739 821 q 625 840 675 829 l 625 434 q 620 343 625 363 q 593 300 614 324 q 441 167 555 258 q 533 130 498 139 q 650 113 594 113 q 739 121 680 113 l 739 821 z "},"U":{"ha":1172,"x_min":33,"x_max":1141,"o":"m 1101 991 l 1122 971 q 1050 866 1064 899 q 1036 768 1036 833 l 1036 286 q 1053 159 1036 185 q 1093 132 1070 132 q 1131 153 1111 132 l 1141 113 l 998 0 q 919 71 939 37 q 895 188 900 105 q 691 43 787 85 q 483 0 595 0 q 165 149 276 0 q 83 406 83 260 q 130 609 83 515 q 273 790 178 703 q 448 915 338 849 q 319 894 362 894 q 251 897 289 894 q 188 901 213 901 q 98 866 131 901 q 65 770 65 831 q 69 714 65 748 l 41 714 q 33 793 33 762 q 89 964 33 901 q 222 1027 145 1027 q 262 1023 243 1027 q 343 996 275 1021 q 467 971 412 971 q 559 989 516 971 q 611 1027 582 999 l 642 1027 l 642 648 q 774 610 711 610 q 832 617 806 610 q 895 648 857 625 l 895 844 l 818 900 l 740 815 l 718 836 l 882 1019 l 1026 915 l 1101 991 m 611 960 q 556 879 568 915 q 545 737 545 843 l 545 422 q 537 346 545 371 q 500 283 527 314 q 359 163 460 237 q 450 117 408 130 q 551 103 493 103 q 611 108 580 103 l 611 960 m 332 185 q 391 275 377 233 q 405 425 405 317 l 405 627 q 409 728 405 705 q 431 783 414 752 q 536 922 462 836 q 365 802 429 860 q 259 657 300 745 q 218 463 218 570 q 253 291 218 368 q 332 185 277 238 m 895 611 q 828 584 854 591 q 770 577 802 577 q 642 611 711 577 l 642 453 q 772 485 714 485 q 895 453 828 485 l 895 611 m 895 420 q 772 454 827 454 q 710 446 739 454 q 642 416 682 438 l 642 113 q 765 154 709 127 q 895 233 821 180 l 895 420 z "},"V":{"ha":1013,"x_min":26,"x_max":964,"o":"m 422 804 l 846 1027 q 964 671 964 856 q 903 416 964 532 q 570 0 821 260 q 493 40 526 29 q 425 52 460 52 q 347 41 384 52 q 252 0 309 31 l 231 18 q 305 178 286 120 q 323 283 323 236 q 283 399 323 355 q 192 444 243 444 q 154 436 168 444 q 127 410 140 429 l 105 427 q 152 495 121 473 q 223 517 182 517 q 272 508 249 517 q 334 473 295 500 q 239 835 327 702 q 134 909 191 909 q 88 890 106 909 q 53 795 64 863 l 26 804 q 50 929 31 882 q 105 1002 68 976 q 184 1027 142 1027 q 309 977 246 1027 q 422 804 372 927 m 433 772 q 464 629 456 697 q 629 600 555 600 q 828 646 724 600 q 800 787 823 719 q 728 930 777 854 l 433 772 m 828 612 q 723 576 766 586 q 628 567 679 567 q 466 597 551 567 q 469 548 469 564 q 447 397 469 482 q 524 416 488 410 q 593 422 561 422 q 779 378 682 422 q 828 612 824 507 m 766 350 q 671 384 707 376 q 592 392 635 392 q 519 385 558 392 q 437 363 481 378 q 389 236 416 291 q 283 52 345 145 q 408 129 357 108 q 538 156 476 156 q 642 138 583 156 q 715 245 689 200 q 766 350 742 291 z "},"W":{"ha":1402,"x_min":48,"x_max":1348,"o":"m 871 808 l 1202 1027 q 1314 824 1280 915 q 1348 646 1348 733 q 1320 485 1348 559 q 1187 258 1274 365 q 934 0 1100 151 q 866 55 902 38 q 797 71 829 71 q 704 57 753 71 q 569 0 654 42 q 509 49 537 36 q 418 66 471 66 q 320 53 366 66 q 210 0 275 39 l 190 15 q 298 316 298 202 q 259 424 298 382 q 173 467 220 467 q 115 444 145 467 l 96 458 q 212 538 134 538 q 264 525 237 538 q 318 486 291 512 q 235 861 314 730 q 144 926 196 926 q 101 905 120 926 q 73 822 82 884 l 48 829 q 92 975 53 923 q 199 1027 131 1027 q 322 976 261 1027 q 421 808 382 924 l 749 1027 q 871 808 816 945 m 429 776 q 452 639 446 715 q 533 601 500 611 q 605 591 566 591 q 678 601 644 591 q 762 639 712 611 q 725 782 747 723 q 650 925 702 842 l 429 776 m 880 781 q 896 726 891 749 q 905 639 900 702 q 987 605 956 613 q 1054 596 1018 596 q 1123 605 1090 596 q 1202 639 1156 614 q 1177 758 1196 705 q 1099 924 1149 839 l 880 781 m 762 606 q 673 569 707 578 q 601 559 640 559 q 529 570 566 559 q 453 602 492 581 l 453 584 q 418 385 453 494 q 493 411 458 402 q 557 419 528 419 q 640 407 602 419 q 729 363 677 395 q 763 566 763 468 q 762 606 763 580 m 1202 602 q 1119 572 1150 579 q 1053 565 1088 565 q 982 574 1019 565 q 907 602 945 583 q 896 500 905 540 q 860 397 887 461 q 920 414 891 408 q 975 419 949 419 q 1067 406 1025 419 q 1155 361 1108 393 q 1202 583 1202 490 q 1202 602 1202 589 m 1141 328 q 1059 374 1096 361 q 975 387 1022 387 q 910 380 944 387 q 840 357 876 372 q 757 232 805 294 q 618 76 709 170 q 794 155 724 133 q 926 176 864 176 q 1032 153 973 176 q 1141 328 1097 237 m 718 328 q 635 374 667 362 q 564 386 602 386 q 489 375 529 386 q 404 342 449 364 q 340 205 373 265 q 255 70 308 144 q 426 145 357 124 q 559 165 494 165 q 630 159 589 165 q 718 328 683 241 z "},"X":{"ha":940,"x_min":24,"x_max":917,"o":"m 534 627 l 716 1027 q 917 915 803 966 l 859 806 l 684 882 l 553 584 l 850 584 l 805 483 l 602 483 l 723 229 q 775 134 759 153 q 815 107 799 107 q 850 130 825 107 l 895 168 l 917 145 l 753 0 q 667 54 690 30 q 612 145 644 77 l 471 440 l 265 0 q 51 109 175 62 l 105 229 l 303 152 l 454 483 l 161 483 l 208 584 l 404 584 l 303 795 q 262 874 273 859 q 217 911 244 898 q 163 925 191 925 q 103 906 132 925 q 43 845 74 888 l 24 866 q 100 986 47 944 q 218 1027 153 1027 q 334 991 288 1027 q 425 860 380 955 l 534 627 z "},"Y":{"ha":1100,"x_min":41,"x_max":1029,"o":"m 83 943 l 68 969 q 145 1020 116 1008 q 214 1032 175 1032 q 317 1010 269 1032 q 393 952 366 988 q 428 869 414 924 q 597 971 528 943 q 732 1000 667 1000 q 941 899 852 1000 q 1029 622 1029 799 q 996 431 1029 521 q 896 282 962 340 q 741 199 830 224 q 589 174 652 174 l 302 180 q 180 158 237 180 q 98 101 123 137 q 72 23 72 65 q 112 -68 72 -31 q 208 -106 151 -106 q 271 -98 238 -106 q 395 -50 303 -89 q 614 8 527 8 q 755 -34 703 8 q 795 -119 795 -66 q 777 -169 795 -150 q 732 -187 759 -187 q 694 -170 710 -187 q 678 -127 678 -153 q 693 -79 678 -106 q 703 -56 703 -63 q 695 -41 703 -47 q 665 -33 684 -33 q 616 -42 642 -33 q 519 -92 589 -52 q 363 -168 420 -148 q 260 -187 307 -187 q 104 -127 168 -187 q 41 15 41 -66 q 101 150 41 94 q 290 213 162 205 q 290 234 290 227 q 257 368 290 311 q 170 453 224 425 q 83 472 136 471 l 83 496 q 133 501 113 501 q 213 489 177 501 q 290 448 249 477 q 291 482 291 467 q 240 619 291 565 q 118 673 189 673 q 76 670 102 673 l 76 696 q 162 720 120 720 q 220 711 193 720 q 290 675 247 702 q 290 734 290 710 q 250 916 290 864 q 154 967 210 967 q 83 943 119 967 m 535 711 q 612 659 577 673 q 690 645 646 645 q 777 662 737 645 q 866 723 816 678 q 823 820 846 786 q 741 897 787 871 q 644 922 694 922 q 535 893 598 922 l 535 711 m 503 877 q 428 827 465 854 l 428 213 q 466 212 453 212 l 503 213 l 503 877 m 535 465 q 624 512 587 499 q 705 526 662 526 q 786 512 748 526 q 873 465 823 499 q 884 568 884 524 q 873 687 884 614 q 773 628 816 644 q 683 612 731 612 q 613 624 646 612 q 535 669 579 637 l 535 465 m 535 213 q 695 238 633 215 q 797 304 758 260 q 866 429 836 348 q 782 479 817 467 q 704 492 747 492 q 623 479 661 492 q 535 429 585 465 l 535 213 z "},"Z":{"ha":854,"x_min":26,"x_max":842,"o":"m 821 1027 l 842 1010 q 740 864 781 929 q 594 619 698 799 l 804 619 l 779 567 l 563 567 q 517 493 542 530 l 741 493 l 719 443 l 481 443 q 382 320 434 376 q 146 90 330 264 q 527 177 347 177 q 636 164 586 177 q 748 121 687 151 l 821 208 l 842 189 l 688 0 q 530 60 600 42 q 376 77 459 77 q 216 59 293 77 q 43 0 140 41 l 26 24 q 156 183 105 112 q 318 443 206 254 l 109 443 l 134 493 l 352 493 l 399 567 l 170 567 l 195 619 l 437 619 q 545 747 492 690 q 741 941 618 824 q 564 871 640 890 q 401 851 487 851 q 277 865 334 851 q 178 907 235 876 l 94 805 l 70 826 l 241 1027 q 394 967 327 985 q 530 949 460 949 q 664 966 598 949 q 821 1027 729 983 z "},"[":{"ha":390,"x_min":80,"x_max":360,"o":"m 360 -201 l 360 -234 l 80 -234 l 80 1002 l 360 1002 l 360 968 l 208 968 l 208 -201 l 360 -201 z "},"\\":{"ha":777,"x_min":35,"x_max":741,"o":"m 653 -46 l 35 943 l 124 943 l 741 -46 l 653 -46 z "},"]":{"ha":390,"x_min":31,"x_max":311,"o":"m 31 -201 l 183 -201 l 183 968 l 31 968 l 31 1002 l 311 1002 l 311 -234 l 31 -234 l 31 -201 z "},"^":{"ha":807,"x_min":102,"x_max":710,"o":"m 102 452 l 380 939 l 436 939 l 710 452 l 602 452 l 402 799 l 205 452 l 102 452 z "},"_":{"ha":694,"x_min":-8,"x_max":703,"o":"m -8 -104 l 703 -104 l 703 -174 l -8 -174 l -8 -104 z "},"`":{"ha":463,"x_min":81,"x_max":300,"o":"m 262 774 l 81 1027 l 239 1027 l 300 774 l 262 774 z "},"a":{"ha":623,"x_min":39,"x_max":602,"o":"m 532 694 l 556 684 q 510 597 519 627 q 500 515 500 567 l 500 227 q 511 137 500 155 q 538 119 522 119 q 555 123 546 119 q 587 147 560 126 l 602 125 l 450 0 q 380 73 398 41 q 361 163 363 105 l 155 0 q 39 187 39 95 q 64 303 39 249 q 178 469 97 374 l 97 643 l 106 662 q 146 659 133 659 q 287 723 226 659 q 395 676 336 694 q 485 659 454 659 q 507 664 499 659 q 532 694 514 669 m 361 564 l 129 635 l 212 460 l 361 391 l 361 564 m 361 363 l 197 439 q 159 294 159 357 q 258 113 159 184 l 361 196 l 361 363 z "},"b":{"ha":623,"x_min":26,"x_max":555,"o":"m 317 972 l 323 954 q 254 893 271 923 q 237 794 237 863 l 237 555 l 453 723 q 534 642 513 682 q 555 533 555 602 l 555 124 q 417 60 472 92 q 337 0 375 35 q 222 73 279 47 q 52 124 165 99 l 52 136 q 89 184 81 157 q 100 369 100 224 l 100 762 q 85 872 100 838 q 26 937 69 907 l 38 954 q 109 920 90 932 q 145 889 127 908 q 244 952 215 939 q 317 972 273 966 m 237 186 l 415 117 l 415 498 q 405 571 415 551 q 358 616 395 591 l 237 524 l 237 186 z "},"c":{"ha":463,"x_min":58,"x_max":450,"o":"m 267 723 l 444 623 l 372 516 l 239 593 l 239 161 l 372 100 l 444 151 l 450 123 l 282 0 q 171 54 217 37 q 58 84 125 71 l 58 100 q 89 136 81 117 q 100 218 100 162 l 100 604 q 267 723 184 643 z "},"d":{"ha":623,"x_min":35,"x_max":560,"o":"m 35 954 l 496 637 q 520 675 507 663 q 560 700 533 688 l 560 672 q 543 639 547 654 q 538 578 538 624 l 538 121 q 410 65 452 89 q 319 0 368 41 q 178 76 239 52 q 45 109 116 100 l 45 121 q 76 164 69 142 q 83 252 83 185 l 83 608 q 215 666 176 633 l 35 789 l 35 954 m 400 539 l 261 635 q 222 608 242 620 l 222 189 l 400 111 l 400 539 z "},"e":{"ha":550,"x_min":54,"x_max":533,"o":"m 342 723 l 533 500 l 229 287 l 229 163 l 387 101 l 493 174 l 508 153 l 288 0 q 178 52 221 36 q 54 84 134 67 l 54 101 q 85 135 77 115 q 93 221 93 155 l 93 609 q 199 651 157 632 q 342 723 229 665 m 239 645 l 229 640 l 229 333 l 408 458 l 239 645 z "},"f":{"ha":390,"x_min":22,"x_max":369,"o":"m 369 939 l 348 826 l 224 855 l 224 692 l 329 692 l 329 616 l 224 616 l 224 161 l 300 103 l 353 146 l 369 127 l 212 0 q 40 103 128 76 l 36 119 q 70 152 60 135 q 86 219 86 180 l 86 616 l 22 616 l 22 692 l 86 692 l 86 855 q 239 972 188 924 l 369 939 z "},"g":{"ha":708,"x_min":99,"x_max":682,"o":"m 345 723 l 556 624 l 682 688 l 682 535 l 560 559 l 560 251 q 569 150 560 176 q 617 70 581 115 q 676 -38 676 -5 q 645 -100 676 -71 q 481 -193 614 -130 q 394 -169 435 -176 q 315 -161 353 -161 q 109 -193 226 -161 l 99 -170 l 259 18 l 99 133 l 99 624 q 345 723 233 652 m 422 560 l 237 624 l 237 180 l 338 106 l 422 208 l 422 560 m 218 -70 q 361 -56 307 -56 q 459 -68 410 -56 q 560 -108 509 -81 l 588 -90 q 464 48 496 -5 q 422 163 431 101 l 218 -70 z "},"h":{"ha":623,"x_min":27,"x_max":557,"o":"m 316 972 l 323 956 q 257 889 275 924 q 239 777 239 854 l 239 556 l 449 723 q 536 639 516 680 q 557 502 557 599 l 557 195 q 538 66 557 106 q 431 -59 509 -1 q 168 -193 328 -136 l 159 -168 q 339 -70 288 -114 q 406 24 390 -26 q 417 218 417 61 l 417 502 q 408 568 417 549 q 355 617 393 593 l 239 523 l 239 145 l 288 97 l 168 0 l 47 97 l 101 151 l 101 768 q 86 883 101 852 q 27 939 71 914 l 35 956 q 92 933 71 945 q 149 889 114 920 q 229 947 191 928 q 316 972 267 965 z "},"i":{"ha":390,"x_min":56,"x_max":347,"o":"m 227 955 l 313 955 l 220 808 l 193 808 l 227 955 m 176 723 l 296 623 l 243 571 l 243 202 q 254 126 243 144 q 276 109 264 109 q 291 112 284 109 q 330 139 300 117 l 347 118 l 193 0 q 123 73 138 39 q 107 193 107 107 l 107 571 l 56 623 l 176 723 z "},"j":{"ha":390,"x_min":49,"x_max":351,"o":"m 263 958 l 351 958 l 259 814 l 229 814 l 263 958 m 49 602 l 208 723 q 268 660 241 684 q 347 602 296 636 q 288 489 306 543 q 269 371 269 436 q 286 206 269 308 q 297 105 297 138 q 266 -25 297 33 q 176 -131 235 -84 q 70 -193 142 -159 l 58 -167 q 148 -76 119 -127 q 176 33 176 -24 q 159 155 176 71 q 131 360 131 283 q 140 459 131 414 q 173 563 149 504 q 115 618 150 593 l 66 582 l 49 602 z "},"k":{"ha":681,"x_min":45,"x_max":657,"o":"m 342 972 l 342 954 q 273 883 290 920 q 255 761 255 845 l 255 527 l 457 723 l 595 571 l 437 433 q 518 351 491 395 q 559 221 545 307 q 583 122 574 135 q 600 109 592 109 q 644 137 608 109 l 657 115 l 499 0 q 458 60 471 28 q 437 153 444 92 l 245 0 q 166 62 204 39 q 71 102 127 84 l 71 115 q 111 159 102 136 q 119 273 119 182 l 119 766 q 114 848 119 825 q 92 900 106 882 q 45 935 77 919 l 55 954 q 116 927 96 939 q 168 886 137 914 q 251 947 212 928 q 342 972 291 966 m 378 611 l 255 492 l 255 311 l 478 502 l 378 611 m 255 276 l 255 159 l 335 103 l 434 184 q 335 347 416 298 l 255 276 z "},"l":{"ha":390,"x_min":33,"x_max":367,"o":"m 340 972 l 340 954 q 265 886 287 926 q 243 764 243 846 l 243 161 l 320 103 l 350 127 l 367 103 l 231 0 q 139 71 170 54 q 58 103 109 89 l 58 118 q 88 147 77 130 q 102 189 98 165 q 104 270 104 197 l 104 754 q 100 840 104 816 q 81 886 95 864 q 33 935 66 908 l 43 949 q 154 877 105 931 q 246 950 205 930 q 340 972 287 970 z "},"m":{"ha":1013,"x_min":24,"x_max":989,"o":"m 944 684 l 964 665 q 912 611 925 631 q 895 570 899 591 q 890 487 890 550 l 890 205 q 902 131 890 149 q 924 113 913 113 q 973 140 938 113 l 989 120 l 838 0 q 773 65 788 39 q 751 146 751 103 l 751 555 l 683 614 l 574 513 l 574 146 l 626 91 l 507 0 l 387 91 l 437 146 l 437 483 q 428 559 437 542 q 369 614 416 582 l 262 524 l 262 146 l 314 91 l 195 0 l 73 91 l 126 146 l 126 509 q 111 590 126 565 q 88 609 98 609 q 39 581 76 609 l 24 604 l 172 723 q 234 670 218 690 q 258 625 251 649 q 262 555 262 607 l 464 723 q 551 635 530 670 q 574 547 571 601 l 765 723 l 876 619 l 944 684 z "},"n":{"ha":708,"x_min":31,"x_max":682,"o":"m 463 723 l 574 619 l 640 683 l 659 665 q 601 599 611 621 q 587 517 587 569 l 587 195 q 602 128 587 150 q 621 114 610 114 q 666 140 631 114 l 682 119 l 536 0 q 464 76 480 43 q 448 182 448 109 l 448 555 l 374 619 l 264 532 l 264 146 l 313 97 l 193 0 l 73 97 l 125 146 l 125 492 q 111 592 125 566 q 87 610 100 610 q 47 589 74 610 l 31 608 l 175 723 q 250 656 235 681 q 264 589 264 632 l 264 566 l 463 723 z "},"o":{"ha":623,"x_min":45,"x_max":538,"o":"m 538 624 l 538 117 q 391 49 437 75 q 325 0 357 29 q 162 83 227 60 q 52 103 113 100 l 45 117 q 77 156 71 138 q 87 234 87 179 l 87 606 q 299 723 211 648 q 538 624 395 659 m 224 182 l 401 110 l 401 541 q 283 592 317 580 q 224 607 258 601 l 224 182 z "},"p":{"ha":623,"x_min":20,"x_max":562,"o":"m 20 618 l 157 723 q 230 652 212 685 q 248 563 248 620 l 424 723 q 543 612 513 659 q 562 524 562 583 l 562 144 q 361 0 473 104 q 248 60 321 26 l 248 12 q 265 -110 248 -73 q 326 -174 282 -146 l 317 -193 q 205 -142 242 -166 q 157 -94 178 -124 q 65 -153 109 -137 l 56 -139 q 97 -82 85 -111 q 109 0 109 -52 l 109 99 q 31 106 71 106 q 20 106 27 106 l 20 163 q 109 178 68 174 l 109 516 q 95 592 109 571 q 66 613 81 613 q 35 595 54 613 l 20 618 m 248 528 l 248 178 q 356 153 328 161 q 424 127 385 144 l 424 507 q 421 544 424 538 q 401 565 419 550 q 340 614 362 599 l 248 528 z "},"q":{"ha":623,"x_min":66,"x_max":568,"o":"m 557 608 l 562 592 q 526 558 534 578 q 518 471 518 539 l 518 5 q 528 -84 518 -56 q 568 -140 538 -113 l 557 -155 q 467 -94 509 -136 q 404 -154 439 -132 q 307 -193 368 -176 l 300 -179 q 363 -103 349 -136 q 378 0 378 -70 l 378 153 l 187 0 q 105 66 127 40 q 75 120 83 92 q 66 209 66 147 l 66 608 q 279 723 199 651 q 446 627 377 653 q 557 608 496 608 m 201 608 l 201 243 q 209 166 201 180 q 277 106 217 153 l 378 186 l 378 522 l 201 608 z "},"r":{"ha":550,"x_min":37,"x_max":527,"o":"m 425 723 l 527 600 l 425 509 l 339 617 l 272 556 l 272 161 l 349 105 l 419 161 l 435 139 l 261 0 q 168 71 205 50 q 85 105 130 93 l 85 120 q 124 162 115 141 q 134 244 134 184 l 134 521 q 122 590 134 573 q 96 608 110 608 q 53 581 80 608 l 37 600 l 180 723 q 258 646 237 679 q 272 590 272 626 l 425 723 z "},"s":{"ha":628,"x_min":21,"x_max":589,"o":"m 399 471 l 556 389 l 556 104 q 453 76 499 98 q 349 0 407 54 q 261 41 298 30 q 183 53 224 53 q 70 14 119 53 q 43 0 52 0 q 28 7 36 0 q 21 22 21 15 q 35 44 21 31 q 63 75 43 52 l 125 152 l 212 268 l 64 348 l 64 601 q 173 649 134 623 q 250 723 213 676 q 389 671 336 686 q 462 661 427 661 q 521 678 500 661 q 542 713 542 694 q 528 737 542 725 q 502 783 502 761 q 513 817 502 804 q 539 829 525 829 q 573 812 558 829 q 589 766 589 795 q 576 709 589 737 q 530 637 564 682 l 399 471 m 201 425 l 294 376 l 441 573 q 363 560 396 560 q 201 616 279 560 l 201 425 m 317 363 l 154 144 q 210 159 184 154 q 256 163 235 163 q 418 112 334 163 l 418 309 l 317 363 z "},"t":{"ha":390,"x_min":29,"x_max":368,"o":"m 29 648 l 218 882 l 238 882 l 231 695 l 368 695 l 368 618 l 231 618 l 231 162 l 307 106 l 351 140 l 368 119 l 218 0 q 45 106 142 78 l 45 119 q 81 157 72 138 q 92 230 92 182 l 92 618 l 29 618 l 29 648 z "},"u":{"ha":708,"x_min":40,"x_max":679,"o":"m 517 723 l 639 623 l 584 572 l 584 216 q 601 128 584 155 q 625 110 612 110 q 661 132 634 110 l 679 111 l 536 0 q 465 68 481 38 q 447 164 448 98 q 233 0 342 96 q 146 91 167 52 q 126 193 126 130 l 126 528 q 121 574 126 564 q 95 593 111 593 q 58 572 83 593 l 40 591 l 191 723 l 313 623 l 263 576 l 263 216 q 273 158 263 176 q 323 111 283 139 l 447 202 l 447 572 l 399 623 l 517 723 z "},"v":{"ha":623,"x_min":19,"x_max":546,"o":"m 227 557 l 435 723 q 525 629 504 669 q 546 526 546 589 l 546 119 q 437 79 488 105 q 321 0 387 53 q 184 82 247 58 q 45 108 122 106 l 45 125 q 80 161 71 140 q 89 239 89 182 l 89 543 q 84 580 89 566 q 58 622 79 593 q 27 674 36 651 q 19 726 19 697 q 51 822 19 780 q 173 912 83 863 l 187 894 q 117 797 117 843 q 124 768 117 780 q 165 716 132 751 q 213 643 197 681 q 227 557 224 614 m 227 521 l 227 192 l 406 111 l 406 491 q 394 565 406 541 q 340 614 381 589 l 227 521 z "},"w":{"ha":940,"x_min":43,"x_max":879,"o":"m 569 559 l 770 723 q 852 642 833 677 q 879 532 879 595 l 879 121 q 759 71 808 98 q 660 0 710 44 q 469 73 545 73 q 325 0 397 73 q 196 80 258 56 q 62 109 135 105 l 62 125 q 105 160 93 138 q 118 249 118 183 l 118 506 q 114 579 118 566 q 92 614 111 593 q 53 672 63 648 q 43 727 43 696 q 78 827 43 784 q 202 913 113 870 l 214 896 q 141 797 141 845 q 149 765 141 780 q 199 707 153 758 q 245 633 229 674 q 258 564 255 609 l 456 723 q 536 648 510 687 q 569 559 562 610 m 258 530 l 258 182 l 429 111 l 429 481 q 417 563 429 539 q 361 614 405 587 l 258 530 m 569 525 l 569 186 l 741 113 l 741 490 q 731 559 741 541 q 675 614 722 578 l 569 525 z "},"x":{"ha":708,"x_min":36,"x_max":666,"o":"m 498 723 l 637 654 l 581 535 l 465 592 l 398 452 l 465 312 q 540 178 509 224 q 592 121 572 133 q 613 115 604 115 q 652 135 627 115 l 666 115 l 536 0 q 456 56 491 16 q 321 292 399 121 l 182 0 l 40 73 l 98 194 l 216 132 l 307 321 q 168 560 241 469 q 102 608 131 608 q 53 582 83 608 l 36 603 l 182 723 q 273 654 239 693 q 383 481 319 603 l 498 723 z "},"y":{"ha":623,"x_min":33,"x_max":583,"o":"m 37 604 l 179 723 q 255 654 237 684 q 272 574 272 625 l 272 559 l 477 723 q 583 486 583 612 q 548 351 583 418 q 439 223 513 283 q 201 64 366 162 q 115 9 129 20 q 71 -37 84 -15 q 62 -74 62 -54 q 96 -138 62 -109 q 186 -168 130 -168 q 254 -153 227 -168 q 279 -124 267 -146 q 300 -96 291 -102 q 321 -89 309 -89 q 342 -96 334 -89 q 351 -116 351 -104 q 319 -159 351 -138 q 195 -193 270 -193 q 75 -156 117 -193 q 33 -68 33 -119 q 80 30 33 -18 q 108 62 102 53 q 128 110 123 88 q 134 172 134 132 l 134 496 q 118 589 134 564 q 92 608 106 608 q 62 590 80 608 q 53 582 59 587 l 37 604 m 272 528 l 272 143 q 408 287 368 212 q 448 430 448 362 q 374 609 448 522 l 272 528 z "},"z":{"ha":463,"x_min":25,"x_max":413,"o":"m 25 589 l 224 723 l 315 635 q 349 609 336 615 q 375 603 361 603 q 395 608 383 603 l 403 596 l 200 413 l 219 413 q 358 361 304 413 q 413 235 413 309 q 391 153 413 193 q 323 80 368 113 q 207 13 291 56 q 104 -52 123 -31 q 84 -99 84 -73 q 100 -140 84 -123 q 143 -157 117 -157 q 171 -153 153 -157 q 187 -151 180 -151 q 202 -156 196 -151 q 208 -169 208 -161 q 200 -184 208 -178 q 171 -193 190 -193 q 90 -165 120 -193 q 59 -97 59 -138 q 79 -35 59 -65 q 160 42 98 -5 q 239 119 221 90 q 264 205 264 161 q 230 285 264 252 q 142 318 195 318 q 51 288 103 318 l 37 302 l 264 507 l 131 627 l 43 570 l 25 589 z "},"{":{"ha":550,"x_min":112,"x_max":488,"o":"m 488 941 l 488 910 q 388 862 420 897 q 356 783 356 827 q 372 670 356 737 q 389 552 389 602 q 361 458 389 506 q 282 376 334 410 q 168 332 246 353 q 290 279 252 305 q 365 198 340 245 q 390 109 390 151 q 373 1 390 68 q 357 -117 357 -67 q 388 -200 357 -165 q 488 -249 418 -235 l 488 -281 l 465 -281 q 266 -199 345 -281 q 208 -66 208 -138 q 229 62 208 -19 q 245 170 245 123 q 211 261 245 224 q 112 310 177 299 l 112 351 q 211 401 177 362 q 245 497 245 441 q 230 601 245 543 q 209 724 209 682 q 235 813 209 768 q 302 887 262 859 q 389 928 342 916 q 488 941 426 939 z "},"|":{"ha":786,"x_min":328,"x_max":454,"o":"m 328 967 l 454 967 l 454 -188 l 328 -188 l 328 967 z "},"}":{"ha":550,"x_min":62,"x_max":438,"o":"m 62 -281 l 62 -250 q 161 -202 129 -237 q 194 -122 194 -167 q 178 -10 194 -77 q 161 108 161 58 q 189 202 161 155 q 268 284 216 250 q 382 329 304 307 q 260 381 298 355 q 184 463 210 416 q 159 551 159 509 q 176 660 159 592 q 193 777 193 728 q 162 861 193 826 q 62 909 132 895 l 62 941 l 85 941 q 284 859 205 941 q 342 726 342 799 q 321 598 342 680 q 305 490 305 538 q 339 399 305 437 q 438 351 372 361 l 438 309 q 339 259 372 298 q 305 163 305 220 q 320 60 305 117 q 340 -63 340 -21 q 314 -153 340 -108 q 248 -227 288 -198 q 161 -268 208 -255 q 62 -281 124 -278 z "},"~":{"ha":926,"x_min":90,"x_max":836,"o":"m 793 572 l 836 572 q 777 398 831 456 q 646 340 724 340 q 566 352 608 340 q 390 420 524 363 q 250 460 294 460 q 174 432 204 460 q 134 340 144 404 l 90 340 q 148 517 96 460 q 274 573 199 573 q 349 563 313 573 q 534 493 417 545 q 632 456 600 465 q 676 450 652 450 q 754 481 722 450 q 793 572 786 513 z "},"":{"ha":1013,"x_min":60,"x_max":979,"o":"m 942 1027 l 955 996 q 883 949 906 972 q 850 897 859 926 q 840 811 840 868 q 841 762 840 793 l 852 256 q 870 146 854 172 q 898 128 882 128 q 959 168 918 128 l 979 142 l 852 35 l 810 0 q 734 66 757 25 q 709 199 711 108 l 446 0 q 148 144 227 144 q 115 132 128 144 q 104 107 104 123 q 117 68 104 90 q 134 31 134 40 q 125 9 134 18 q 102 0 115 0 q 75 14 85 0 q 60 61 60 32 q 78 134 60 94 q 134 222 97 174 q 147 241 141 232 l 244 373 q 106 515 146 447 q 66 667 66 583 q 116 848 66 764 q 266 979 166 931 q 472 1027 366 1027 q 785 915 634 1027 q 855 978 821 954 q 942 1027 889 1003 m 608 870 q 438 912 523 912 q 269 872 348 912 q 150 770 189 833 q 111 642 111 707 q 261 395 111 503 l 488 705 q 396 733 437 733 q 304 680 340 733 q 290 669 297 669 q 282 673 286 669 q 279 684 279 677 q 300 742 279 705 q 363 802 321 779 q 451 825 405 825 q 559 802 498 825 l 608 870 m 696 800 q 669 828 676 822 q 635 853 665 833 l 339 449 l 704 449 l 696 800 m 266 350 l 205 265 l 549 117 l 709 235 l 707 350 l 266 350 m 842 1157 l 768 1231 l 842 1305 l 916 1231 l 842 1157 m 571 1157 l 496 1231 l 571 1305 l 645 1231 l 571 1157 z "},"":{"ha":1013,"x_min":60,"x_max":979,"o":"m 942 1027 l 955 996 q 883 949 906 972 q 850 897 859 926 q 840 811 840 868 q 841 762 840 793 l 852 256 q 870 146 854 172 q 898 128 882 128 q 959 168 918 128 l 979 142 l 852 35 l 810 0 q 734 66 757 25 q 709 199 711 108 l 446 0 q 148 144 227 144 q 115 132 128 144 q 104 107 104 123 q 117 68 104 90 q 134 31 134 40 q 125 9 134 18 q 102 0 115 0 q 75 14 85 0 q 60 61 60 32 q 78 134 60 94 q 134 222 97 174 q 147 241 141 232 l 244 373 q 106 515 146 447 q 66 667 66 583 q 116 848 66 764 q 266 979 166 931 q 472 1027 366 1027 q 785 915 634 1027 q 855 978 821 954 q 942 1027 889 1003 m 608 870 q 438 912 523 912 q 269 872 348 912 q 150 770 189 833 q 111 642 111 707 q 261 395 111 503 l 488 705 q 396 733 437 733 q 304 680 340 733 q 290 669 297 669 q 282 673 286 669 q 279 684 279 677 q 300 742 279 705 q 363 802 321 779 q 451 825 405 825 q 559 802 498 825 l 608 870 m 696 800 q 669 828 676 822 q 635 853 665 833 l 339 449 l 704 449 l 696 800 m 266 350 l 205 265 l 549 117 l 709 235 l 707 350 l 266 350 m 740 1348 q 820 1314 787 1348 q 853 1234 853 1281 q 820 1154 853 1187 q 740 1121 787 1121 q 660 1154 693 1121 q 627 1234 627 1187 q 660 1314 627 1281 q 740 1348 692 1348 m 740 1308 q 687 1286 709 1308 q 665 1234 665 1265 q 687 1182 665 1204 q 740 1160 709 1160 q 792 1182 770 1160 q 814 1234 814 1204 q 793 1286 814 1265 q 740 1308 771 1308 z "},"":{"ha":1013,"x_min":81,"x_max":990,"o":"m 393 929 l 409 910 q 258 764 308 842 q 195 545 195 663 q 289 281 195 402 q 338 337 330 314 q 346 461 346 359 l 346 765 l 636 1007 q 796 955 738 967 q 933 943 854 943 l 949 943 l 960 919 l 848 812 q 592 895 734 824 l 600 120 l 625 119 q 803 153 723 119 q 970 260 884 186 l 990 241 q 866 106 927 154 q 720 29 806 58 q 551 0 635 0 q 316 60 426 0 q 143 233 205 121 q 81 465 81 346 q 169 738 81 612 q 393 929 238 836 m 562 899 l 482 830 l 482 521 q 476 444 482 463 q 445 391 469 419 q 307 259 395 333 q 423 166 361 199 q 568 123 485 134 l 562 899 m 425 -70 l 474 -16 q 543 0 515 0 q 623 -30 592 0 q 654 -103 654 -60 q 611 -190 654 -155 q 475 -226 568 -226 q 377 -217 425 -226 l 388 -195 q 446 -199 437 -199 q 518 -177 491 -199 q 545 -130 545 -155 q 521 -86 545 -105 q 456 -66 498 -66 q 425 -70 446 -66 z "},"":{"ha":1013,"x_min":71,"x_max":987,"o":"m 392 928 l 406 907 q 240 742 293 836 q 186 543 186 649 q 280 281 186 406 q 328 335 319 313 q 336 449 336 357 l 336 761 l 632 1014 q 771 958 715 974 q 883 943 828 943 q 954 949 911 943 l 970 928 l 736 692 l 920 692 l 846 562 l 588 562 l 588 122 l 631 120 q 823 168 728 120 q 970 281 895 204 l 987 255 q 813 73 908 132 q 549 0 697 0 q 179 161 315 0 q 71 462 71 290 q 115 662 71 569 q 239 827 159 754 q 392 928 296 879 m 557 895 l 474 826 l 474 511 q 468 439 474 459 q 441 395 463 418 q 298 260 397 342 q 415 167 357 197 q 557 125 473 136 l 557 895 m 817 819 q 700 843 745 829 q 588 890 654 857 l 588 587 l 817 819 m 471 1079 l 434 1079 l 495 1332 l 653 1332 l 471 1079 z "},"":{"ha":1402,"x_min":-8,"x_max":1344,"o":"m 892 1027 q 1078 956 1011 998 q 1214 814 1167 898 q 1260 637 1260 731 q 1237 505 1260 570 q 1163 359 1215 439 q 985 119 1145 331 q 1149 155 1067 155 q 1209 150 1184 155 q 1246 144 1234 144 q 1268 155 1258 144 q 1312 231 1278 165 l 1344 218 l 1227 0 q 1075 31 1135 31 q 962 5 1006 31 q 877 -87 918 -22 l 850 -74 q 932 98 873 -5 q 1080 375 1031 267 q 967 433 1018 416 q 859 450 916 450 q 770 438 812 450 q 672 395 728 427 l 672 276 q 661 120 672 167 q 611 25 650 73 q 510 -56 572 -24 q 383 -88 449 -88 q 331 -83 357 -88 q 246 -59 316 -80 q 167 -37 176 -39 q 126 -33 148 -33 q 70 -42 94 -33 q 11 -74 45 -51 l -8 -57 q 180 66 61 66 q 304 49 228 66 q 368 39 351 39 q 431 68 405 39 q 458 144 458 98 q 417 245 458 204 q 316 286 376 286 q 232 252 277 286 l 213 269 q 273 324 243 307 q 340 340 303 340 q 386 333 362 340 q 434 311 409 326 q 393 402 422 370 q 266 458 342 458 q 212 451 233 458 q 172 427 196 446 l 155 451 q 222 503 192 488 q 290 517 253 517 q 347 508 321 517 q 418 469 374 499 q 400 556 418 524 q 337 615 382 589 q 250 642 292 642 q 172 614 211 642 l 155 637 q 212 682 186 670 q 284 699 245 699 q 346 689 317 699 q 418 650 374 680 l 418 802 l 892 1027 m 672 663 q 783 611 736 625 q 881 596 830 596 q 990 614 939 596 q 1112 680 1042 633 q 983 835 1074 777 q 779 894 892 894 q 672 876 730 894 l 672 663 m 641 867 l 558 826 l 558 242 q 538 97 558 140 q 459 14 517 54 q 560 41 529 19 q 624 121 606 74 q 641 282 641 168 l 641 867 m 672 432 q 773 471 732 460 q 863 482 815 482 q 977 465 924 482 q 1090 406 1029 447 q 1119 498 1109 454 q 1128 582 1128 542 q 1121 646 1128 610 q 994 581 1046 599 q 884 564 941 564 q 787 577 835 564 q 672 627 739 591 l 672 432 m 678 1120 l 650 1120 q 686 1230 661 1194 q 787 1286 726 1286 q 829 1279 804 1286 q 885 1257 843 1276 q 993 1223 958 1223 q 1032 1237 1015 1223 q 1062 1285 1050 1251 l 1087 1285 q 1040 1161 1079 1201 q 945 1121 1000 1121 q 838 1151 904 1121 q 744 1181 772 1181 q 706 1167 723 1181 q 678 1120 690 1154 z "},"":{"ha":1173,"x_min":49,"x_max":1123,"o":"m 602 1014 q 787 980 720 1002 q 963 889 887 948 q 1081 751 1038 831 q 1123 577 1123 671 q 1078 406 1123 490 q 925 217 1034 322 q 705 56 816 112 q 489 0 595 0 q 270 56 376 0 q 106 211 164 113 q 49 429 49 310 q 63 561 49 498 q 113 708 77 625 q 270 800 180 741 q 513 954 318 831 q 602 1014 553 979 m 551 879 q 460 883 505 882 l 460 482 q 451 391 460 417 q 418 338 442 366 l 293 217 q 413 140 357 163 q 551 112 470 117 l 551 879 m 580 698 q 672 637 629 656 q 768 618 716 618 q 856 637 815 618 q 941 698 896 656 q 869 772 902 748 q 738 842 808 817 q 580 877 667 867 l 580 698 m 321 794 q 238 722 263 751 q 182 628 205 684 q 160 506 160 572 q 271 238 160 362 q 311 296 302 267 q 321 409 321 325 l 321 794 m 580 415 q 670 481 628 463 q 766 500 711 500 q 870 480 824 500 q 969 410 916 460 q 987 526 987 477 q 981 606 987 572 q 958 668 975 631 q 856 603 899 621 q 760 586 812 586 q 671 602 711 586 q 580 659 631 618 l 580 415 m 580 112 q 719 140 665 117 q 860 235 800 174 q 958 382 920 296 q 767 470 865 470 q 659 439 710 470 q 580 366 621 418 l 580 112 m 720 1123 l 646 1197 l 720 1272 l 794 1197 l 720 1123 m 449 1123 l 374 1197 l 449 1272 l 523 1197 l 449 1123 z "},"":{"ha":1172,"x_min":33,"x_max":1141,"o":"m 1101 991 l 1122 971 q 1050 866 1064 899 q 1036 768 1036 833 l 1036 286 q 1053 159 1036 185 q 1093 132 1070 132 q 1131 153 1111 132 l 1141 113 l 998 0 q 919 71 939 37 q 895 188 900 105 q 691 43 787 85 q 483 0 595 0 q 165 149 276 0 q 83 406 83 260 q 130 609 83 515 q 273 790 178 703 q 448 915 338 849 q 319 894 362 894 q 251 897 289 894 q 188 901 213 901 q 98 866 131 901 q 65 770 65 831 q 69 714 65 748 l 41 714 q 33 793 33 762 q 89 964 33 901 q 222 1027 145 1027 q 262 1023 243 1027 q 343 996 275 1021 q 467 971 412 971 q 559 989 516 971 q 611 1027 582 999 l 642 1027 l 642 648 q 774 610 711 610 q 832 617 806 610 q 895 648 857 625 l 895 844 l 818 900 l 740 815 l 718 836 l 882 1019 l 1026 915 l 1101 991 m 611 960 q 556 879 568 915 q 545 737 545 843 l 545 422 q 537 346 545 371 q 500 283 527 314 q 359 163 460 237 q 450 117 408 130 q 551 103 493 103 q 611 108 580 103 l 611 960 m 332 185 q 391 275 377 233 q 405 425 405 317 l 405 627 q 409 728 405 705 q 431 783 414 752 q 536 922 462 836 q 365 802 429 860 q 259 657 300 745 q 218 463 218 570 q 253 291 218 368 q 332 185 277 238 m 895 611 q 828 584 854 591 q 770 577 802 577 q 642 611 711 577 l 642 453 q 772 485 714 485 q 895 453 828 485 l 895 611 m 895 420 q 772 454 827 454 q 710 446 739 454 q 642 416 682 438 l 642 113 q 765 154 709 127 q 895 233 821 180 l 895 420 m 753 1123 l 680 1197 l 753 1272 l 828 1197 l 753 1123 m 483 1123 l 408 1197 l 483 1272 l 557 1197 l 483 1123 z "},"":{"ha":623,"x_min":39,"x_max":602,"o":"m 532 694 l 556 684 q 510 597 519 627 q 500 515 500 567 l 500 227 q 511 137 500 155 q 538 119 522 119 q 555 123 546 119 q 587 147 560 126 l 602 125 l 450 0 q 380 73 398 41 q 361 163 363 105 l 155 0 q 39 187 39 95 q 64 303 39 249 q 178 469 97 374 l 97 643 l 106 662 q 146 659 133 659 q 287 723 226 659 q 395 676 336 694 q 485 659 454 659 q 507 664 499 659 q 532 694 514 669 m 361 564 l 129 635 l 212 460 l 361 391 l 361 564 m 361 363 l 197 439 q 159 294 159 357 q 258 113 159 184 l 361 196 l 361 363 m 302 774 l 264 774 l 326 1027 l 484 1027 l 302 774 z "},"":{"ha":623,"x_min":39,"x_max":602,"o":"m 532 694 l 556 684 q 510 597 519 627 q 500 515 500 567 l 500 227 q 511 137 500 155 q 538 119 522 119 q 555 123 546 119 q 587 147 560 126 l 602 125 l 450 0 q 380 73 398 41 q 361 163 363 105 l 155 0 q 39 187 39 95 q 64 303 39 249 q 178 469 97 374 l 97 643 l 106 662 q 146 659 133 659 q 287 723 226 659 q 395 676 336 694 q 485 659 454 659 q 507 664 499 659 q 532 694 514 669 m 361 564 l 129 635 l 212 460 l 361 391 l 361 564 m 361 363 l 197 439 q 159 294 159 357 q 258 113 159 184 l 361 196 l 361 363 m 385 774 l 203 1027 l 361 1027 l 422 774 l 385 774 z "},"":{"ha":623,"x_min":39,"x_max":602,"o":"m 532 694 l 556 684 q 510 597 519 627 q 500 515 500 567 l 500 227 q 511 137 500 155 q 538 119 522 119 q 555 123 546 119 q 587 147 560 126 l 602 125 l 450 0 q 380 73 398 41 q 361 163 363 105 l 155 0 q 39 187 39 95 q 64 303 39 249 q 178 469 97 374 l 97 643 l 106 662 q 146 659 133 659 q 287 723 226 659 q 395 676 336 694 q 485 659 454 659 q 507 664 499 659 q 532 694 514 669 m 361 564 l 129 635 l 212 460 l 361 391 l 361 564 m 361 363 l 197 439 q 159 294 159 357 q 258 113 159 184 l 361 196 l 361 363 m 174 775 l 133 775 l 261 1029 l 408 1029 l 533 775 l 492 775 l 334 921 l 174 775 z "},"":{"ha":623,"x_min":39,"x_max":602,"o":"m 532 694 l 556 684 q 510 597 519 627 q 500 515 500 567 l 500 227 q 511 137 500 155 q 538 119 522 119 q 555 123 546 119 q 587 147 560 126 l 602 125 l 450 0 q 380 73 398 41 q 361 163 363 105 l 155 0 q 39 187 39 95 q 64 303 39 249 q 178 469 97 374 l 97 643 l 106 662 q 146 659 133 659 q 287 723 226 659 q 395 676 336 694 q 485 659 454 659 q 507 664 499 659 q 532 694 514 669 m 361 564 l 129 635 l 212 460 l 361 391 l 361 564 m 361 363 l 197 439 q 159 294 159 357 q 258 113 159 184 l 361 196 l 361 363 m 469 852 l 395 926 l 469 1000 l 543 926 l 469 852 m 198 852 l 123 926 l 198 1000 l 272 926 l 198 852 z "},"":{"ha":623,"x_min":39,"x_max":602,"o":"m 532 694 l 556 684 q 510 597 519 627 q 500 515 500 567 l 500 227 q 511 137 500 155 q 538 119 522 119 q 555 123 546 119 q 587 147 560 126 l 602 125 l 450 0 q 380 73 398 41 q 361 163 363 105 l 155 0 q 39 187 39 95 q 64 303 39 249 q 178 469 97 374 l 97 643 l 106 662 q 146 659 133 659 q 287 723 226 659 q 395 676 336 694 q 485 659 454 659 q 507 664 499 659 q 532 694 514 669 m 361 564 l 129 635 l 212 460 l 361 391 l 361 564 m 361 363 l 197 439 q 159 294 159 357 q 258 113 159 184 l 361 196 l 361 363 m 142 815 l 115 815 q 151 924 125 889 q 251 981 191 981 q 293 974 269 981 q 349 951 307 970 q 457 918 422 918 q 496 932 479 918 q 526 980 514 945 l 551 980 q 504 856 543 896 q 410 816 465 816 q 302 846 368 816 q 208 876 237 876 q 171 862 187 876 q 142 815 154 848 z "},"":{"ha":623,"x_min":39,"x_max":602,"o":"m 532 694 l 556 684 q 510 597 519 627 q 500 515 500 567 l 500 227 q 511 137 500 155 q 538 119 522 119 q 555 123 546 119 q 587 147 560 126 l 602 125 l 450 0 q 380 73 398 41 q 361 163 363 105 l 155 0 q 39 187 39 95 q 64 303 39 249 q 178 469 97 374 l 97 643 l 106 662 q 146 659 133 659 q 287 723 226 659 q 395 676 336 694 q 485 659 454 659 q 507 664 499 659 q 532 694 514 669 m 361 564 l 129 635 l 212 460 l 361 391 l 361 564 m 361 363 l 197 439 q 159 294 159 357 q 258 113 159 184 l 361 196 l 361 363 m 306 1008 q 386 975 353 1008 q 419 895 419 942 q 386 815 419 848 q 306 782 353 782 q 226 815 259 782 q 193 895 193 848 q 225 975 193 942 q 306 1008 258 1008 m 306 969 q 253 947 275 969 q 231 895 231 926 q 253 843 231 865 q 306 821 275 821 q 358 843 336 821 q 380 895 380 865 q 359 947 380 926 q 306 969 337 969 z "},"":{"ha":463,"x_min":58,"x_max":450,"o":"m 267 723 l 444 623 l 372 516 l 239 593 l 239 161 l 372 100 l 444 151 l 450 123 l 282 0 q 171 54 217 37 q 58 84 125 71 l 58 100 q 89 136 81 117 q 100 218 100 162 l 100 604 q 267 723 184 643 m 219 -63 l 268 -9 q 336 7 309 7 q 417 -23 386 7 q 448 -96 448 -54 q 405 -183 448 -148 q 269 -219 362 -219 q 171 -210 219 -219 l 182 -188 q 239 -192 231 -192 q 312 -170 285 -192 q 338 -123 338 -149 q 315 -79 338 -98 q 250 -60 292 -60 q 219 -63 239 -60 z "},"":{"ha":550,"x_min":54,"x_max":533,"o":"m 342 723 l 533 500 l 229 287 l 229 163 l 387 101 l 493 174 l 508 153 l 288 0 q 178 52 221 36 q 54 84 134 67 l 54 101 q 85 135 77 115 q 93 221 93 155 l 93 609 q 199 651 157 632 q 342 723 229 665 m 239 645 l 229 640 l 229 333 l 408 458 l 239 645 m 275 774 l 237 774 l 298 1027 l 456 1027 l 275 774 z "},"":{"ha":550,"x_min":54,"x_max":533,"o":"m 342 723 l 533 500 l 229 287 l 229 163 l 387 101 l 493 174 l 508 153 l 288 0 q 178 52 221 36 q 54 84 134 67 l 54 101 q 85 135 77 115 q 93 221 93 155 l 93 609 q 199 651 157 632 q 342 723 229 665 m 239 645 l 229 640 l 229 333 l 408 458 l 239 645 m 337 774 l 156 1027 l 313 1027 l 375 774 l 337 774 z "},"":{"ha":550,"x_min":54,"x_max":533,"o":"m 342 723 l 533 500 l 229 287 l 229 163 l 387 101 l 493 174 l 508 153 l 288 0 q 178 52 221 36 q 54 84 134 67 l 54 101 q 85 135 77 115 q 93 221 93 155 l 93 609 q 199 651 157 632 q 342 723 229 665 m 239 645 l 229 640 l 229 333 l 408 458 l 239 645 m 146 775 l 106 775 l 234 1029 l 380 1029 l 506 775 l 465 775 l 307 921 l 146 775 z "},"":{"ha":550,"x_min":54,"x_max":533,"o":"m 342 723 l 533 500 l 229 287 l 229 163 l 387 101 l 493 174 l 508 153 l 288 0 q 178 52 221 36 q 54 84 134 67 l 54 101 q 85 135 77 115 q 93 221 93 155 l 93 609 q 199 651 157 632 q 342 723 229 665 m 239 645 l 229 640 l 229 333 l 408 458 l 239 645 m 441 852 l 368 926 l 441 1000 l 516 926 l 441 852 m 171 852 l 96 926 l 171 1000 l 245 926 l 171 852 z "},"":{"ha":390,"x_min":56,"x_max":347,"o":"m 176 723 l 296 623 l 243 571 l 243 202 q 254 126 243 144 q 276 109 264 109 q 291 112 284 109 q 330 139 300 117 l 347 118 l 193 0 q 123 73 138 39 q 107 193 107 107 l 107 571 l 56 623 l 176 723 m 161 774 l 124 774 l 185 1027 l 343 1027 l 161 774 z "},"":{"ha":390,"x_min":43,"x_max":347,"o":"m 176 723 l 296 623 l 243 571 l 243 202 q 254 126 243 144 q 276 109 264 109 q 291 112 284 109 q 330 139 300 117 l 347 118 l 193 0 q 123 73 138 39 q 107 193 107 107 l 107 571 l 56 623 l 176 723 m 224 774 l 43 1027 l 200 1027 l 262 774 l 224 774 z "},"":{"ha":390,"x_min":-7,"x_max":393,"o":"m 176 723 l 296 623 l 243 571 l 243 202 q 254 126 243 144 q 276 109 264 109 q 291 112 284 109 q 330 139 300 117 l 347 118 l 193 0 q 123 73 138 39 q 107 193 107 107 l 107 571 l 56 623 l 176 723 m 33 775 l -7 775 l 121 1029 l 267 1029 l 393 775 l 352 775 l 194 921 l 33 775 z "},"":{"ha":390,"x_min":-17,"x_max":403,"o":"m 176 723 l 296 623 l 243 571 l 243 202 q 254 126 243 144 q 276 109 264 109 q 291 112 284 109 q 330 139 300 117 l 347 118 l 193 0 q 123 73 138 39 q 107 193 107 107 l 107 571 l 56 623 l 176 723 m 328 852 l 254 926 l 328 1000 l 403 926 l 328 852 m 58 852 l -17 926 l 58 1000 l 132 926 l 58 852 z "},"":{"ha":708,"x_min":31,"x_max":682,"o":"m 463 723 l 574 619 l 640 683 l 659 665 q 601 599 611 621 q 587 517 587 569 l 587 195 q 602 128 587 150 q 621 114 610 114 q 666 140 631 114 l 682 119 l 536 0 q 464 76 480 43 q 448 182 448 109 l 448 555 l 374 619 l 264 532 l 264 146 l 313 97 l 193 0 l 73 97 l 125 146 l 125 492 q 111 592 125 566 q 87 610 100 610 q 47 589 74 610 l 31 608 l 175 723 q 250 656 235 681 q 264 589 264 632 l 264 566 l 463 723 m 196 815 l 168 815 q 204 924 178 889 q 304 981 244 981 q 347 974 322 981 q 403 951 361 970 q 511 918 476 918 q 550 932 532 918 q 580 980 568 945 l 605 980 q 557 856 597 896 q 463 816 518 816 q 356 846 422 816 q 262 876 290 876 q 224 862 241 876 q 196 815 208 848 z "},"":{"ha":623,"x_min":45,"x_max":538,"o":"m 538 624 l 538 117 q 391 49 437 75 q 325 0 357 29 q 162 83 227 60 q 52 103 113 100 l 45 117 q 77 156 71 138 q 87 234 87 179 l 87 606 q 299 723 211 648 q 538 624 395 659 m 224 182 l 401 110 l 401 541 q 283 592 317 580 q 224 607 258 601 l 224 182 m 275 774 l 237 774 l 298 1027 l 456 1027 l 275 774 z "},"":{"ha":623,"x_min":45,"x_max":538,"o":"m 538 624 l 538 117 q 391 49 437 75 q 325 0 357 29 q 162 83 227 60 q 52 103 113 100 l 45 117 q 77 156 71 138 q 87 234 87 179 l 87 606 q 299 723 211 648 q 538 624 395 659 m 224 182 l 401 110 l 401 541 q 283 592 317 580 q 224 607 258 601 l 224 182 m 337 774 l 156 1027 l 313 1027 l 375 774 l 337 774 z "},"":{"ha":623,"x_min":45,"x_max":538,"o":"m 538 624 l 538 117 q 391 49 437 75 q 325 0 357 29 q 162 83 227 60 q 52 103 113 100 l 45 117 q 77 156 71 138 q 87 234 87 179 l 87 606 q 299 723 211 648 q 538 624 395 659 m 224 182 l 401 110 l 401 541 q 283 592 317 580 q 224 607 258 601 l 224 182 m 146 775 l 106 775 l 234 1029 l 380 1029 l 506 775 l 465 775 l 307 921 l 146 775 z "},"":{"ha":623,"x_min":45,"x_max":538,"o":"m 538 624 l 538 117 q 391 49 437 75 q 325 0 357 29 q 162 83 227 60 q 52 103 113 100 l 45 117 q 77 156 71 138 q 87 234 87 179 l 87 606 q 299 723 211 648 q 538 624 395 659 m 224 182 l 401 110 l 401 541 q 283 592 317 580 q 224 607 258 601 l 224 182 m 441 852 l 368 926 l 441 1000 l 516 926 l 441 852 m 171 852 l 96 926 l 171 1000 l 245 926 l 171 852 z "},"":{"ha":623,"x_min":45,"x_max":538,"o":"m 538 624 l 538 117 q 391 49 437 75 q 325 0 357 29 q 162 83 227 60 q 52 103 113 100 l 45 117 q 77 156 71 138 q 87 234 87 179 l 87 606 q 299 723 211 648 q 538 624 395 659 m 224 182 l 401 110 l 401 541 q 283 592 317 580 q 224 607 258 601 l 224 182 m 115 815 l 87 815 q 123 924 98 889 q 224 981 163 981 q 266 974 241 981 q 322 951 280 970 q 430 918 395 918 q 469 932 452 918 q 499 980 487 945 l 524 980 q 477 856 516 896 q 382 816 437 816 q 275 846 341 816 q 181 876 210 876 q 143 862 160 876 q 115 815 127 848 z "},"":{"ha":708,"x_min":40,"x_max":679,"o":"m 517 723 l 639 623 l 584 572 l 584 216 q 601 128 584 155 q 625 110 612 110 q 661 132 634 110 l 679 111 l 536 0 q 465 68 481 38 q 447 164 448 98 q 233 0 342 96 q 146 91 167 52 q 126 193 126 130 l 126 528 q 121 574 126 564 q 95 593 111 593 q 58 572 83 593 l 40 591 l 191 723 l 313 623 l 263 576 l 263 216 q 273 158 263 176 q 323 111 283 139 l 447 202 l 447 572 l 399 623 l 517 723 m 355 774 l 318 774 l 379 1027 l 537 1027 l 355 774 z "},"":{"ha":708,"x_min":40,"x_max":679,"o":"m 517 723 l 639 623 l 584 572 l 584 216 q 601 128 584 155 q 625 110 612 110 q 661 132 634 110 l 679 111 l 536 0 q 465 68 481 38 q 447 164 448 98 q 233 0 342 96 q 146 91 167 52 q 126 193 126 130 l 126 528 q 121 574 126 564 q 95 593 111 593 q 58 572 83 593 l 40 591 l 191 723 l 313 623 l 263 576 l 263 216 q 273 158 263 176 q 323 111 283 139 l 447 202 l 447 572 l 399 623 l 517 723 m 418 774 l 237 1027 l 394 1027 l 456 774 l 418 774 z "},"":{"ha":708,"x_min":40,"x_max":679,"o":"m 517 723 l 639 623 l 584 572 l 584 216 q 601 128 584 155 q 625 110 612 110 q 661 132 634 110 l 679 111 l 536 0 q 465 68 481 38 q 447 164 448 98 q 233 0 342 96 q 146 91 167 52 q 126 193 126 130 l 126 528 q 121 574 126 564 q 95 593 111 593 q 58 572 83 593 l 40 591 l 191 723 l 313 623 l 263 576 l 263 216 q 273 158 263 176 q 323 111 283 139 l 447 202 l 447 572 l 399 623 l 517 723 m 194 775 l 153 775 l 281 1029 l 428 1029 l 553 775 l 513 775 l 355 921 l 194 775 z "},"":{"ha":708,"x_min":40,"x_max":679,"o":"m 517 723 l 639 623 l 584 572 l 584 216 q 601 128 584 155 q 625 110 612 110 q 661 132 634 110 l 679 111 l 536 0 q 465 68 481 38 q 447 164 448 98 q 233 0 342 96 q 146 91 167 52 q 126 193 126 130 l 126 528 q 121 574 126 564 q 95 593 111 593 q 58 572 83 593 l 40 591 l 191 723 l 313 623 l 263 576 l 263 216 q 273 158 263 176 q 323 111 283 139 l 447 202 l 447 572 l 399 623 l 517 723 m 489 852 l 415 926 l 489 1000 l 564 926 l 489 852 m 218 852 l 144 926 l 218 1000 l 292 926 l 218 852 z "},"":{"ha":708,"x_min":35,"x_max":673,"o":"m 574 528 q 374 614 487 608 q 465 418 376 498 q 398 174 418 314 q 372 -196 372 -1 q 373 -229 372 -207 l 338 -229 q 311 191 333 52 q 246 418 294 300 q 338 614 332 495 q 134 527 237 612 l 35 632 l 135 734 q 337 648 232 658 q 310 785 332 724 q 248 901 294 829 l 355 1002 l 465 898 q 402 790 428 856 q 373 648 376 724 q 483 677 429 653 q 574 734 537 701 l 673 631 l 574 528 z "},"":{"ha":555,"x_min":40,"x_max":509,"o":"m 275 939 q 441 870 372 939 q 509 704 509 802 q 440 538 509 607 q 275 469 372 469 q 109 538 178 469 q 40 704 40 607 q 109 870 40 802 q 275 939 177 939 m 275 850 q 171 808 214 850 q 129 705 129 765 q 172 602 129 644 q 275 559 214 559 q 378 602 335 559 q 420 705 420 644 q 378 808 420 765 q 275 850 335 850 z "},"":{"ha":521,"x_min":87,"x_max":479,"o":"m 191 58 q 87 84 152 72 l 87 100 q 118 136 111 117 q 129 218 129 162 l 129 604 q 296 723 214 643 l 370 681 l 423 865 l 468 865 l 409 659 l 473 623 l 401 516 l 373 532 l 268 161 l 401 100 l 473 151 l 479 123 l 311 0 q 232 41 264 27 l 176 -157 l 130 -157 l 191 58 m 268 323 l 334 555 l 268 593 l 268 323 z "},"":{"ha":940,"x_min":57,"x_max":889,"o":"m 68 397 l 110 516 l 289 516 q 264 650 264 587 q 289 770 264 715 l 626 939 l 871 785 l 772 667 l 493 839 q 430 661 430 758 q 435 604 430 631 q 462 516 441 578 l 737 516 l 695 397 l 485 397 q 486 376 486 383 q 471 286 486 340 q 416 174 455 232 q 593 200 517 200 q 889 140 738 200 l 814 0 q 427 75 589 75 q 68 0 267 75 l 57 18 q 196 91 106 49 q 372 161 286 134 q 374 198 374 186 q 361 287 374 230 q 326 397 348 344 l 68 397 z "},"":{"ha":708,"x_min":67,"x_max":642,"o":"m 128 -128 l 193 -17 l 478 -119 q 511 -45 511 -75 q 497 3 511 -19 q 441 56 483 26 q 287 154 418 73 q 157 242 188 216 q 91 326 115 278 q 67 422 67 374 q 184 626 67 525 q 147 681 159 652 q 134 744 134 711 q 172 860 134 798 q 299 1002 209 922 l 581 900 l 514 791 l 230 892 q 199 819 199 844 q 217 764 199 787 q 321 684 243 730 q 443 607 350 667 q 571 511 536 547 q 624 436 607 476 q 642 357 642 397 q 615 255 642 303 q 525 148 589 208 q 563 91 551 120 q 576 33 576 62 q 549 -70 576 -22 q 414 -229 522 -118 l 128 -128 m 506 170 q 572 282 572 229 q 538 365 572 322 q 392 476 503 408 q 257 563 281 545 q 204 604 232 581 q 151 542 164 567 q 137 488 137 517 q 174 406 137 448 q 340 284 210 364 q 506 170 431 229 z "},"":{"ha":486,"x_min":52,"x_max":439,"o":"m 246 652 q 383 596 327 652 q 439 458 439 539 q 383 321 439 378 q 246 264 326 264 q 109 321 165 264 q 52 458 52 378 q 109 596 52 539 q 246 652 165 652 z "},"":{"ha":622,"x_min":-9,"x_max":631,"o":"m 541 882 l 541 -300 l 492 -300 l 492 882 l 366 882 l 366 -300 l 316 -300 l 316 408 q 122 442 186 413 q 24 531 58 471 q -9 665 -9 591 q 20 787 -9 740 q 124 886 59 852 q 296 920 190 920 l 631 920 l 631 882 l 541 882 z "},"":{"ha":708,"x_min":56,"x_max":656,"o":"m 125 617 l 56 617 l 56 690 l 125 690 l 125 860 q 273 972 203 906 l 438 933 l 406 822 l 262 854 l 262 589 l 467 722 l 563 631 q 616 600 595 600 q 638 606 621 600 l 646 595 l 429 408 q 462 410 452 410 q 601 358 547 410 q 656 233 656 307 q 637 158 656 193 q 573 87 619 124 q 473 27 543 62 q 351 -46 374 -22 q 328 -100 328 -71 q 343 -140 328 -124 q 378 -157 359 -157 q 402 -153 386 -157 q 425 -149 418 -149 q 441 -156 435 -149 q 448 -172 448 -162 q 439 -186 448 -179 q 416 -193 431 -193 q 333 -164 363 -193 q 302 -96 302 -136 q 320 -40 302 -67 q 382 20 338 -14 q 485 118 460 80 q 511 197 511 157 q 475 283 511 248 q 383 318 439 318 q 317 304 349 318 q 262 266 294 294 l 262 0 l 189 -51 l 189 -159 l 140 -193 l 125 -193 l 125 617 m 262 560 l 262 299 l 503 505 l 372 632 l 262 560 z "},"":{"ha":1055,"x_min":47,"x_max":1009,"o":"m 528 941 q 764 879 649 941 q 944 701 880 817 q 1009 460 1009 585 q 945 220 1009 335 q 767 42 882 106 q 528 -21 652 -21 q 289 42 403 -21 q 111 220 174 106 q 47 460 47 335 q 112 701 47 585 q 292 879 176 817 q 528 941 407 941 m 528 899 q 312 842 417 899 q 148 680 207 785 q 89 460 89 574 q 147 241 89 346 q 309 79 205 137 q 528 20 414 20 q 746 79 642 20 q 909 241 851 137 q 967 460 967 346 q 908 680 967 574 q 744 842 849 785 q 528 899 639 899 m 262 755 l 524 755 q 673 711 622 755 q 725 604 725 667 q 690 513 725 552 q 574 453 655 474 l 716 251 q 762 201 742 215 q 798 191 775 193 l 798 169 l 673 169 l 474 444 l 422 444 l 422 234 q 442 201 427 212 q 503 191 457 191 l 503 169 l 254 169 l 254 191 q 301 200 288 191 q 321 227 315 209 q 324 285 324 235 l 324 640 q 322 699 324 690 q 305 723 317 714 q 262 731 292 731 l 262 755 m 422 473 l 443 473 q 574 508 533 473 q 616 596 616 543 q 577 688 616 651 q 479 726 539 726 q 422 715 454 726 l 422 473 z "},"":{"ha":1055,"x_min":47,"x_max":1009,"o":"m 528 941 q 764 879 649 941 q 944 701 880 817 q 1009 460 1009 585 q 945 220 1009 335 q 767 42 882 106 q 528 -21 652 -21 q 289 42 403 -21 q 111 220 174 106 q 47 460 47 335 q 112 701 47 585 q 292 879 176 817 q 528 941 407 941 m 528 899 q 312 842 417 899 q 148 680 207 785 q 89 460 89 574 q 147 241 89 346 q 309 79 205 137 q 528 20 414 20 q 746 79 642 20 q 909 241 851 137 q 967 460 967 346 q 908 680 967 574 q 744 842 849 785 q 528 899 639 899 m 766 769 l 779 579 l 753 579 q 675 700 728 660 q 547 739 622 739 q 448 716 492 739 q 377 654 405 693 q 343 577 357 625 q 330 475 330 529 q 391 263 330 332 q 554 195 453 195 q 766 305 686 195 l 791 292 q 531 155 696 155 q 306 242 395 155 q 217 456 217 330 q 312 678 217 586 q 555 770 407 770 q 607 766 586 770 q 680 744 627 762 q 705 739 697 739 q 724 744 716 739 q 739 769 731 750 l 766 769 z "},"":{"ha":1361,"x_min":20,"x_max":1338,"o":"m 35 920 l 528 920 l 543 783 l 520 783 q 485 856 513 832 q 389 879 456 879 l 338 879 l 338 486 q 351 414 338 429 q 410 397 365 399 l 410 372 l 156 372 l 156 397 q 212 415 200 401 q 224 486 224 430 l 224 879 l 172 879 q 81 858 108 879 q 43 783 54 836 l 20 783 l 35 920 m 784 920 l 969 532 l 1149 920 l 1338 920 l 1338 895 q 1276 877 1290 893 q 1263 803 1263 861 l 1263 486 q 1276 414 1263 428 q 1338 397 1289 399 l 1338 372 l 1068 372 l 1068 397 q 1122 405 1108 397 q 1142 427 1136 412 q 1149 485 1149 441 l 1149 819 l 941 372 l 919 372 l 710 812 l 710 486 q 713 431 710 442 q 732 405 720 414 q 773 397 745 397 l 798 397 l 798 372 l 590 372 l 590 397 q 641 404 628 397 q 661 425 654 410 q 667 486 667 439 l 667 802 q 653 878 667 862 q 590 895 640 895 l 590 920 l 784 920 z "},"":{"ha":463,"x_min":163,"x_max":382,"o":"m 200 774 l 163 774 l 224 1027 l 382 1027 l 200 774 z "},"":{"ha":463,"x_min":22,"x_max":441,"o":"m 367 852 l 293 926 l 367 1000 l 441 926 l 367 852 m 96 852 l 22 926 l 96 1000 l 170 926 l 96 852 z "},"":{"ha":926,"x_min":88,"x_max":836,"o":"m 88 680 l 494 680 l 635 1037 l 741 1037 l 604 680 l 836 680 l 836 555 l 554 555 l 477 358 l 836 358 l 836 233 l 429 233 l 288 -123 l 180 -123 l 321 233 l 88 233 l 88 358 l 370 358 l 446 555 l 88 555 l 88 680 z "},"":{"ha":1634,"x_min":46,"x_max":1607,"o":"m 997 1014 l 1021 989 q 901 894 940 941 q 846 784 863 847 q 829 602 829 720 q 841 385 829 441 q 890 274 854 329 q 946 336 937 315 q 955 438 955 358 l 955 774 l 1246 1014 q 1503 947 1403 947 q 1570 951 1525 947 l 1587 930 l 1349 688 l 1537 688 l 1466 559 l 1208 559 l 1208 123 l 1243 121 q 1414 155 1335 121 q 1592 274 1493 189 l 1607 252 q 1444 83 1533 141 q 1162 0 1319 0 q 974 33 1057 0 q 831 123 892 66 q 743 233 789 162 l 432 0 q 133 142 220 142 q 102 132 113 142 q 91 106 91 121 q 106 68 91 94 q 121 32 121 43 q 112 9 121 18 q 89 0 103 0 q 62 14 74 0 q 46 62 46 35 q 60 121 46 92 q 138 245 83 172 l 231 375 q 97 505 143 435 q 51 668 51 576 q 101 836 51 755 q 248 965 151 917 q 458 1014 345 1014 q 669 970 566 1014 q 814 876 738 941 q 894 954 853 923 q 997 1014 935 985 m 1177 911 l 1095 842 l 1095 520 q 1089 449 1095 467 q 1060 397 1082 424 q 909 253 1025 353 q 1014 173 962 199 q 1177 125 1085 138 l 1177 911 m 593 867 q 508 897 541 889 q 430 904 474 904 q 189 825 279 904 q 98 642 98 745 q 251 396 98 507 l 473 704 q 390 734 427 734 q 292 684 331 734 q 275 671 283 671 q 268 674 271 671 q 265 684 265 678 q 287 744 265 709 q 353 801 309 779 q 446 823 397 823 q 544 802 487 823 l 593 867 m 1208 588 l 1439 823 q 1302 852 1348 838 q 1208 892 1256 867 l 1208 588 m 690 791 q 621 852 659 825 l 327 451 l 690 451 l 690 791 m 251 349 l 190 262 l 538 118 l 728 262 q 700 349 707 317 l 251 349 z "},"":{"ha":1173,"x_min":49,"x_max":1123,"o":"m 773 984 l 798 1030 l 875 1030 l 838 961 q 1048 802 974 905 q 1123 577 1123 700 q 1078 405 1123 490 q 923 215 1032 321 q 704 55 814 110 q 488 0 593 0 q 343 24 414 0 l 321 -17 l 243 -17 l 279 51 q 109 207 169 107 q 49 429 49 307 q 63 561 49 498 q 113 708 77 625 q 270 800 180 741 q 513 954 318 831 q 602 1014 553 979 q 773 984 712 1002 m 551 565 l 551 879 q 460 883 505 882 l 351 812 l 351 435 q 348 323 351 349 q 332 270 345 296 q 293 217 319 244 q 345 176 328 188 l 551 565 m 703 853 q 580 877 649 869 l 580 698 q 608 674 597 683 l 703 853 m 768 829 l 667 639 q 763 618 717 618 q 854 637 813 618 q 941 698 896 656 q 876 766 905 744 q 768 829 829 802 m 321 794 q 238 722 263 751 q 182 628 205 684 q 160 506 160 572 q 271 238 160 362 q 311 296 302 267 q 321 409 321 325 l 321 794 m 580 415 q 670 481 628 463 q 766 500 711 500 q 870 480 824 500 q 969 410 916 460 q 987 526 987 477 q 981 606 987 572 q 958 668 975 631 q 856 603 899 621 q 760 586 812 586 q 671 602 711 586 q 580 659 631 618 l 580 415 m 580 112 q 719 140 665 117 q 860 235 800 174 q 958 382 920 296 q 767 470 865 470 q 659 439 710 470 q 580 366 621 418 l 580 112 m 551 418 l 406 143 q 551 112 467 117 l 551 418 z "},"":{"ha":984,"x_min":33,"x_max":951,"o":"m 440 452 q 541 599 486 558 q 691 640 596 640 q 876 562 800 640 q 951 357 951 483 q 878 153 951 233 q 714 73 804 73 q 605 110 654 73 q 486 267 555 147 q 391 145 442 182 q 266 109 339 109 q 101 178 168 109 q 33 359 33 248 q 96 539 33 471 q 241 608 158 608 q 348 575 304 608 q 440 452 391 543 m 505 315 q 603 175 553 214 q 717 136 652 136 q 856 196 800 136 q 912 357 912 256 q 853 522 912 457 q 721 587 794 587 q 639 564 674 587 q 576 488 604 540 q 505 315 559 457 m 420 400 q 345 510 387 475 q 239 545 302 545 q 119 495 168 545 q 71 359 71 444 q 118 215 71 269 q 227 161 166 161 q 340 219 291 161 q 420 400 372 257 z "},"":{"ha":926,"x_min":88,"x_max":838,"o":"m 88 636 l 399 636 l 399 949 l 525 949 l 525 636 l 838 636 l 838 511 l 525 511 l 525 200 l 399 200 l 399 511 l 88 511 l 88 636 m 88 89 l 838 89 l 838 -37 l 88 -37 l 88 89 z "},"":{"ha":926,"x_min":88,"x_max":838,"o":"m 837 224 l 89 536 l 89 650 l 837 962 l 837 827 l 259 593 l 837 359 l 837 224 m 88 75 l 838 75 l 838 -51 l 88 -51 l 88 75 z "},"":{"ha":926,"x_min":88,"x_max":838,"o":"m 89 962 l 837 650 l 837 536 l 89 224 l 89 359 l 666 593 l 89 827 l 89 962 m 88 75 l 838 75 l 838 -51 l 88 -51 l 88 75 z "},"":{"ha":1013,"x_min":34,"x_max":977,"o":"m 977 817 l 928 716 l 748 789 l 603 444 l 603 394 l 826 394 l 791 292 l 603 292 l 603 148 q 682 157 640 157 q 748 148 713 157 l 697 35 q 610 45 633 45 q 477 33 563 45 q 328 0 391 20 l 318 28 q 466 103 363 56 l 466 292 l 243 292 l 278 394 l 466 394 l 466 444 l 309 707 q 298 726 304 715 q 234 812 261 791 q 170 833 206 833 q 108 814 138 833 q 53 755 87 802 l 34 777 q 117 897 63 857 q 229 938 170 938 q 300 922 265 938 q 358 878 335 906 q 413 802 391 840 l 591 498 l 772 933 q 916 848 842 886 l 977 817 z "},"":{"ha":694,"x_min":7,"x_max":713,"o":"m 58 642 l 195 642 l 195 260 q 224 100 195 138 q 298 62 252 62 q 341 73 321 62 q 445 155 361 84 l 445 642 l 582 642 l 582 178 q 591 71 582 87 q 618 56 601 56 q 656 76 639 56 q 679 138 674 96 l 713 138 q 670 20 709 59 q 570 -19 631 -19 q 485 11 517 -19 q 445 110 453 41 q 314 -2 345 16 q 241 -19 283 -19 q 174 -4 203 -19 q 121 39 144 10 q 119 7 119 18 q 147 -155 119 -47 q 158 -225 158 -195 q 136 -278 158 -256 q 82 -300 115 -300 q 27 -280 47 -300 q 7 -227 7 -260 q 31 -114 7 -195 q 50 -42 47 -60 q 59 73 59 28 l 58 129 l 58 642 z "},"":{"ha":680,"x_min":41,"x_max":672,"o":"m 627 486 q 635 612 635 563 q 571 801 635 734 q 401 868 507 868 q 281 841 329 868 q 197 760 234 814 l 165 760 q 278 916 218 867 q 424 964 338 964 q 543 931 485 964 q 636 824 601 898 q 672 624 672 750 q 568 193 672 384 q 271 -21 450 -21 q 103 40 165 -21 q 41 206 41 101 q 72 362 41 286 q 152 491 104 438 q 259 575 200 544 q 415 616 336 616 q 516 594 471 616 q 590 543 561 573 q 627 486 608 524 m 616 426 q 537 540 589 501 q 421 578 484 578 q 301 536 360 578 q 199 389 242 494 q 155 178 155 283 q 193 59 155 101 q 288 18 230 18 q 458 106 371 18 q 616 426 568 218 z "},"":{"ha":984,"x_min":26,"x_max":960,"o":"m 916 -138 l 26 -138 l 26 -114 l 479 450 l 26 1004 l 26 1029 l 892 1029 l 911 800 l 884 800 q 831 934 873 894 q 715 974 789 974 l 213 974 l 594 508 l 168 -19 l 722 -19 q 826 -1 770 -19 q 890 45 865 12 q 932 148 916 78 l 960 143 l 916 -138 z "},"":{"ha":1143,"x_min":31,"x_max":1112,"o":"m 841 975 l 302 975 l 302 -7 q 328 -89 302 -66 q 436 -113 354 -113 l 436 -138 l 31 -138 l 31 -113 l 55 -113 q 140 -89 115 -113 q 165 -7 165 -64 l 165 897 q 140 978 165 954 q 55 1002 115 1002 l 31 1002 l 31 1028 l 1112 1028 l 1112 1002 l 1088 1002 q 1004 978 1029 1002 q 979 897 979 954 l 979 -7 q 1005 -89 979 -66 q 1112 -113 1031 -113 l 1112 -138 l 707 -138 l 707 -113 l 731 -113 q 816 -89 791 -113 q 841 -7 841 -64 l 841 975 z "},"":{"ha":738,"x_min":30,"x_max":682,"o":"m 682 621 l 682 522 l 525 522 q 506 359 513 452 q 498 212 498 267 q 523 122 498 151 q 583 94 547 94 q 633 113 613 94 q 658 170 654 132 l 682 170 q 631 24 670 68 q 543 -19 591 -19 q 458 28 492 -19 q 424 216 424 75 q 431 354 424 277 q 450 522 443 478 l 290 522 l 275 315 q 233 65 258 153 q 191 -7 219 16 q 159 -19 178 -19 q 115 -2 132 -19 q 98 37 98 14 q 104 73 98 56 q 142 129 109 83 q 176 195 164 159 q 199 309 189 230 q 215 522 201 323 l 195 522 q 118 503 148 522 q 54 427 88 484 l 30 427 q 85 552 52 508 q 149 609 118 596 q 250 621 180 621 l 682 621 z "},"":{"ha":376,"x_min":-2,"x_max":378,"o":"m 134 607 l 146 1002 q 164 1128 150 1073 q 198 1211 178 1183 q 240 1247 212 1232 q 293 1263 267 1263 q 352 1241 327 1263 q 378 1191 378 1218 q 360 1140 378 1159 q 315 1120 342 1120 q 264 1145 292 1120 q 237 1158 248 1158 q 217 1148 225 1158 q 210 1115 210 1139 q 216 1017 210 1087 q 241 567 241 738 q 231 212 241 519 q 218 36 228 98 q 182 -83 204 -47 q 135 -134 161 -119 q 78 -149 109 -149 q 20 -126 43 -149 q -2 -67 -2 -103 q 15 -18 -2 -37 q 59 0 33 0 q 106 -22 86 0 q 139 -43 125 -43 q 158 -34 151 -43 q 165 -2 165 -24 q 159 79 165 26 q 142 309 148 176 q 134 607 134 477 z "},"":{"ha":420,"x_min":27,"x_max":399,"o":"m 386 686 l 399 665 l 289 593 q 239 679 244 623 l 102 593 q 27 705 27 646 q 119 858 27 780 l 73 967 l 89 993 q 137 984 119 984 q 168 989 154 984 q 212 1012 181 994 l 300 979 q 317 975 311 975 q 353 1001 332 975 l 372 987 q 357 960 366 976 q 337 918 340 931 q 330 851 330 890 l 330 758 q 342 680 330 699 q 356 670 347 670 q 375 680 360 670 q 386 686 378 682 m 239 826 l 239 918 l 102 962 l 140 873 l 239 826 m 239 709 l 239 800 l 142 848 q 118 765 118 793 q 164 661 118 710 l 239 709 z "},"":{"ha":390,"x_min":24,"x_max":338,"o":"m 338 966 l 338 659 q 271 635 296 647 q 200 595 245 624 q 106 633 133 625 q 49 640 80 640 l 35 640 l 24 659 q 45 693 41 677 q 52 755 52 714 l 52 953 q 125 973 103 963 q 189 1014 147 983 q 260 980 231 989 q 338 966 289 970 m 248 672 l 248 899 q 143 931 203 922 l 143 709 l 248 672 z "},"":{"ha":1027,"x_min":39,"x_max":988,"o":"m 39 212 l 63 212 q 98 141 66 163 q 174 126 118 126 l 357 126 l 357 172 q 175 270 259 191 q 62 541 62 375 q 188 824 62 707 q 516 941 314 941 q 842 825 718 941 q 966 543 966 710 q 889 309 966 407 q 670 172 812 211 l 670 126 l 857 126 q 935 145 910 126 q 964 212 960 164 l 988 212 l 988 0 l 609 0 l 624 205 q 751 307 703 230 q 799 528 799 383 q 714 795 799 701 q 513 890 630 890 q 374 850 439 890 q 269 728 309 810 q 229 538 229 645 q 248 386 229 459 q 304 270 267 312 q 402 205 342 228 l 418 0 l 39 0 l 39 212 z "},"":{"ha":854,"x_min":39,"x_max":831,"o":"m 627 723 l 831 502 l 515 283 l 515 157 l 685 96 l 792 171 l 806 150 l 588 0 q 378 79 497 46 l 378 164 l 155 0 q 67 87 96 43 q 39 189 39 132 q 70 316 39 253 q 180 461 101 378 l 98 642 l 109 667 q 151 663 133 663 q 232 677 197 663 q 304 723 267 691 q 391 684 348 699 q 502 657 434 669 q 627 723 576 688 m 127 642 l 205 473 l 378 389 l 378 566 l 127 642 m 530 641 l 515 635 l 515 331 l 704 462 l 530 641 m 205 443 q 160 291 160 357 q 191 178 160 230 q 259 112 212 142 l 378 202 l 378 359 l 205 443 z "},"":{"ha":623,"x_min":45,"x_max":538,"o":"m 172 79 l 129 0 l 72 0 l 123 94 q 52 103 98 101 l 45 117 q 77 156 71 138 q 87 234 87 179 l 87 606 q 299 723 211 648 q 430 658 354 687 l 466 724 l 522 724 l 477 641 q 538 624 503 633 l 538 117 q 391 49 437 75 q 325 0 357 29 q 172 79 233 56 m 224 279 l 374 554 q 224 607 281 597 l 224 279 m 401 500 l 227 181 l 401 110 l 401 500 z "},"":{"ha":463,"x_min":56,"x_max":440,"o":"m 273 734 l 377 630 l 273 527 l 170 630 l 273 734 m 440 -9 l 338 -192 l 315 -193 q 125 -133 193 -193 q 56 10 56 -73 q 76 96 56 53 q 157 212 96 140 q 238 336 218 285 q 257 478 257 387 l 288 478 q 289 435 289 450 q 277 332 289 385 q 231 181 266 278 q 205 59 205 108 q 219 6 205 35 q 259 -38 233 -22 q 315 -53 286 -53 q 420 2 370 -53 l 440 -9 z "},"":{"ha":390,"x_min":75,"x_max":316,"o":"m 195 734 l 299 630 l 195 527 l 92 630 l 195 734 m 316 -66 l 195 -193 l 75 -66 q 180 480 161 105 l 209 480 q 252 138 225 264 q 316 -66 278 12 z "},"":{"ha":926,"x_min":88,"x_max":838,"o":"m 88 686 l 838 686 l 838 231 l 713 231 l 712 561 l 88 561 l 88 686 z "},"":{"ha":767,"x_min":59,"x_max":764,"o":"m 714 1267 l 764 1267 l 553 -53 l 216 640 l 82 578 l 59 621 l 263 724 l 538 165 l 714 1267 z "},"":{"ha":677,"x_min":9,"x_max":670,"o":"m 450 616 l 314 27 q 309 -7 309 8 q 341 -73 309 -50 l 333 -89 q 138 -193 239 -116 l 9 -66 l 29 -47 l 73 -89 l 163 -31 l 313 616 l 249 616 l 267 692 l 330 692 l 368 856 q 548 972 484 923 l 670 940 l 623 827 l 505 856 l 467 692 l 573 692 l 555 616 l 450 616 z "},"":{"ha":926,"x_min":90,"x_max":836,"o":"m 793 743 l 836 743 q 780 572 834 633 q 646 511 725 511 q 566 523 608 511 q 390 591 524 534 q 250 632 294 632 q 175 605 205 632 q 134 511 146 577 l 90 511 q 148 688 96 631 q 275 744 199 744 q 349 734 313 744 q 534 664 417 715 q 632 627 600 636 q 676 622 652 622 q 754 653 722 622 q 793 743 786 684 m 793 398 l 836 398 q 780 227 834 288 q 646 165 725 165 q 566 177 608 165 q 390 245 524 189 q 250 286 294 286 q 175 259 205 286 q 134 166 145 231 l 90 166 q 148 342 96 286 q 274 399 199 399 q 349 389 313 399 q 534 319 416 370 q 633 281 600 290 q 676 276 652 276 q 754 307 722 276 q 793 398 786 338 z "},"":{"ha":850,"x_min":18,"x_max":831,"o":"m 831 0 l 18 0 l 444 941 l 831 0 m 671 56 l 401 711 l 102 56 l 671 56 z "},"":{"ha":550,"x_min":39,"x_max":509,"o":"m 253 62 l 235 41 q 87 201 135 112 q 39 386 39 290 q 235 732 39 591 l 253 713 q 166 567 196 653 q 136 387 136 481 q 166 207 136 292 q 253 62 197 121 m 509 62 l 490 41 q 345 200 395 108 q 296 387 296 292 q 342 566 296 476 q 490 732 389 656 l 509 713 q 393 389 393 582 q 422 211 393 297 q 509 62 452 125 z "},"":{"ha":550,"x_min":41,"x_max":511,"o":"m 297 62 q 384 207 353 121 q 414 387 414 292 q 384 567 414 481 q 297 713 354 653 l 315 732 q 511 386 511 591 q 463 201 511 290 q 315 41 416 112 l 297 62 m 41 62 q 127 211 98 125 q 157 389 157 297 q 41 713 157 582 l 60 732 q 208 566 161 656 q 255 387 255 476 q 205 200 255 292 q 60 41 155 108 l 41 62 z "},"":{"ha":1402,"x_min":130,"x_max":1273,"o":"m 233 0 l 130 103 l 233 207 l 337 103 l 233 0 m 701 0 l 598 103 l 701 207 l 805 103 l 701 0 m 1169 0 l 1066 103 l 1169 207 l 1273 103 l 1169 0 z "},"":{"ha":355,"x_min":0,"x_max":0,"o":""},"":{"ha":1013,"x_min":60,"x_max":979,"o":"m 942 1027 l 955 996 q 883 949 906 972 q 850 897 859 926 q 840 811 840 868 q 841 762 840 793 l 852 256 q 870 146 854 172 q 898 128 882 128 q 959 168 918 128 l 979 142 l 852 35 l 810 0 q 734 66 757 25 q 709 199 711 108 l 446 0 q 148 144 227 144 q 115 132 128 144 q 104 107 104 123 q 117 68 104 90 q 134 31 134 40 q 125 9 134 18 q 102 0 115 0 q 75 14 85 0 q 60 61 60 32 q 78 134 60 94 q 134 222 97 174 q 147 241 141 232 l 244 373 q 106 515 146 447 q 66 667 66 583 q 116 848 66 764 q 266 979 166 931 q 472 1027 366 1027 q 785 915 634 1027 q 855 978 821 954 q 942 1027 889 1003 m 608 870 q 438 912 523 912 q 269 872 348 912 q 150 770 189 833 q 111 642 111 707 q 261 395 111 503 l 488 705 q 396 733 437 733 q 304 680 340 733 q 290 669 297 669 q 282 673 286 669 q 279 684 279 677 q 300 742 279 705 q 363 802 321 779 q 451 825 405 825 q 559 802 498 825 l 608 870 m 696 800 q 669 828 676 822 q 635 853 665 833 l 339 449 l 704 449 l 696 800 m 266 350 l 205 265 l 549 117 l 709 235 l 707 350 l 266 350 m 717 1140 l 536 1393 l 693 1393 l 755 1140 l 717 1140 z "},"":{"ha":1013,"x_min":60,"x_max":979,"o":"m 942 1027 l 955 996 q 883 949 906 972 q 850 897 859 926 q 840 811 840 868 q 841 762 840 793 l 852 256 q 870 146 854 172 q 898 128 882 128 q 959 168 918 128 l 979 142 l 852 35 l 810 0 q 734 66 757 25 q 709 199 711 108 l 446 0 q 148 144 227 144 q 115 132 128 144 q 104 107 104 123 q 117 68 104 90 q 134 31 134 40 q 125 9 134 18 q 102 0 115 0 q 75 14 85 0 q 60 61 60 32 q 78 134 60 94 q 134 222 97 174 q 147 241 141 232 l 244 373 q 106 515 146 447 q 66 667 66 583 q 116 848 66 764 q 266 979 166 931 q 472 1027 366 1027 q 785 915 634 1027 q 855 978 821 954 q 942 1027 889 1003 m 608 870 q 438 912 523 912 q 269 872 348 912 q 150 770 189 833 q 111 642 111 707 q 261 395 111 503 l 488 705 q 396 733 437 733 q 304 680 340 733 q 290 669 297 669 q 282 673 286 669 q 279 684 279 677 q 300 742 279 705 q 363 802 321 779 q 451 825 405 825 q 559 802 498 825 l 608 870 m 696 800 q 669 828 676 822 q 635 853 665 833 l 339 449 l 704 449 l 696 800 m 266 350 l 205 265 l 549 117 l 709 235 l 707 350 l 266 350 m 476 1120 l 448 1120 q 484 1230 458 1194 q 585 1286 524 1286 q 627 1279 602 1286 q 683 1257 641 1276 q 791 1223 756 1223 q 830 1237 812 1223 q 860 1285 848 1251 l 885 1285 q 838 1161 877 1201 q 743 1121 798 1121 q 636 1151 702 1121 q 542 1181 570 1181 q 504 1167 521 1181 q 476 1120 488 1154 z "},"":{"ha":1173,"x_min":49,"x_max":1123,"o":"m 602 1014 q 787 980 720 1002 q 963 889 887 948 q 1081 751 1038 831 q 1123 577 1123 671 q 1078 406 1123 490 q 925 217 1034 322 q 705 56 816 112 q 489 0 595 0 q 270 56 376 0 q 106 211 164 113 q 49 429 49 310 q 63 561 49 498 q 113 708 77 625 q 270 800 180 741 q 513 954 318 831 q 602 1014 553 979 m 551 879 q 460 883 505 882 l 460 482 q 451 391 460 417 q 418 338 442 366 l 293 217 q 413 140 357 163 q 551 112 470 117 l 551 879 m 580 698 q 672 637 629 656 q 768 618 716 618 q 856 637 815 618 q 941 698 896 656 q 869 772 902 748 q 738 842 808 817 q 580 877 667 867 l 580 698 m 321 794 q 238 722 263 751 q 182 628 205 684 q 160 506 160 572 q 271 238 160 362 q 311 296 302 267 q 321 409 321 325 l 321 794 m 580 415 q 670 481 628 463 q 766 500 711 500 q 870 480 824 500 q 969 410 916 460 q 987 526 987 477 q 981 606 987 572 q 958 668 975 631 q 856 603 899 621 q 760 586 812 586 q 671 602 711 586 q 580 659 631 618 l 580 415 m 580 112 q 719 140 665 117 q 860 235 800 174 q 958 382 920 296 q 767 470 865 470 q 659 439 710 470 q 580 366 621 418 l 580 112 m 400 1120 l 372 1120 q 408 1230 382 1194 q 509 1286 448 1286 q 551 1279 526 1286 q 607 1257 565 1276 q 715 1223 680 1223 q 754 1237 736 1223 q 784 1285 772 1251 l 809 1285 q 762 1161 801 1201 q 667 1121 722 1121 q 560 1151 626 1121 q 466 1181 494 1181 q 428 1167 445 1181 q 400 1120 412 1154 z "},"":{"ha":1896,"x_min":51,"x_max":1867,"o":"m 1830 948 l 1846 930 l 1617 694 l 1796 694 l 1727 566 l 1466 566 l 1466 119 l 1500 119 q 1679 154 1594 116 q 1854 273 1763 192 l 1867 251 q 1695 76 1790 135 q 1415 0 1573 0 q 1220 37 1307 0 q 1073 138 1134 75 q 989 258 1032 181 q 743 63 861 125 q 500 0 625 0 q 274 58 382 0 q 108 216 165 115 q 51 423 51 316 q 65 555 51 491 q 118 709 80 618 q 324 831 209 758 q 604 1014 531 962 q 892 940 772 999 q 1035 820 970 901 q 1121 930 1076 884 q 1225 1014 1166 977 l 1246 991 q 1151 879 1187 941 q 1101 751 1114 816 q 1088 551 1088 686 q 1100 377 1088 425 q 1149 273 1112 330 q 1204 331 1194 309 q 1214 414 1214 352 l 1214 771 l 1478 991 l 1499 1010 q 1508 1014 1503 1014 q 1518 1010 1511 1014 q 1761 943 1653 943 q 1830 948 1784 943 m 1437 911 l 1352 839 l 1352 505 q 1347 446 1352 462 q 1332 414 1343 429 q 1275 350 1314 389 l 1214 294 l 1168 250 q 1282 166 1222 195 q 1437 122 1341 137 l 1437 911 m 1466 585 l 1697 821 q 1466 892 1558 841 l 1466 585 m 553 882 q 509 883 524 883 l 464 882 l 464 490 q 452 391 464 419 q 377 294 431 345 l 296 218 q 413 141 360 163 q 553 112 466 119 l 553 882 m 583 699 q 673 637 631 656 q 769 619 716 619 q 854 636 815 619 q 938 694 892 652 q 891 764 916 741 q 772 834 852 802 q 583 878 693 867 l 583 699 m 326 795 q 215 686 250 743 q 164 504 164 604 q 198 348 164 423 q 275 238 222 295 q 316 305 307 275 q 326 406 326 335 l 326 795 m 583 416 q 676 481 633 462 q 770 500 719 500 q 853 485 812 500 q 950 430 895 470 q 954 504 954 462 l 954 595 q 950 659 954 632 q 854 604 893 618 q 769 589 814 589 q 682 605 724 589 q 583 659 640 620 l 583 416 m 583 111 q 718 129 671 116 q 831 184 783 148 q 908 271 879 220 q 950 395 937 321 q 860 453 901 437 q 770 470 819 470 q 668 445 713 470 q 583 369 624 420 l 583 111 z "},"":{"ha":854,"x_min":37,"x_max":829,"o":"m 643 723 l 829 507 l 829 495 l 528 286 l 528 163 l 684 98 l 793 172 l 807 151 l 591 0 q 413 69 507 49 q 311 0 365 46 q 185 74 250 49 q 45 106 120 100 l 37 121 q 65 151 59 136 q 74 217 74 172 l 74 607 q 196 663 153 638 q 281 723 239 687 l 296 723 q 475 644 382 667 l 549 675 l 643 723 m 707 458 l 540 643 l 528 637 l 528 334 l 707 458 m 390 117 l 390 545 q 214 612 301 589 l 214 189 l 390 117 z "},"":{"ha":694,"x_min":-8,"x_max":703,"o":"m -8 378 l 703 378 l 703 316 l -8 316 l -8 378 z "},"":{"ha":1389,"x_min":-8,"x_max":1397,"o":"m -8 378 l 1397 378 l 1397 316 l -8 316 l -8 378 z "},"":{"ha":623,"x_min":96,"x_max":551,"o":"m 296 785 l 197 685 l 96 779 q 280 1014 134 943 l 296 990 q 242 938 252 954 q 227 887 227 912 q 240 842 227 865 q 296 785 254 819 m 551 785 l 451 685 l 351 779 q 534 1014 388 943 l 551 990 q 496 938 506 954 q 481 887 481 912 q 495 842 481 865 q 551 785 509 819 z "},"":{"ha":623,"x_min":94,"x_max":550,"o":"m 94 914 l 194 1014 l 294 920 q 110 685 256 755 l 94 709 q 148 761 138 745 q 163 812 163 787 q 150 857 163 834 q 94 914 136 880 m 350 914 l 450 1014 l 550 920 q 366 685 513 755 l 350 709 q 404 761 395 745 q 420 812 420 787 q 406 857 420 834 q 350 914 392 880 z "},"":{"ha":390,"x_min":96,"x_max":296,"o":"m 296 785 l 197 685 l 96 779 q 280 1014 134 943 l 296 990 q 242 938 252 954 q 227 887 227 912 q 240 842 227 865 q 296 785 254 819 z "},"":{"ha":390,"x_min":94,"x_max":294,"o":"m 94 914 l 194 1014 l 294 920 q 110 685 256 755 l 94 709 q 148 761 138 745 q 163 812 163 787 q 150 857 163 834 q 94 914 136 880 z "},"":{"ha":926,"x_min":88,"x_max":838,"o":"m 460 815 q 514 793 492 815 q 536 739 536 771 q 514 686 536 708 q 460 663 492 663 q 407 686 429 663 q 385 739 385 708 q 407 793 385 771 q 460 815 429 815 m 88 515 l 838 515 l 838 395 l 88 395 l 88 515 m 461 253 q 516 231 494 253 q 538 176 538 208 q 516 122 538 144 q 461 100 493 100 q 407 122 430 100 q 385 176 385 144 q 407 231 385 208 q 461 253 429 253 z "},"":{"ha":686,"x_min":41,"x_max":644,"o":"m 341 1023 l 644 505 l 341 -29 l 41 505 l 341 1023 m 341 844 l 144 505 l 341 151 l 539 505 l 341 844 z "},"":{"ha":623,"x_min":33,"x_max":583,"o":"m 37 604 l 179 723 q 255 654 237 684 q 272 574 272 625 l 272 559 l 477 723 q 583 486 583 612 q 548 351 583 418 q 439 223 513 283 q 201 64 366 162 q 115 9 129 20 q 71 -37 84 -15 q 62 -74 62 -54 q 96 -138 62 -109 q 186 -168 130 -168 q 254 -153 227 -168 q 279 -124 267 -146 q 300 -96 291 -102 q 321 -89 309 -89 q 342 -96 334 -89 q 351 -116 351 -104 q 319 -159 351 -138 q 195 -193 270 -193 q 75 -156 117 -193 q 33 -68 33 -119 q 80 30 33 -18 q 108 62 102 53 q 128 110 123 88 q 134 172 134 132 l 134 496 q 118 589 134 564 q 92 608 106 608 q 62 590 80 608 q 53 582 59 587 l 37 604 m 272 528 l 272 143 q 408 287 368 212 q 448 430 448 362 q 374 609 448 522 l 272 528 m 483 852 l 409 926 l 483 1000 l 557 926 l 483 852 m 212 852 l 138 926 l 212 1000 l 286 926 l 212 852 z "},"":{"ha":1100,"x_min":41,"x_max":1029,"o":"m 83 943 l 68 969 q 145 1020 116 1008 q 214 1032 175 1032 q 317 1010 269 1032 q 393 952 366 988 q 428 869 414 924 q 597 971 528 943 q 732 1000 667 1000 q 941 899 852 1000 q 1029 622 1029 799 q 996 431 1029 521 q 896 282 962 340 q 741 199 830 224 q 589 174 652 174 l 302 180 q 180 158 237 180 q 98 101 123 137 q 72 23 72 65 q 112 -68 72 -31 q 208 -106 151 -106 q 271 -98 238 -106 q 395 -50 303 -89 q 614 8 527 8 q 755 -34 703 8 q 795 -119 795 -66 q 777 -169 795 -150 q 732 -187 759 -187 q 694 -170 710 -187 q 678 -127 678 -153 q 693 -79 678 -106 q 703 -56 703 -63 q 695 -41 703 -47 q 665 -33 684 -33 q 616 -42 642 -33 q 519 -92 589 -52 q 363 -168 420 -148 q 260 -187 307 -187 q 104 -127 168 -187 q 41 15 41 -66 q 101 150 41 94 q 290 213 162 205 q 290 234 290 227 q 257 368 290 311 q 170 453 224 425 q 83 472 136 471 l 83 496 q 133 501 113 501 q 213 489 177 501 q 290 448 249 477 q 291 482 291 467 q 240 619 291 565 q 118 673 189 673 q 76 670 102 673 l 76 696 q 162 720 120 720 q 220 711 193 720 q 290 675 247 702 q 290 734 290 710 q 250 916 290 864 q 154 967 210 967 q 83 943 119 967 m 535 711 q 612 659 577 673 q 690 645 646 645 q 777 662 737 645 q 866 723 816 678 q 823 820 846 786 q 741 897 787 871 q 644 922 694 922 q 535 893 598 922 l 535 711 m 503 877 q 428 827 465 854 l 428 213 q 466 212 453 212 l 503 213 l 503 877 m 535 465 q 624 512 587 499 q 705 526 662 526 q 786 512 748 526 q 873 465 823 499 q 884 568 884 524 q 873 687 884 614 q 773 628 816 644 q 683 612 731 612 q 613 624 646 612 q 535 669 579 637 l 535 465 m 535 213 q 695 238 633 215 q 797 304 758 260 q 866 429 836 348 q 782 479 817 467 q 704 492 747 492 q 623 479 661 492 q 535 429 585 465 l 535 213 m 706 1137 l 632 1211 l 706 1285 l 781 1211 l 706 1137 m 435 1137 l 361 1211 l 435 1285 l 509 1211 l 435 1137 z "},"":{"ha":174,"x_min":-271,"x_max":435,"o":"m -182 -46 l -271 -46 l 347 943 l 435 943 l -182 -46 z "},"":{"ha":174,"x_min":-271,"x_max":435,"o":"m -182 -46 l -271 -46 l 347 943 l 435 943 l -182 -46 z "},"":{"ha":708,"x_min":53,"x_max":674,"o":"m 674 799 l 591 680 l 336 828 q 223 582 234 711 l 567 582 l 540 490 l 227 490 q 250 399 234 442 l 519 399 l 492 307 l 297 307 q 398 203 337 248 q 570 130 483 142 l 663 201 l 669 172 q 463 0 550 58 q 167 245 253 50 q 144 307 152 280 l 53 307 l 80 399 l 127 399 q 125 443 125 421 q 127 490 125 469 l 53 490 l 80 582 l 144 582 q 210 728 165 656 q 434 939 294 866 l 674 799 z "},"":{"ha":318,"x_min":52,"x_max":265,"o":"m 265 62 l 247 41 q 99 201 147 112 q 52 386 52 290 q 247 732 52 591 l 265 713 q 178 567 208 653 q 149 387 149 481 q 179 207 149 292 q 265 62 209 121 z "},"":{"ha":318,"x_min":53,"x_max":267,"o":"m 53 62 q 139 207 109 121 q 170 387 170 292 q 140 567 170 481 q 53 713 111 653 l 72 732 q 267 386 267 591 q 219 201 267 290 q 72 41 172 112 l 53 62 z "},"":{"ha":708,"x_min":30,"x_max":658,"o":"m 376 928 l 355 817 l 231 846 l 231 686 l 336 686 l 336 609 l 231 609 l 231 159 l 308 102 l 361 144 l 376 125 l 219 0 q 47 102 135 76 l 43 118 q 77 150 68 134 q 94 217 94 178 l 94 609 l 30 609 l 30 686 l 94 686 l 94 846 q 247 960 196 913 l 376 928 m 538 955 l 625 955 l 531 808 l 503 808 l 538 955 m 486 723 l 607 623 l 554 571 l 554 202 q 565 126 554 144 q 587 109 576 109 q 602 112 595 109 q 641 139 611 117 l 658 118 l 503 0 q 434 73 450 39 q 418 193 418 107 l 418 571 l 368 623 l 486 723 z "},"":{"ha":708,"x_min":30,"x_max":658,"o":"m 376 928 l 355 817 l 231 846 l 231 686 l 336 686 l 336 609 l 231 609 l 231 159 l 308 102 l 361 144 l 376 125 l 219 0 q 47 102 135 76 l 43 118 q 77 150 68 134 q 94 217 94 178 l 94 609 l 30 609 l 30 686 l 94 686 l 94 846 q 247 960 196 913 l 376 928 m 538 955 l 625 955 l 531 808 l 503 808 l 538 955 m 486 723 l 607 623 l 554 571 l 554 202 q 565 126 554 144 q 587 109 576 109 q 602 112 595 109 q 641 139 611 117 l 658 118 l 503 0 q 434 73 450 39 q 418 193 418 107 l 418 571 l 368 623 l 486 723 z "},"":{"ha":708,"x_min":31,"x_max":681,"o":"m 396 126 l 233 0 q 146 67 183 46 q 58 102 109 89 l 58 116 q 98 151 88 125 q 109 250 109 176 l 109 609 l 31 609 l 31 686 l 109 686 l 109 851 q 198 911 171 890 q 248 960 224 933 l 411 926 q 458 912 449 919 q 503 865 480 896 q 583 934 549 916 q 681 960 633 960 l 681 940 q 611 871 632 916 q 589 726 589 827 l 589 218 q 600 134 589 151 q 626 117 610 117 q 664 140 639 117 l 681 123 l 543 0 q 481 57 497 33 q 458 113 465 81 q 453 208 453 134 l 453 804 q 447 872 453 857 q 427 897 441 888 l 407 810 l 244 842 l 244 686 l 359 686 l 359 609 l 244 609 l 244 157 l 323 102 l 378 146 l 396 126 z "},"":{"ha":708,"x_min":31,"x_max":681,"o":"m 396 126 l 233 0 q 146 67 183 46 q 58 102 109 89 l 58 116 q 98 151 88 125 q 109 250 109 176 l 109 609 l 31 609 l 31 686 l 109 686 l 109 851 q 198 911 171 890 q 248 960 224 933 l 411 926 q 458 912 449 919 q 503 865 480 896 q 583 934 549 916 q 681 960 633 960 l 681 940 q 611 871 632 916 q 589 726 589 827 l 589 218 q 600 134 589 151 q 626 117 610 117 q 664 140 639 117 l 681 123 l 543 0 q 481 57 497 33 q 458 113 465 81 q 453 208 453 134 l 453 804 q 447 872 453 857 q 427 897 441 888 l 407 810 l 244 842 l 244 686 l 359 686 l 359 609 l 244 609 l 244 157 l 323 102 l 378 146 l 396 126 z "},"":{"ha":708,"x_min":35,"x_max":674,"o":"m 574 528 q 372 614 484 608 q 462 391 379 491 q 401 291 422 347 q 372 160 379 236 q 574 246 471 165 l 674 142 l 574 40 q 474 100 521 81 q 372 125 428 119 q 465 -125 381 -26 l 354 -229 l 245 -125 q 307 -18 285 -77 q 335 125 329 41 q 135 40 232 117 l 35 142 l 135 246 q 335 160 229 164 q 245 391 324 298 q 335 614 324 477 q 135 528 228 608 l 35 631 l 135 735 q 230 674 176 697 q 335 648 284 651 q 308 786 330 726 q 245 901 287 846 l 354 1002 l 462 901 q 372 648 380 811 q 574 735 481 656 l 671 631 l 574 528 z "},"":{"ha":390,"x_min":92,"x_max":298,"o":"m 195 367 l 92 470 l 195 574 l 298 470 l 195 367 z "},"":{"ha":390,"x_min":92,"x_max":298,"o":"m 195 367 l 92 470 l 195 574 l 298 470 l 195 367 z "},"":{"ha":390,"x_min":94,"x_max":294,"o":"m 94 107 l 194 207 l 294 113 q 110 -122 256 -52 l 94 -98 q 148 -46 138 -62 q 163 5 163 -20 q 150 50 163 27 q 94 107 136 73 z "},"":{"ha":623,"x_min":94,"x_max":564,"o":"m 94 107 l 194 207 l 294 113 q 110 -122 256 -52 l 94 -98 q 148 -46 138 -62 q 163 5 163 -20 q 150 50 163 27 q 94 107 136 73 m 363 107 l 464 207 l 564 113 q 380 -122 526 -52 l 363 -98 q 418 -46 408 -62 q 433 5 433 -20 q 419 50 433 27 q 363 107 406 73 z "},"":{"ha":1402,"x_min":44,"x_max":1363,"o":"m 208 -46 l 109 -46 l 726 943 l 825 943 l 208 -46 m 242 431 q 97 526 150 460 q 44 670 44 593 q 98 823 44 749 q 242 939 151 897 q 337 888 305 913 q 413 801 387 848 q 439 701 439 753 q 411 592 439 647 q 337 494 383 537 q 242 431 305 465 m 306 522 q 342 589 332 560 q 352 651 352 617 q 308 764 352 711 q 178 845 264 817 q 130 716 130 794 q 171 605 130 655 q 306 522 212 554 m 1166 0 q 1021 96 1074 29 q 968 239 968 162 q 1022 392 968 318 q 1166 508 1076 467 q 1261 457 1229 482 q 1337 370 1311 418 q 1363 270 1363 322 q 1335 162 1363 216 q 1261 64 1308 107 q 1166 0 1230 35 m 1230 92 q 1266 158 1257 130 q 1276 220 1276 186 q 1233 333 1276 280 q 1102 414 1189 387 q 1055 286 1055 363 q 1095 174 1055 224 q 1230 92 1136 123 m 715 0 q 569 96 623 29 q 516 239 516 162 q 570 392 516 318 q 715 508 623 467 q 809 457 777 482 q 885 370 859 418 q 911 270 911 322 q 883 162 911 216 q 809 64 855 107 q 715 0 777 35 m 779 92 q 814 158 804 130 q 825 220 825 186 q 781 333 825 280 q 650 414 736 387 q 602 286 602 363 q 643 174 602 224 q 779 92 684 123 z "},"":{"ha":1013,"x_min":60,"x_max":979,"o":"m 942 1027 l 955 996 q 883 949 906 972 q 850 897 859 926 q 840 811 840 868 q 841 762 840 793 l 852 256 q 870 146 854 172 q 898 128 882 128 q 959 168 918 128 l 979 142 l 852 35 l 810 0 q 734 66 757 25 q 709 199 711 108 l 446 0 q 148 144 227 144 q 115 132 128 144 q 104 107 104 123 q 117 68 104 90 q 134 31 134 40 q 125 9 134 18 q 102 0 115 0 q 75 14 85 0 q 60 61 60 32 q 78 134 60 94 q 134 222 97 174 q 147 241 141 232 l 244 373 q 106 515 146 447 q 66 667 66 583 q 116 848 66 764 q 266 979 166 931 q 472 1027 366 1027 q 785 915 634 1027 q 855 978 821 954 q 942 1027 889 1003 m 608 870 q 438 912 523 912 q 269 872 348 912 q 150 770 189 833 q 111 642 111 707 q 261 395 111 503 l 488 705 q 396 733 437 733 q 304 680 340 733 q 290 669 297 669 q 282 673 286 669 q 279 684 279 677 q 300 742 279 705 q 363 802 321 779 q 451 825 405 825 q 559 802 498 825 l 608 870 m 696 800 q 669 828 676 822 q 635 853 665 833 l 339 449 l 704 449 l 696 800 m 266 350 l 205 265 l 549 117 l 709 235 l 707 350 l 266 350 m 513 1101 l 472 1101 l 600 1354 l 747 1354 l 872 1101 l 831 1101 l 673 1246 l 513 1101 z "},"":{"ha":1013,"x_min":71,"x_max":987,"o":"m 392 928 l 406 907 q 240 742 293 836 q 186 543 186 649 q 280 281 186 406 q 328 335 319 313 q 336 449 336 357 l 336 761 l 632 1014 q 771 958 715 974 q 883 943 828 943 q 954 949 911 943 l 970 928 l 736 692 l 920 692 l 846 562 l 588 562 l 588 122 l 631 120 q 823 168 728 120 q 970 281 895 204 l 987 255 q 813 73 908 132 q 549 0 697 0 q 179 161 315 0 q 71 462 71 290 q 115 662 71 569 q 239 827 159 754 q 392 928 296 879 m 557 895 l 474 826 l 474 511 q 468 439 474 459 q 441 395 463 418 q 298 260 397 342 q 415 167 357 197 q 557 125 473 136 l 557 895 m 817 819 q 700 843 745 829 q 588 890 654 857 l 588 587 l 817 819 m 411 1080 l 370 1080 l 498 1334 l 645 1334 l 770 1080 l 730 1080 l 572 1226 l 411 1080 z "},"":{"ha":1013,"x_min":60,"x_max":979,"o":"m 942 1027 l 955 996 q 883 949 906 972 q 850 897 859 926 q 840 811 840 868 q 841 762 840 793 l 852 256 q 870 146 854 172 q 898 128 882 128 q 959 168 918 128 l 979 142 l 852 35 l 810 0 q 734 66 757 25 q 709 199 711 108 l 446 0 q 148 144 227 144 q 115 132 128 144 q 104 107 104 123 q 117 68 104 90 q 134 31 134 40 q 125 9 134 18 q 102 0 115 0 q 75 14 85 0 q 60 61 60 32 q 78 134 60 94 q 134 222 97 174 q 147 241 141 232 l 244 373 q 106 515 146 447 q 66 667 66 583 q 116 848 66 764 q 266 979 166 931 q 472 1027 366 1027 q 785 915 634 1027 q 855 978 821 954 q 942 1027 889 1003 m 608 870 q 438 912 523 912 q 269 872 348 912 q 150 770 189 833 q 111 642 111 707 q 261 395 111 503 l 488 705 q 396 733 437 733 q 304 680 340 733 q 290 669 297 669 q 282 673 286 669 q 279 684 279 677 q 300 742 279 705 q 363 802 321 779 q 451 825 405 825 q 559 802 498 825 l 608 870 m 696 800 q 669 828 676 822 q 635 853 665 833 l 339 449 l 704 449 l 696 800 m 266 350 l 205 265 l 549 117 l 709 235 l 707 350 l 266 350 m 607 1099 l 570 1099 l 631 1352 l 789 1352 l 607 1099 z "},"":{"ha":1013,"x_min":71,"x_max":987,"o":"m 392 928 l 406 907 q 240 742 293 836 q 186 543 186 649 q 280 281 186 406 q 328 335 319 313 q 336 449 336 357 l 336 761 l 632 1014 q 771 958 715 974 q 883 943 828 943 q 954 949 911 943 l 970 928 l 736 692 l 920 692 l 846 562 l 588 562 l 588 122 l 631 120 q 823 168 728 120 q 970 281 895 204 l 987 255 q 813 73 908 132 q 549 0 697 0 q 179 161 315 0 q 71 462 71 290 q 115 662 71 569 q 239 827 159 754 q 392 928 296 879 m 557 895 l 474 826 l 474 511 q 468 439 474 459 q 441 395 463 418 q 298 260 397 342 q 415 167 357 197 q 557 125 473 136 l 557 895 m 817 819 q 700 843 745 829 q 588 890 654 857 l 588 587 l 817 819 m 706 1123 l 632 1197 l 706 1272 l 781 1197 l 706 1123 m 435 1123 l 361 1197 l 435 1272 l 509 1197 l 435 1123 z "},"":{"ha":1013,"x_min":71,"x_max":987,"o":"m 392 928 l 406 907 q 240 742 293 836 q 186 543 186 649 q 280 281 186 406 q 328 335 319 313 q 336 449 336 357 l 336 761 l 632 1014 q 771 958 715 974 q 883 943 828 943 q 954 949 911 943 l 970 928 l 736 692 l 920 692 l 846 562 l 588 562 l 588 122 l 631 120 q 823 168 728 120 q 970 281 895 204 l 987 255 q 813 73 908 132 q 549 0 697 0 q 179 161 315 0 q 71 462 71 290 q 115 662 71 569 q 239 827 159 754 q 392 928 296 879 m 557 895 l 474 826 l 474 511 q 468 439 474 459 q 441 395 463 418 q 298 260 397 342 q 415 167 357 197 q 557 125 473 136 l 557 895 m 817 819 q 700 843 745 829 q 588 890 654 857 l 588 587 l 817 819 m 737 1079 l 556 1332 l 713 1332 l 775 1079 l 737 1079 z "},"":{"ha":854,"x_min":37,"x_max":810,"o":"m 799 1027 l 810 1004 q 712 948 739 983 q 685 854 685 913 q 717 595 685 781 q 747 406 743 446 q 752 323 752 366 q 712 143 752 216 q 610 38 672 71 q 496 5 547 5 q 318 44 443 5 q 177 75 219 75 q 106 53 135 75 q 62 -10 77 32 l 37 0 q 79 99 53 64 q 153 163 114 145 q 267 186 192 182 q 368 218 341 190 q 395 304 395 245 q 349 484 395 422 q 259 529 315 529 q 212 519 236 529 q 147 479 188 509 l 127 496 q 212 588 163 557 q 324 618 260 618 q 347 618 334 618 q 379 799 349 728 q 491 962 408 870 q 388 916 410 923 q 340 909 366 909 q 278 916 319 909 q 218 924 238 924 q 145 903 170 924 q 113 836 120 882 l 87 842 q 136 960 99 917 q 278 1019 189 1019 q 340 1011 304 1019 q 453 997 407 997 q 516 1003 489 997 q 582 1027 543 1009 l 599 1008 q 500 890 528 949 q 473 724 473 831 q 477 626 473 668 q 494 503 478 607 q 514 330 514 371 q 467 210 514 252 q 355 162 433 178 q 466 76 434 93 q 529 59 497 59 q 606 92 574 59 q 637 178 637 125 q 607 420 637 241 q 570 734 570 630 q 598 890 570 832 q 680 985 625 948 q 799 1027 720 1013 m 539 1113 l 502 1113 l 563 1366 l 721 1366 l 539 1113 z "},"":{"ha":854,"x_min":37,"x_max":810,"o":"m 799 1027 l 810 1004 q 712 948 739 983 q 685 854 685 913 q 717 595 685 781 q 747 406 743 446 q 752 323 752 366 q 712 143 752 216 q 610 38 672 71 q 496 5 547 5 q 318 44 443 5 q 177 75 219 75 q 106 53 135 75 q 62 -10 77 32 l 37 0 q 79 99 53 64 q 153 163 114 145 q 267 186 192 182 q 368 218 341 190 q 395 304 395 245 q 349 484 395 422 q 259 529 315 529 q 212 519 236 529 q 147 479 188 509 l 127 496 q 212 588 163 557 q 324 618 260 618 q 347 618 334 618 q 379 799 349 728 q 491 962 408 870 q 388 916 410 923 q 340 909 366 909 q 278 916 319 909 q 218 924 238 924 q 145 903 170 924 q 113 836 120 882 l 87 842 q 136 960 99 917 q 278 1019 189 1019 q 340 1011 304 1019 q 453 997 407 997 q 516 1003 489 997 q 582 1027 543 1009 l 599 1008 q 500 890 528 949 q 473 724 473 831 q 477 626 473 668 q 494 503 478 607 q 514 330 514 371 q 467 210 514 252 q 355 162 433 178 q 466 76 434 93 q 529 59 497 59 q 606 92 574 59 q 637 178 637 125 q 607 420 637 241 q 570 734 570 630 q 598 890 570 832 q 680 985 625 948 q 799 1027 720 1013 m 411 1080 l 370 1080 l 498 1334 l 645 1334 l 770 1080 l 730 1080 l 572 1226 l 411 1080 z "},"":{"ha":854,"x_min":37,"x_max":810,"o":"m 799 1027 l 810 1004 q 712 948 739 983 q 685 854 685 913 q 717 595 685 781 q 747 406 743 446 q 752 323 752 366 q 712 143 752 216 q 610 38 672 71 q 496 5 547 5 q 318 44 443 5 q 177 75 219 75 q 106 53 135 75 q 62 -10 77 32 l 37 0 q 79 99 53 64 q 153 163 114 145 q 267 186 192 182 q 368 218 341 190 q 395 304 395 245 q 349 484 395 422 q 259 529 315 529 q 212 519 236 529 q 147 479 188 509 l 127 496 q 212 588 163 557 q 324 618 260 618 q 347 618 334 618 q 379 799 349 728 q 491 962 408 870 q 388 916 410 923 q 340 909 366 909 q 278 916 319 909 q 218 924 238 924 q 145 903 170 924 q 113 836 120 882 l 87 842 q 136 960 99 917 q 278 1019 189 1019 q 340 1011 304 1019 q 453 997 407 997 q 516 1003 489 997 q 582 1027 543 1009 l 599 1008 q 500 890 528 949 q 473 724 473 831 q 477 626 473 668 q 494 503 478 607 q 514 330 514 371 q 467 210 514 252 q 355 162 433 178 q 466 76 434 93 q 529 59 497 59 q 606 92 574 59 q 637 178 637 125 q 607 420 637 241 q 570 734 570 630 q 598 890 570 832 q 680 985 625 948 q 799 1027 720 1013 m 706 1123 l 632 1197 l 706 1272 l 781 1197 l 706 1123 m 435 1123 l 361 1197 l 435 1272 l 509 1197 l 435 1123 z "},"":{"ha":854,"x_min":37,"x_max":810,"o":"m 799 1027 l 810 1004 q 712 948 739 983 q 685 854 685 913 q 717 595 685 781 q 747 406 743 446 q 752 323 752 366 q 712 143 752 216 q 610 38 672 71 q 496 5 547 5 q 318 44 443 5 q 177 75 219 75 q 106 53 135 75 q 62 -10 77 32 l 37 0 q 79 99 53 64 q 153 163 114 145 q 267 186 192 182 q 368 218 341 190 q 395 304 395 245 q 349 484 395 422 q 259 529 315 529 q 212 519 236 529 q 147 479 188 509 l 127 496 q 212 588 163 557 q 324 618 260 618 q 347 618 334 618 q 379 799 349 728 q 491 962 408 870 q 388 916 410 923 q 340 909 366 909 q 278 916 319 909 q 218 924 238 924 q 145 903 170 924 q 113 836 120 882 l 87 842 q 136 960 99 917 q 278 1019 189 1019 q 340 1011 304 1019 q 453 997 407 997 q 516 1003 489 997 q 582 1027 543 1009 l 599 1008 q 500 890 528 949 q 473 724 473 831 q 477 626 473 668 q 494 503 478 607 q 514 330 514 371 q 467 210 514 252 q 355 162 433 178 q 466 76 434 93 q 529 59 497 59 q 606 92 574 59 q 637 178 637 125 q 607 420 637 241 q 570 734 570 630 q 598 890 570 832 q 680 985 625 948 q 799 1027 720 1013 m 635 1113 l 454 1366 l 612 1366 l 673 1113 l 635 1113 z "},"":{"ha":1173,"x_min":49,"x_max":1123,"o":"m 602 1014 q 787 980 720 1002 q 963 889 887 948 q 1081 751 1038 831 q 1123 577 1123 671 q 1078 406 1123 490 q 925 217 1034 322 q 705 56 816 112 q 489 0 595 0 q 270 56 376 0 q 106 211 164 113 q 49 429 49 310 q 63 561 49 498 q 113 708 77 625 q 270 800 180 741 q 513 954 318 831 q 602 1014 553 979 m 551 879 q 460 883 505 882 l 460 482 q 451 391 460 417 q 418 338 442 366 l 293 217 q 413 140 357 163 q 551 112 470 117 l 551 879 m 580 698 q 672 637 629 656 q 768 618 716 618 q 856 637 815 618 q 941 698 896 656 q 869 772 902 748 q 738 842 808 817 q 580 877 667 867 l 580 698 m 321 794 q 238 722 263 751 q 182 628 205 684 q 160 506 160 572 q 271 238 160 362 q 311 296 302 267 q 321 409 321 325 l 321 794 m 580 415 q 670 481 628 463 q 766 500 711 500 q 870 480 824 500 q 969 410 916 460 q 987 526 987 477 q 981 606 987 572 q 958 668 975 631 q 856 603 899 621 q 760 586 812 586 q 671 602 711 586 q 580 659 631 618 l 580 415 m 580 112 q 719 140 665 117 q 860 235 800 174 q 958 382 920 296 q 767 470 865 470 q 659 439 710 470 q 580 366 621 418 l 580 112 m 573 1113 l 536 1113 l 597 1366 l 755 1366 l 573 1113 z "},"":{"ha":1173,"x_min":49,"x_max":1123,"o":"m 602 1014 q 787 980 720 1002 q 963 889 887 948 q 1081 751 1038 831 q 1123 577 1123 671 q 1078 406 1123 490 q 925 217 1034 322 q 705 56 816 112 q 489 0 595 0 q 270 56 376 0 q 106 211 164 113 q 49 429 49 310 q 63 561 49 498 q 113 708 77 625 q 270 800 180 741 q 513 954 318 831 q 602 1014 553 979 m 551 879 q 460 883 505 882 l 460 482 q 451 391 460 417 q 418 338 442 366 l 293 217 q 413 140 357 163 q 551 112 470 117 l 551 879 m 580 698 q 672 637 629 656 q 768 618 716 618 q 856 637 815 618 q 941 698 896 656 q 869 772 902 748 q 738 842 808 817 q 580 877 667 867 l 580 698 m 321 794 q 238 722 263 751 q 182 628 205 684 q 160 506 160 572 q 271 238 160 362 q 311 296 302 267 q 321 409 321 325 l 321 794 m 580 415 q 670 481 628 463 q 766 500 711 500 q 870 480 824 500 q 969 410 916 460 q 987 526 987 477 q 981 606 987 572 q 958 668 975 631 q 856 603 899 621 q 760 586 812 586 q 671 602 711 586 q 580 659 631 618 l 580 415 m 580 112 q 719 140 665 117 q 860 235 800 174 q 958 382 920 296 q 767 470 865 470 q 659 439 710 470 q 580 366 621 418 l 580 112 m 411 1080 l 370 1080 l 498 1334 l 645 1334 l 770 1080 l 730 1080 l 572 1226 l 411 1080 z "},"":{"ha":1173,"x_min":49,"x_max":1123,"o":"m 602 1014 q 787 980 720 1002 q 963 889 887 948 q 1081 751 1038 831 q 1123 577 1123 671 q 1078 406 1123 490 q 925 217 1034 322 q 705 56 816 112 q 489 0 595 0 q 270 56 376 0 q 106 211 164 113 q 49 429 49 310 q 63 561 49 498 q 113 708 77 625 q 270 800 180 741 q 513 954 318 831 q 602 1014 553 979 m 551 879 q 460 883 505 882 l 460 482 q 451 391 460 417 q 418 338 442 366 l 293 217 q 413 140 357 163 q 551 112 470 117 l 551 879 m 580 698 q 672 637 629 656 q 768 618 716 618 q 856 637 815 618 q 941 698 896 656 q 869 772 902 748 q 738 842 808 817 q 580 877 667 867 l 580 698 m 321 794 q 238 722 263 751 q 182 628 205 684 q 160 506 160 572 q 271 238 160 362 q 311 296 302 267 q 321 409 321 325 l 321 794 m 580 415 q 670 481 628 463 q 766 500 711 500 q 870 480 824 500 q 969 410 916 460 q 987 526 987 477 q 981 606 987 572 q 958 668 975 631 q 856 603 899 621 q 760 586 812 586 q 671 602 711 586 q 580 659 631 618 l 580 415 m 580 112 q 719 140 665 117 q 860 235 800 174 q 958 382 920 296 q 767 470 865 470 q 659 439 710 470 q 580 366 621 418 l 580 112 m 660 1113 l 479 1366 l 636 1366 l 698 1113 l 660 1113 z "},"":{"ha":1172,"x_min":33,"x_max":1141,"o":"m 1101 991 l 1122 971 q 1050 866 1064 899 q 1036 768 1036 833 l 1036 286 q 1053 159 1036 185 q 1093 132 1070 132 q 1131 153 1111 132 l 1141 113 l 998 0 q 919 71 939 37 q 895 188 900 105 q 691 43 787 85 q 483 0 595 0 q 165 149 276 0 q 83 406 83 260 q 130 609 83 515 q 273 790 178 703 q 448 915 338 849 q 319 894 362 894 q 251 897 289 894 q 188 901 213 901 q 98 866 131 901 q 65 770 65 831 q 69 714 65 748 l 41 714 q 33 793 33 762 q 89 964 33 901 q 222 1027 145 1027 q 262 1023 243 1027 q 343 996 275 1021 q 467 971 412 971 q 559 989 516 971 q 611 1027 582 999 l 642 1027 l 642 648 q 774 610 711 610 q 832 617 806 610 q 895 648 857 625 l 895 844 l 818 900 l 740 815 l 718 836 l 882 1019 l 1026 915 l 1101 991 m 611 960 q 556 879 568 915 q 545 737 545 843 l 545 422 q 537 346 545 371 q 500 283 527 314 q 359 163 460 237 q 450 117 408 130 q 551 103 493 103 q 611 108 580 103 l 611 960 m 332 185 q 391 275 377 233 q 405 425 405 317 l 405 627 q 409 728 405 705 q 431 783 414 752 q 536 922 462 836 q 365 802 429 860 q 259 657 300 745 q 218 463 218 570 q 253 291 218 368 q 332 185 277 238 m 895 611 q 828 584 854 591 q 770 577 802 577 q 642 611 711 577 l 642 453 q 772 485 714 485 q 895 453 828 485 l 895 611 m 895 420 q 772 454 827 454 q 710 446 739 454 q 642 416 682 438 l 642 113 q 765 154 709 127 q 895 233 821 180 l 895 420 m 593 1113 l 556 1113 l 617 1366 l 775 1366 l 593 1113 z "},"":{"ha":1172,"x_min":33,"x_max":1141,"o":"m 1101 991 l 1122 971 q 1050 866 1064 899 q 1036 768 1036 833 l 1036 286 q 1053 159 1036 185 q 1093 132 1070 132 q 1131 153 1111 132 l 1141 113 l 998 0 q 919 71 939 37 q 895 188 900 105 q 691 43 787 85 q 483 0 595 0 q 165 149 276 0 q 83 406 83 260 q 130 609 83 515 q 273 790 178 703 q 448 915 338 849 q 319 894 362 894 q 251 897 289 894 q 188 901 213 901 q 98 866 131 901 q 65 770 65 831 q 69 714 65 748 l 41 714 q 33 793 33 762 q 89 964 33 901 q 222 1027 145 1027 q 262 1023 243 1027 q 343 996 275 1021 q 467 971 412 971 q 559 989 516 971 q 611 1027 582 999 l 642 1027 l 642 648 q 774 610 711 610 q 832 617 806 610 q 895 648 857 625 l 895 844 l 818 900 l 740 815 l 718 836 l 882 1019 l 1026 915 l 1101 991 m 611 960 q 556 879 568 915 q 545 737 545 843 l 545 422 q 537 346 545 371 q 500 283 527 314 q 359 163 460 237 q 450 117 408 130 q 551 103 493 103 q 611 108 580 103 l 611 960 m 332 185 q 391 275 377 233 q 405 425 405 317 l 405 627 q 409 728 405 705 q 431 783 414 752 q 536 922 462 836 q 365 802 429 860 q 259 657 300 745 q 218 463 218 570 q 253 291 218 368 q 332 185 277 238 m 895 611 q 828 584 854 591 q 770 577 802 577 q 642 611 711 577 l 642 453 q 772 485 714 485 q 895 453 828 485 l 895 611 m 895 420 q 772 454 827 454 q 710 446 739 454 q 642 416 682 438 l 642 113 q 765 154 709 127 q 895 233 821 180 l 895 420 m 458 1067 l 418 1067 l 546 1320 l 692 1320 l 818 1067 l 777 1067 l 619 1213 l 458 1067 z "},"":{"ha":1172,"x_min":33,"x_max":1141,"o":"m 1101 991 l 1122 971 q 1050 866 1064 899 q 1036 768 1036 833 l 1036 286 q 1053 159 1036 185 q 1093 132 1070 132 q 1131 153 1111 132 l 1141 113 l 998 0 q 919 71 939 37 q 895 188 900 105 q 691 43 787 85 q 483 0 595 0 q 165 149 276 0 q 83 406 83 260 q 130 609 83 515 q 273 790 178 703 q 448 915 338 849 q 319 894 362 894 q 251 897 289 894 q 188 901 213 901 q 98 866 131 901 q 65 770 65 831 q 69 714 65 748 l 41 714 q 33 793 33 762 q 89 964 33 901 q 222 1027 145 1027 q 262 1023 243 1027 q 343 996 275 1021 q 467 971 412 971 q 559 989 516 971 q 611 1027 582 999 l 642 1027 l 642 648 q 774 610 711 610 q 832 617 806 610 q 895 648 857 625 l 895 844 l 818 900 l 740 815 l 718 836 l 882 1019 l 1026 915 l 1101 991 m 611 960 q 556 879 568 915 q 545 737 545 843 l 545 422 q 537 346 545 371 q 500 283 527 314 q 359 163 460 237 q 450 117 408 130 q 551 103 493 103 q 611 108 580 103 l 611 960 m 332 185 q 391 275 377 233 q 405 425 405 317 l 405 627 q 409 728 405 705 q 431 783 414 752 q 536 922 462 836 q 365 802 429 860 q 259 657 300 745 q 218 463 218 570 q 253 291 218 368 q 332 185 277 238 m 895 611 q 828 584 854 591 q 770 577 802 577 q 642 611 711 577 l 642 453 q 772 485 714 485 q 895 453 828 485 l 895 611 m 895 420 q 772 454 827 454 q 710 446 739 454 q 642 416 682 438 l 642 113 q 765 154 709 127 q 895 233 821 180 l 895 420 m 703 1113 l 522 1366 l 680 1366 l 741 1113 l 703 1113 z "},"":{"ha":390,"x_min":56,"x_max":347,"o":"m 176 723 l 296 623 l 243 571 l 243 202 q 254 126 243 144 q 276 109 264 109 q 291 112 284 109 q 330 139 300 117 l 347 118 l 193 0 q 123 73 138 39 q 107 193 107 107 l 107 571 l 56 623 l 176 723 z "},"":{"ha":463,"x_min":31,"x_max":431,"o":"m 72 775 l 31 775 l 159 1029 l 306 1029 l 431 775 l 391 775 l 233 921 l 72 775 z "},"":{"ha":463,"x_min":13,"x_max":450,"o":"m 41 815 l 13 815 q 49 924 23 889 q 149 981 89 981 q 191 974 167 981 q 248 951 205 970 q 355 918 321 918 q 395 932 377 918 q 425 980 412 945 l 450 980 q 402 856 441 896 q 308 816 363 816 q 201 846 267 816 q 106 876 135 876 q 69 862 85 876 q 41 815 52 848 z "},"":{"ha":463,"x_min":25,"x_max":437,"o":"m 437 845 l 25 845 l 25 936 l 437 936 l 437 845 z "},"":{"ha":463,"x_min":25,"x_max":437,"o":"m 437 845 l 25 845 l 25 936 l 437 936 l 437 845 z "},"":{"ha":463,"x_min":32,"x_max":431,"o":"m 32 1025 l 58 1025 q 123 925 78 960 q 230 890 168 890 q 340 927 294 890 q 403 1025 387 963 l 431 1025 q 372 847 422 922 q 231 772 322 772 q 107 827 155 772 q 32 1025 42 900 z "},"":{"ha":463,"x_min":157,"x_max":306,"o":"m 232 852 l 157 926 l 232 1000 l 306 926 l 232 852 z "},"":{"ha":463,"x_min":118,"x_max":345,"o":"m 231 1008 q 312 975 279 1008 q 345 895 345 942 q 311 815 345 848 q 231 782 278 782 q 151 815 184 782 q 118 895 118 848 q 151 975 118 942 q 231 1008 184 1008 m 231 969 q 178 947 200 969 q 157 895 157 926 q 179 843 157 865 q 231 821 201 821 q 284 843 262 821 q 306 895 306 865 q 284 947 306 926 q 231 969 262 969 z "},"":{"ha":463,"x_min":106,"x_max":384,"o":"m 155 -70 l 203 -16 q 272 0 244 0 q 353 -30 321 0 q 384 -103 384 -60 q 341 -190 384 -155 q 205 -226 298 -226 q 106 -217 155 -226 l 117 -195 q 175 -199 166 -199 q 247 -177 220 -199 q 274 -130 274 -155 q 251 -86 274 -105 q 186 -66 227 -66 q 155 -70 175 -66 z "},"":{"ha":463,"x_min":92,"x_max":513,"o":"m 130 774 l 92 774 l 153 1025 l 311 1025 l 130 774 m 332 774 l 294 774 l 355 1025 l 513 1025 l 332 774 z "},"":{"ha":463,"x_min":79,"x_max":385,"o":"m 161 12 l 191 12 q 151 -66 151 -33 q 193 -150 151 -110 q 288 -189 235 -189 q 374 -161 331 -189 l 385 -178 q 214 -252 297 -252 q 116 -218 153 -252 q 79 -134 79 -184 q 97 -67 79 -100 q 161 12 115 -33 z "},"":{"ha":463,"x_min":31,"x_max":431,"o":"m 391 1029 l 431 1029 l 303 775 l 157 775 l 31 1029 l 71 1029 l 230 884 l 391 1029 z "},"":{"ha":1173,"x_min":22,"x_max":1115,"o":"m 436 1014 l 743 911 l 766 951 q 783 978 778 973 q 795 983 788 983 q 806 979 802 983 q 810 968 810 974 q 794 930 810 958 l 651 683 l 763 687 q 886 672 816 689 q 1007 620 956 655 q 1086 535 1057 584 q 1115 429 1115 487 q 1025 218 1115 321 q 705 0 935 115 q 521 68 626 33 q 204 -24 327 -24 q 70 14 117 -24 q 22 102 22 52 q 79 200 22 156 q 248 245 136 245 q 358 235 292 245 l 409 328 l 313 323 q 218 333 278 323 q 120 368 159 344 q 63 426 82 391 q 44 498 44 460 q 87 606 44 559 q 176 659 114 635 l 176 667 q 232 812 176 730 q 436 1014 288 894 m 682 803 q 515 874 575 856 q 410 892 456 892 q 307 856 347 892 q 267 772 267 820 q 301 694 267 724 q 404 663 335 663 q 612 680 450 663 l 682 803 m 537 551 q 368 541 450 541 q 237 562 275 541 q 179 630 198 584 q 130 553 130 599 q 168 484 130 511 q 340 448 218 448 q 483 456 396 448 l 537 551 m 521 458 q 746 477 683 477 q 878 438 832 477 q 923 345 923 399 q 879 252 923 297 q 692 146 834 208 l 826 104 q 963 223 915 159 q 1011 363 1011 287 q 981 462 1011 414 q 888 539 951 511 q 745 568 826 568 q 576 555 679 568 l 521 458 m 389 230 q 499 205 456 216 q 650 159 541 193 q 800 299 800 229 q 781 338 800 321 q 732 356 762 356 q 642 348 695 356 q 446 328 492 328 l 389 230 m 475 83 q 194 135 302 135 q 106 111 138 135 q 83 71 83 94 q 106 31 83 45 q 208 6 141 6 q 475 83 311 6 m 696 1320 l 736 1320 l 608 1067 l 462 1067 l 336 1320 l 376 1320 l 535 1175 l 696 1320 z "},"":{"ha":628,"x_min":21,"x_max":589,"o":"m 399 471 l 556 389 l 556 104 q 453 76 499 98 q 349 0 407 54 q 261 41 298 30 q 183 53 224 53 q 70 14 119 53 q 43 0 52 0 q 28 7 36 0 q 21 22 21 15 q 35 44 21 31 q 63 75 43 52 l 125 152 l 212 268 l 64 348 l 64 601 q 173 649 134 623 q 250 723 213 676 q 389 671 336 686 q 462 661 427 661 q 521 678 500 661 q 542 713 542 694 q 528 737 542 725 q 502 783 502 761 q 513 817 502 804 q 539 829 525 829 q 573 812 558 829 q 589 766 589 795 q 576 709 589 737 q 530 637 564 682 l 399 471 m 201 425 l 294 376 l 441 573 q 363 560 396 560 q 201 616 279 560 l 201 425 m 317 363 l 154 144 q 210 159 184 154 q 256 163 235 163 q 418 112 334 163 l 418 309 l 317 363 m 465 1029 l 506 1029 l 378 775 l 231 775 l 106 1029 l 146 1029 l 304 884 l 465 1029 z "},"":{"ha":786,"x_min":328,"x_max":454,"o":"m 328 967 l 454 967 l 454 473 l 328 473 l 328 967 m 328 306 l 454 306 l 454 -188 l 328 -188 l 328 306 z "},"":{"ha":1173,"x_min":25,"x_max":1088,"o":"m 77 524 l 252 524 q 302 689 262 629 q 455 817 342 749 q 264 808 341 808 q 80 857 135 808 q 25 993 25 905 l 25 1007 l 51 1007 q 85 959 62 972 q 201 939 121 939 q 409 946 231 939 q 663 954 587 954 q 848 924 777 954 q 966 840 920 894 q 1037 706 1013 785 q 1072 498 1061 627 q 1088 145 1086 310 q 881 0 1006 99 q 652 46 729 35 q 507 58 574 58 q 94 -52 286 58 l 77 -29 q 399 187 305 96 q 470 285 453 239 q 488 435 488 331 q 486 469 488 447 l 381 469 l 381 442 q 369 306 381 351 q 321 215 356 261 q 219 117 286 169 q 55 0 200 101 l 37 24 q 167 135 134 88 q 200 233 200 182 q 178 292 200 268 q 125 316 155 316 q 51 265 82 316 l 32 285 q 91 369 56 343 q 168 395 126 395 q 210 388 189 395 q 250 364 230 380 l 248 433 q 250 469 248 446 l 77 469 l 77 524 m 644 559 q 715 520 674 534 q 793 507 755 507 q 925 559 850 507 q 844 767 911 715 q 677 819 778 819 l 644 817 l 644 559 m 568 817 q 532 747 543 785 q 513 606 521 709 l 517 532 l 517 524 l 583 524 l 583 469 l 517 469 l 519 376 q 420 168 519 267 q 511 178 488 177 l 612 182 l 612 817 l 568 817 m 486 524 l 486 625 q 500 736 486 684 q 536 817 509 769 l 517 817 q 420 743 456 786 q 388 681 395 713 q 381 553 381 649 l 381 524 l 486 524 m 644 330 q 740 371 715 364 q 801 378 765 378 q 858 372 834 378 q 945 335 882 366 l 930 524 q 779 477 858 477 q 723 486 748 477 q 644 524 697 494 l 644 330 m 644 181 q 802 160 759 168 q 945 124 844 152 l 945 294 q 876 334 912 321 q 800 347 840 347 q 724 334 763 347 q 644 294 684 321 l 644 181 z "},"":{"ha":636,"x_min":39,"x_max":546,"o":"m 39 823 l 39 956 l 232 823 l 342 884 l 359 851 l 264 798 l 546 604 l 546 121 q 327 0 404 73 q 54 110 216 83 l 54 121 q 80 151 73 134 q 92 227 92 179 l 92 604 q 191 642 163 627 q 244 683 218 656 l 158 740 l 54 683 l 39 716 l 125 764 l 39 823 m 408 111 l 408 569 l 286 653 q 232 610 267 631 l 232 186 l 408 111 z "},"":{"ha":1100,"x_min":41,"x_max":1029,"o":"m 83 943 l 68 969 q 145 1020 116 1008 q 214 1032 175 1032 q 317 1010 269 1032 q 393 952 366 988 q 428 869 414 924 q 597 971 528 943 q 732 1000 667 1000 q 941 899 852 1000 q 1029 622 1029 799 q 996 431 1029 521 q 896 282 962 340 q 741 199 830 224 q 589 174 652 174 l 302 180 q 180 158 237 180 q 98 101 123 137 q 72 23 72 65 q 112 -68 72 -31 q 208 -106 151 -106 q 271 -98 238 -106 q 395 -50 303 -89 q 614 8 527 8 q 755 -34 703 8 q 795 -119 795 -66 q 777 -169 795 -150 q 732 -187 759 -187 q 694 -170 710 -187 q 678 -127 678 -153 q 693 -79 678 -106 q 703 -56 703 -63 q 695 -41 703 -47 q 665 -33 684 -33 q 616 -42 642 -33 q 519 -92 589 -52 q 363 -168 420 -148 q 260 -187 307 -187 q 104 -127 168 -187 q 41 15 41 -66 q 101 150 41 94 q 290 213 162 205 q 290 234 290 227 q 257 368 290 311 q 170 453 224 425 q 83 472 136 471 l 83 496 q 133 501 113 501 q 213 489 177 501 q 290 448 249 477 q 291 482 291 467 q 240 619 291 565 q 118 673 189 673 q 76 670 102 673 l 76 696 q 162 720 120 720 q 220 711 193 720 q 290 675 247 702 q 290 734 290 710 q 250 916 290 864 q 154 967 210 967 q 83 943 119 967 m 535 711 q 612 659 577 673 q 690 645 646 645 q 777 662 737 645 q 866 723 816 678 q 823 820 846 786 q 741 897 787 871 q 644 922 694 922 q 535 893 598 922 l 535 711 m 503 877 q 428 827 465 854 l 428 213 q 466 212 453 212 l 503 213 l 503 877 m 535 465 q 624 512 587 499 q 705 526 662 526 q 786 512 748 526 q 873 465 823 499 q 884 568 884 524 q 873 687 884 614 q 773 628 816 644 q 683 612 731 612 q 613 624 646 612 q 535 669 579 637 l 535 465 m 535 213 q 695 238 633 215 q 797 304 758 260 q 866 429 836 348 q 782 479 817 467 q 704 492 747 492 q 623 479 661 492 q 535 429 585 465 l 535 213 m 539 1113 l 502 1113 l 563 1366 l 721 1366 l 539 1113 z "},"":{"ha":623,"x_min":33,"x_max":583,"o":"m 37 604 l 179 723 q 255 654 237 684 q 272 574 272 625 l 272 559 l 477 723 q 583 486 583 612 q 548 351 583 418 q 439 223 513 283 q 201 64 366 162 q 115 9 129 20 q 71 -37 84 -15 q 62 -74 62 -54 q 96 -138 62 -109 q 186 -168 130 -168 q 254 -153 227 -168 q 279 -124 267 -146 q 300 -96 291 -102 q 321 -89 309 -89 q 342 -96 334 -89 q 351 -116 351 -104 q 319 -159 351 -138 q 195 -193 270 -193 q 75 -156 117 -193 q 33 -68 33 -119 q 80 30 33 -18 q 108 62 102 53 q 128 110 123 88 q 134 172 134 132 l 134 496 q 118 589 134 564 q 92 608 106 608 q 62 590 80 608 q 53 582 59 587 l 37 604 m 272 528 l 272 143 q 408 287 368 212 q 448 430 448 362 q 374 609 448 522 l 272 528 m 316 774 l 279 774 l 340 1027 l 498 1027 l 316 774 z "},"":{"ha":1173,"x_min":24,"x_max":1080,"o":"m 606 -195 l 351 -195 l 351 27 q 167 -1 241 24 q 43 -73 93 -26 l 24 -52 q 188 87 111 41 q 351 151 265 132 q 274 296 336 232 q 97 389 211 359 l 97 422 l 351 581 l 351 1003 l 606 1003 l 606 746 l 796 869 q 961 747 890 812 q 1056 627 1031 681 q 1080 490 1080 572 l 1080 135 l 871 -52 q 719 -2 770 -15 q 606 16 667 10 l 606 -195 m 572 724 l 572 973 l 494 973 l 494 673 l 572 724 m 606 511 q 683 466 640 481 q 766 451 727 451 q 854 466 805 451 q 942 511 903 481 q 943 526 943 521 q 925 595 943 565 q 832 686 901 636 q 689 768 764 735 l 606 711 l 606 511 m 572 -165 l 572 689 l 494 637 l 494 -165 l 572 -165 m 351 542 l 203 444 q 286 402 253 424 q 351 345 318 380 l 351 542 m 606 300 q 693 340 652 327 q 770 353 734 353 q 858 338 810 353 q 942 295 905 323 l 942 473 q 853 433 899 446 q 760 419 808 419 q 686 433 724 419 q 606 473 647 446 l 606 300 m 606 151 q 942 57 754 144 l 942 248 q 869 303 911 285 q 777 321 828 321 q 689 306 732 321 q 606 259 646 290 l 606 151 z "},"":{"ha":623,"x_min":26,"x_max":570,"o":"m 26 104 l 26 159 q 117 176 78 172 l 117 754 q 112 840 117 816 q 93 886 107 864 q 45 935 79 908 l 56 949 q 167 877 117 931 q 258 950 217 930 q 355 972 299 970 l 355 954 q 279 886 302 926 q 257 764 257 845 l 257 559 l 430 720 q 538 624 505 667 q 566 574 559 598 q 570 493 570 555 l 570 142 q 372 -4 461 87 q 257 57 335 24 l 257 6 q 274 -109 257 -71 q 333 -173 292 -147 l 326 -193 q 231 -151 265 -174 q 169 -92 196 -127 q 76 -153 133 -130 l 67 -136 q 104 -87 92 -119 q 117 14 117 -54 l 117 95 q 26 104 79 102 m 257 526 l 257 175 q 365 153 335 162 q 433 125 394 144 l 433 495 q 426 545 433 536 q 348 608 410 568 l 257 526 z "},"":{"ha":926,"x_min":113,"x_max":814,"o":"m 113 717 l 201 805 l 464 542 l 726 805 l 814 716 l 553 454 l 812 194 l 724 106 l 464 366 l 203 106 l 115 194 l 376 454 l 113 717 z "},"":{"ha":463,"x_min":102,"x_max":368,"o":"m 368 515 l 254 434 l 149 494 l 174 522 l 174 787 q 169 851 174 841 q 156 861 163 861 q 119 840 148 861 l 102 865 l 213 939 q 278 890 260 924 q 292 793 292 864 l 292 577 l 292 540 q 306 522 295 533 q 314 515 309 520 l 351 540 l 368 515 z "},"":{"ha":463,"x_min":27,"x_max":428,"o":"m 64 431 l 27 444 q 62 522 35 488 q 183 626 98 568 q 270 704 249 671 q 302 808 302 755 q 274 870 302 840 l 106 766 l 27 837 l 185 939 l 422 842 q 427 797 427 814 q 385 687 427 739 q 222 589 343 635 q 153 554 176 571 q 106 505 130 536 q 203 535 149 523 q 298 548 258 548 q 428 526 366 548 l 351 431 q 198 458 258 458 q 129 451 163 458 q 64 431 96 444 z "},"":{"ha":463,"x_min":-6,"x_max":417,"o":"m 115 431 l -6 529 l 79 608 l 248 477 q 284 567 284 513 q 240 666 284 633 q 144 686 213 686 l 120 686 l 120 721 q 234 750 201 721 q 267 831 267 780 q 256 870 267 856 q 234 880 248 880 q 199 865 220 880 l 100 796 l 28 873 l 120 936 l 401 859 q 361 756 388 790 q 288 707 334 722 q 388 658 358 690 q 417 592 417 626 q 357 486 417 532 q 115 431 297 441 z "},"":{"ha":1403,"x_min":227,"x_max":1244,"o":"m 433 -46 l 345 -46 l 962 943 l 1050 943 l 433 -46 m 494 515 l 379 434 l 275 494 l 300 522 l 300 787 q 294 851 300 841 q 281 861 289 861 q 244 840 273 861 l 227 865 l 338 939 q 404 890 386 924 q 417 793 417 864 l 417 577 l 418 540 q 431 522 420 533 q 439 515 434 520 l 476 540 l 494 515 m 879 0 l 842 13 q 877 91 850 58 q 999 195 913 137 q 1085 274 1064 241 q 1118 377 1118 324 q 1090 439 1118 410 l 922 336 l 842 406 l 1000 508 l 1237 411 q 1243 366 1243 383 q 1201 256 1243 308 q 1038 158 1158 205 q 968 123 991 140 q 922 74 945 106 q 1019 105 964 92 q 1113 117 1074 117 q 1244 95 1181 117 l 1166 0 q 1013 27 1074 27 q 944 20 978 27 q 879 0 911 14 z "},"":{"ha":1402,"x_min":227,"x_max":1242,"o":"m 433 -46 l 345 -46 l 962 943 l 1050 943 l 433 -46 m 494 515 l 379 434 l 275 494 l 300 522 l 300 787 q 294 851 300 841 q 281 861 289 861 q 244 840 273 861 l 227 865 l 338 939 q 404 890 386 924 q 417 793 417 864 l 417 577 l 418 540 q 431 522 420 533 q 439 515 434 520 l 476 540 l 494 515 m 1118 -1 l 1018 58 l 1037 85 l 1037 134 l 846 134 l 823 228 l 1057 505 q 1116 484 1098 497 q 1143 445 1133 471 q 1154 372 1154 419 l 1154 218 l 1221 218 l 1242 134 l 1154 134 l 1154 112 l 1176 80 l 1209 98 l 1228 71 l 1118 -1 m 1037 218 l 1037 355 q 1039 395 1037 372 q 1032 413 1038 406 q 1027 416 1030 416 q 999 394 1018 416 l 856 223 l 1037 218 z "},"":{"ha":1402,"x_min":119,"x_max":1242,"o":"m 433 -46 l 345 -46 l 962 943 l 1050 943 l 433 -46 m 240 431 l 119 529 l 204 608 l 374 477 q 410 567 410 513 q 366 666 410 633 q 269 686 338 686 l 245 686 l 245 721 q 360 750 327 721 q 393 831 393 780 q 381 870 393 856 q 359 880 373 880 q 324 865 346 880 l 225 796 l 153 873 l 245 936 l 527 859 q 486 756 513 790 q 414 707 459 722 q 513 658 484 690 q 543 592 543 626 q 483 486 543 532 q 240 431 422 441 m 1118 -1 l 1018 58 l 1037 85 l 1037 134 l 846 134 l 823 228 l 1057 505 q 1116 484 1098 497 q 1143 445 1133 471 q 1153 372 1153 419 l 1153 218 l 1221 218 l 1242 134 l 1153 134 l 1153 112 l 1176 80 l 1208 98 l 1228 71 l 1118 -1 m 1037 218 l 1037 355 q 1038 395 1037 372 q 1032 413 1038 406 q 1026 416 1030 416 q 999 394 1017 416 l 856 223 l 1037 218 z "},"":{"ha":550,"x_min":229,"x_max":465,"o":"m 229 401 l 465 401 l 465 314 l 229 314 l 229 401 z "},"":{"ha":961,"x_min":113,"x_max":807,"o":"m 637 714 l 725 803 l 807 719 l 720 631 q 773 454 773 547 q 720 279 773 363 l 807 193 l 725 109 l 637 196 q 550 155 595 169 q 458 142 506 142 q 370 155 414 142 q 284 196 326 169 l 197 109 l 113 193 l 201 279 q 147 456 147 363 q 201 631 147 546 l 113 719 l 195 803 l 284 714 q 372 755 328 741 q 460 768 416 768 q 550 755 506 768 q 637 714 594 741 m 460 650 q 322 593 379 650 q 264 455 264 536 q 322 316 264 374 q 460 259 379 259 q 599 316 542 259 q 656 455 656 374 q 599 593 656 536 q 460 650 542 650 z "}}}
